Kufam-Regular.ufo
<glyph name="exclam" format="2">
  <advance width="296"/>
  <unicode hex="0021"/>
  <note>
exclam
</note>
  <outline>
    <contour>
      <point x="108" y="200" type="curve"/>
      <point x="184" y="200" type="line"/>
      <point x="184" y="200"/>
      <point x="192" y="299"/>
      <point x="192" y="416" type="curve" smooth="yes"/>
      <point x="192" y="566" type="line" smooth="yes"/>
      <point x="192" y="587"/>
      <point x="192" y="676"/>
      <point x="200" y="712" type="curve"/>
      <point x="198" y="720" type="line"/>
      <point x="100" y="720" type="line"/>
      <point x="100" y="416" type="line" smooth="yes"/>
      <point x="100" y="299"/>
      <point x="108" y="200"/>
    </contour>
    <contour>
      <point x="148" y="-8" type="curve" smooth="yes"/>
      <point x="184" y="-8"/>
      <point x="212" y="16"/>
      <point x="212" y="56" type="curve" smooth="yes"/>
      <point x="212" y="96"/>
      <point x="184" y="120"/>
      <point x="148" y="120" type="curve" smooth="yes"/>
      <point x="112" y="120"/>
      <point x="84" y="96"/>
      <point x="84" y="56" type="curve" smooth="yes"/>
      <point x="84" y="16"/>
      <point x="112" y="-8"/>
    </contour>
  </outline>
</glyph>
<glyph name="numbersign" format="2">
  <advance width="616"/>
  <unicode hex="0023"/>
  <note>
numbersign
</note>
  <outline>
    <contour>
      <point x="316" y="0" type="line"/>
      <point x="392" y="0" type="line"/>
      <point x="524" y="720" type="line"/>
      <point x="448" y="720" type="line"/>
    </contour>
    <contour>
      <point x="32" y="220" type="line"/>
      <point x="560" y="220" type="line"/>
      <point x="560" y="292" type="line"/>
      <point x="32" y="292" type="line"/>
    </contour>
    <contour>
      <point x="92" y="0" type="line"/>
      <point x="168" y="0" type="line"/>
      <point x="300" y="720" type="line"/>
      <point x="224" y="720" type="line"/>
    </contour>
    <contour>
      <point x="56" y="428" type="line"/>
      <point x="584" y="428" type="line"/>
      <point x="584" y="500" type="line"/>
      <point x="56" y="500" type="line"/>
    </contour>
  </outline>
</glyph>
<glyph name="dollar" format="2">
  <advance width="616"/>
  <unicode hex="0024"/>
  <note>
dollar
</note>
  <outline>
    <contour>
      <point x="288" y="-12" type="curve" smooth="yes"/>
      <point x="444" y="-12"/>
      <point x="544" y="68"/>
      <point x="544" y="196" type="curve" smooth="yes"/>
      <point x="544" y="296"/>
      <point x="474" y="369"/>
      <point x="364" y="390" type="curve" smooth="yes"/>
      <point x="292" y="404" type="line" smooth="yes"/>
      <point x="215" y="419"/>
      <point x="172" y="440"/>
      <point x="172" y="516" type="curve" smooth="yes"/>
      <point x="172" y="612"/>
      <point x="256" y="644"/>
      <point x="376" y="644" type="curve" smooth="yes"/>
      <point x="432" y="644"/>
      <point x="486" y="633"/>
      <point x="516" y="620" type="curve"/>
      <point x="520" y="620" type="line"/>
      <point x="520" y="712" type="line"/>
      <point x="483" y="727"/>
      <point x="413" y="732"/>
      <point x="372" y="732" type="curve" smooth="yes"/>
      <point x="192" y="732"/>
      <point x="80" y="660"/>
      <point x="80" y="512" type="curve" smooth="yes"/>
      <point x="80" y="392"/>
      <point x="164" y="339"/>
      <point x="272" y="318" type="curve" smooth="yes"/>
      <point x="344" y="304" type="line" smooth="yes"/>
      <point x="417" y="290"/>
      <point x="450" y="252"/>
      <point x="450" y="192" type="curve" smooth="yes"/>
      <point x="450" y="116"/>
      <point x="384" y="76"/>
      <point x="288" y="76" type="curve" smooth="yes"/>
      <point x="207" y="76"/>
      <point x="127" y="96"/>
      <point x="84" y="122" type="curve"/>
      <point x="80" y="122" type="line"/>
      <point x="80" y="24" type="line"/>
      <point x="125" y="1"/>
      <point x="219" y="-12"/>
    </contour>
    <contour>
      <point x="280" y="-160" type="line"/>
      <point x="364" y="-160" type="line"/>
      <point x="364" y="36" type="line"/>
      <point x="280" y="36" type="line"/>
    </contour>
    <contour>
      <point x="280" y="664" type="line"/>
      <point x="364" y="664" type="line"/>
      <point x="364" y="860" type="line"/>
      <point x="280" y="860" type="line"/>
    </contour>
  </outline>
</glyph>
<glyph name="parenleft" format="2">
  <advance width="356"/>
  <unicode hex="0028"/>
  <note>
parenleft
</note>
  <outline>
    <contour>
      <point x="220" y="-88" type="curve"/>
      <point x="316" y="-88" type="line"/>
      <point x="316" y="-84" type="line"/>
      <point x="220" y="20"/>
      <point x="160" y="160"/>
      <point x="160" y="336" type="curve" smooth="yes"/>
      <point x="160" y="512"/>
      <point x="220" y="652"/>
      <point x="316" y="756" type="curve"/>
      <point x="316" y="760" type="line"/>
      <point x="220" y="760" type="line"/>
      <point x="140" y="676"/>
      <point x="76" y="516"/>
      <point x="76" y="336" type="curve" smooth="yes"/>
      <point x="76" y="156"/>
      <point x="140" y="-4"/>
    </contour>
  </outline>
</glyph>
<glyph name="comma" format="2">
  <advance width="280"/>
  <unicode hex="002C"/>
  <note>
comma
</note>
  <outline>
    <contour>
      <point x="118" y="-12" type="curve"/>
      <point x="48" y="-148" type="line"/>
      <point x="48" y="-156" type="line"/>
      <point x="124" y="-156" type="line"/>
      <point x="184" y="-24" type="line" smooth="yes"/>
      <point x="192" y="-6"/>
      <point x="204" y="20"/>
      <point x="204" y="52" type="curve" smooth="yes"/>
      <point x="204" y="100"/>
      <point x="176" y="120"/>
      <point x="140" y="120" type="curve" smooth="yes"/>
      <point x="104" y="120"/>
      <point x="76" y="96"/>
      <point x="76" y="52" type="curve" smooth="yes"/>
      <point x="76" y="16"/>
      <point x="100" y="-4"/>
    </contour>
  </outline>
</glyph>
<glyph name="hyphen" format="2">
  <advance width="468"/>
  <unicode hex="002D"/>
  <note>
hyphen
</note>
  <outline>
    <contour>
      <point x="68" y="376" type="line"/>
      <point x="68" y="288" type="line"/>
      <point x="400" y="288" type="line"/>
      <point x="400" y="376" type="line"/>
    </contour>
  </outline>
</glyph>
<glyph name="zero" format="2">
  <advance width="616"/>
  <unicode hex="0030"/>
  <note>
zero
</note>
  <outline>
    <contour>
      <point x="308" y="-12" type="curve" smooth="yes"/>
      <point x="488" y="-12"/>
      <point x="564" y="144"/>
      <point x="564" y="360" type="curve" smooth="yes"/>
      <point x="564" y="576"/>
      <point x="488" y="732"/>
      <point x="308" y="732" type="curve" smooth="yes"/>
      <point x="128" y="732"/>
      <point x="52" y="576"/>
      <point x="52" y="360" type="curve" smooth="yes"/>
      <point x="52" y="144"/>
      <point x="128" y="-12"/>
    </contour>
    <contour>
      <point x="308" y="72" type="curve" smooth="yes"/>
      <point x="196" y="72"/>
      <point x="148" y="172"/>
      <point x="148" y="360" type="curve" smooth="yes"/>
      <point x="148" y="548"/>
      <point x="196" y="648"/>
      <point x="308" y="648" type="curve" smooth="yes"/>
      <point x="420" y="648"/>
      <point x="468" y="548"/>
      <point x="468" y="360" type="curve" smooth="yes"/>
      <point x="468" y="172"/>
      <point x="420" y="72"/>
    </contour>
  </outline>
</glyph>
<glyph name="two" format="2">
  <advance width="616"/>
  <unicode hex="0032"/>
  <note>
two
</note>
  <outline>
    <contour>
      <point x="76" y="0" type="curve"/>
      <point x="552" y="0" type="line"/>
      <point x="552" y="84" type="line"/>
      <point x="113" y="84" type="line"/>
      <point x="160" y="65" type="line"/>
      <point x="152" y="80"/>
      <point x="148" y="86"/>
      <point x="148" y="108" type="curve" smooth="yes"/>
      <point x="148" y="176"/>
      <point x="186" y="226"/>
      <point x="292" y="252" type="curve" smooth="yes"/>
      <point x="340" y="264" type="line" smooth="yes"/>
      <point x="451" y="292"/>
      <point x="532" y="368"/>
      <point x="532" y="504" type="curve" smooth="yes"/>
      <point x="532" y="632"/>
      <point x="452" y="732"/>
      <point x="260" y="732" type="curve" smooth="yes"/>
      <point x="188" y="732"/>
      <point x="124" y="716"/>
      <point x="84" y="700" type="curve"/>
      <point x="84" y="612" type="line"/>
      <point x="92" y="612" type="line"/>
      <point x="136" y="632"/>
      <point x="188" y="648"/>
      <point x="256" y="648" type="curve" smooth="yes"/>
      <point x="376" y="648"/>
      <point x="440" y="596"/>
      <point x="440" y="504" type="curve" smooth="yes"/>
      <point x="440" y="412"/>
      <point x="396" y="366"/>
      <point x="308" y="344" type="curve" smooth="yes"/>
      <point x="259" y="332" type="line" smooth="yes"/>
      <point x="109" y="295"/>
      <point x="60" y="207"/>
      <point x="60" y="96" type="curve" smooth="yes"/>
      <point x="60" y="72"/>
      <point x="64" y="24"/>
    </contour>
  </outline>
</glyph>
<glyph name="three" format="2">
  <advance width="616"/>
  <unicode hex="0033"/>
  <note>
three
</note>
  <outline>
    <contour>
      <point x="256" y="-12" type="curve" smooth="yes"/>
      <point x="428" y="-12"/>
      <point x="532" y="76"/>
      <point x="532" y="208" type="curve" smooth="yes"/>
      <point x="532" y="341"/>
      <point x="445" y="417"/>
      <point x="281" y="420" type="curve"/>
      <point x="289" y="390" type="line"/>
      <point x="460" y="582" type="line" smooth="yes"/>
      <point x="486" y="612"/>
      <point x="504" y="644"/>
      <point x="504" y="676" type="curve" smooth="yes"/>
      <point x="504" y="684"/>
      <point x="502" y="700"/>
      <point x="500" y="710" type="curve"/>
      <point x="488" y="720" type="line"/>
      <point x="84" y="720" type="line"/>
      <point x="84" y="640" type="line"/>
      <point x="434" y="640" type="line"/>
      <point x="420" y="669" type="line"/>
      <point x="180" y="384" type="line"/>
      <point x="196" y="344" type="line"/>
      <point x="268" y="344" type="line" smooth="yes"/>
      <point x="384" y="344"/>
      <point x="440" y="292"/>
      <point x="440" y="212" type="curve" smooth="yes"/>
      <point x="440" y="152"/>
      <point x="404" y="72"/>
      <point x="256" y="72" type="curve" smooth="yes"/>
      <point x="184" y="72"/>
      <point x="120" y="96"/>
      <point x="80" y="122" type="curve"/>
      <point x="72" y="122" type="line"/>
      <point x="72" y="28" type="line"/>
      <point x="116" y="4"/>
      <point x="184" y="-12"/>
    </contour>
  </outline>
</glyph>
<glyph name="seven" format="2">
  <advance width="616"/>
  <unicode hex="0037"/>
  <note>
seven
</note>
  <outline>
    <contour>
      <point x="76" y="720" type="line"/>
      <point x="76" y="636" type="line"/>
      <point x="502" y="636" type="line"/>
      <point x="481" y="670" type="line"/>
      <point x="156" y="6" type="line"/>
      <point x="156" y="0" type="line"/>
      <point x="256" y="0" type="line"/>
      <point x="520" y="556" type="line" smooth="yes"/>
      <point x="536" y="592"/>
      <point x="548" y="634"/>
      <point x="548" y="672" type="curve" smooth="yes"/>
      <point x="548" y="684"/>
      <point x="546" y="696"/>
      <point x="544" y="710" type="curve"/>
      <point x="532" y="720" type="line"/>
    </contour>
  </outline>
</glyph>
<glyph name="eight" format="2">
  <advance width="616"/>
  <unicode hex="0038"/>
  <note>
eight
</note>
  <outline>
    <contour>
      <point x="308" y="-12" type="curve" smooth="yes"/>
      <point x="460" y="-12"/>
      <point x="564" y="64"/>
      <point x="564" y="188" type="curve" smooth="yes"/>
      <point x="564" y="308"/>
      <point x="463" y="366"/>
      <point x="348" y="404" type="curve" smooth="yes"/>
      <point x="300" y="420" type="line" smooth="yes"/>
      <point x="223" y="446"/>
      <point x="168" y="468"/>
      <point x="168" y="544" type="curve" smooth="yes"/>
      <point x="168" y="604"/>
      <point x="216" y="652"/>
      <point x="308" y="652" type="curve" smooth="yes"/>
      <point x="404" y="652"/>
      <point x="454" y="604"/>
      <point x="454" y="524" type="curve" smooth="yes"/>
      <point x="454" y="450"/>
      <point x="400" y="406"/>
      <point x="362" y="388" type="curve"/>
      <point x="414" y="340" type="line"/>
      <point x="472" y="364"/>
      <point x="544" y="432"/>
      <point x="544" y="528" type="curve" smooth="yes"/>
      <point x="544" y="636"/>
      <point x="472" y="732"/>
      <point x="316" y="732" type="curve" smooth="yes"/>
      <point x="152" y="732"/>
      <point x="80" y="640"/>
      <point x="80" y="540" type="curve" smooth="yes"/>
      <point x="80" y="424"/>
      <point x="163" y="378"/>
      <point x="264" y="344" type="curve" smooth="yes"/>
      <point x="312" y="328" type="line" smooth="yes"/>
      <point x="389" y="302"/>
      <point x="472" y="272"/>
      <point x="472" y="188" type="curve" smooth="yes"/>
      <point x="472" y="116"/>
      <point x="416" y="68"/>
      <point x="312" y="68" type="curve" smooth="yes"/>
      <point x="212" y="68"/>
      <point x="144" y="112"/>
      <point x="144" y="200" type="curve" smooth="yes"/>
      <point x="144" y="292"/>
      <point x="220" y="344"/>
      <point x="308" y="360" type="curve"/>
      <point x="256" y="416" type="line"/>
      <point x="144" y="384"/>
      <point x="52" y="312"/>
      <point x="52" y="196" type="curve" smooth="yes"/>
      <point x="52" y="72"/>
      <point x="136" y="-12"/>
    </contour>
  </outline>
</glyph>
<glyph name="nine" format="2">
  <advance width="616"/>
  <unicode hex="0039"/>
  <note>
nine
</note>
  <outline>
    <contour>
      <point x="228" y="-12" type="curve" smooth="yes"/>
      <point x="448" y="-12"/>
      <point x="560" y="136"/>
      <point x="560" y="372" type="curve" smooth="yes"/>
      <point x="560" y="588"/>
      <point x="488" y="732"/>
      <point x="300" y="732" type="curve" smooth="yes"/>
      <point x="140" y="732"/>
      <point x="52" y="624"/>
      <point x="52" y="488" type="curve" smooth="yes"/>
      <point x="52" y="332"/>
      <point x="148" y="252"/>
      <point x="280" y="252" type="curve" smooth="yes"/>
      <point x="384" y="252"/>
      <point x="440" y="292"/>
      <point x="472" y="330" type="curve"/>
      <point x="512" y="330" type="line"/>
      <point x="512" y="424" type="line"/>
      <point x="476" y="424" type="line"/>
      <point x="438" y="372"/>
      <point x="384" y="332"/>
      <point x="296" y="332" type="curve" smooth="yes"/>
      <point x="196" y="332"/>
      <point x="144" y="392"/>
      <point x="144" y="488" type="curve" smooth="yes"/>
      <point x="144" y="576"/>
      <point x="188" y="652"/>
      <point x="296" y="652" type="curve" smooth="yes"/>
      <point x="424" y="652"/>
      <point x="464" y="556"/>
      <point x="464" y="368" type="curve" smooth="yes"/>
      <point x="464" y="180"/>
      <point x="392" y="72"/>
      <point x="232" y="72" type="curve" smooth="yes"/>
      <point x="172" y="72"/>
      <point x="140" y="84"/>
      <point x="112" y="96" type="curve"/>
      <point x="104" y="96" type="line"/>
      <point x="104" y="8" type="line"/>
      <point x="136" y="-4"/>
      <point x="172" y="-12"/>
    </contour>
  </outline>
</glyph>
<glyph name="colon" format="2">
  <advance width="280"/>
  <unicode hex="003A"/>
  <note>
colon
</note>
  <outline>
    <contour>
      <point x="140" y="-8" type="curve" smooth="yes"/>
      <point x="176" y="-8"/>
      <point x="204" y="16"/>
      <point x="204" y="56" type="curve" smooth="yes"/>
      <point x="204" y="96"/>
      <point x="176" y="120"/>
      <point x="140" y="120" type="curve" smooth="yes"/>
      <point x="104" y="120"/>
      <point x="76" y="96"/>
      <point x="76" y="56" type="curve" smooth="yes"/>
      <point x="76" y="16"/>
      <point x="104" y="-8"/>
    </contour>
    <contour>
      <point x="140" y="416" type="curve" smooth="yes"/>
      <point x="176" y="416"/>
      <point x="204" y="440"/>
      <point x="204" y="480" type="curve" smooth="yes"/>
      <point x="204" y="520"/>
      <point x="176" y="544"/>
      <point x="140" y="544" type="curve" smooth="yes"/>
      <point x="104" y="544"/>
      <point x="76" y="520"/>
      <point x="76" y="480" type="curve" smooth="yes"/>
      <point x="76" y="440"/>
      <point x="104" y="416"/>
    </contour>
  </outline>
</glyph>
<glyph name="semicolon" format="2">
  <advance width="279"/>
  <unicode hex="003B"/>
  <note>
semicolon
</note>
  <outline>
    <contour>
      <point x="139" y="416" type="curve" smooth="yes"/>
      <point x="175" y="416"/>
      <point x="203" y="440"/>
      <point x="203" y="480" type="curve" smooth="yes"/>
      <point x="203" y="520"/>
      <point x="175" y="544"/>
      <point x="139" y="544" type="curve" smooth="yes"/>
      <point x="103" y="544"/>
      <point x="75" y="520"/>
      <point x="75" y="480" type="curve" smooth="yes"/>
      <point x="75" y="440"/>
      <point x="103" y="416"/>
    </contour>
    <contour>
      <point x="117" y="-12" type="curve"/>
      <point x="48" y="-147" type="line"/>
      <point x="48" y="-155" type="line"/>
      <point x="124" y="-155" type="line"/>
      <point x="183" y="-24" type="line" smooth="yes"/>
      <point x="191" y="-6"/>
      <point x="203" y="20"/>
      <point x="203" y="52" type="curve" smooth="yes"/>
      <point x="203" y="100"/>
      <point x="175" y="120"/>
      <point x="139" y="120" type="curve" smooth="yes"/>
      <point x="103" y="120"/>
      <point x="75" y="96"/>
      <point x="75" y="52" type="curve" smooth="yes"/>
      <point x="75" y="16"/>
      <point x="99" y="-4"/>
    </contour>
  </outline>
</glyph>
<glyph name="question" format="2">
  <advance width="500"/>
  <unicode hex="003F"/>
  <note>
question
</note>
  <outline>
    <contour>
      <point x="168" y="188" type="line"/>
      <point x="260" y="188" type="line"/>
      <point x="260" y="256" type="line" smooth="yes"/>
      <point x="260" y="280"/>
      <point x="266" y="316"/>
      <point x="296" y="337" type="curve" smooth="yes"/>
      <point x="336" y="365" type="line" smooth="yes"/>
      <point x="368" y="387"/>
      <point x="452" y="432"/>
      <point x="452" y="540" type="curve" smooth="yes"/>
      <point x="452" y="672"/>
      <point x="368" y="732"/>
      <point x="228" y="732" type="curve" smooth="yes"/>
      <point x="160" y="732"/>
      <point x="104" y="720"/>
      <point x="56" y="696" type="curve"/>
      <point x="56" y="608" type="line"/>
      <point x="64" y="608" type="line"/>
      <point x="108" y="632"/>
      <point x="160" y="648"/>
      <point x="224" y="648" type="curve" smooth="yes"/>
      <point x="304" y="648"/>
      <point x="356" y="616"/>
      <point x="356" y="544" type="curve" smooth="yes"/>
      <point x="356" y="480"/>
      <point x="321" y="453"/>
      <point x="292" y="433" type="curve" smooth="yes"/>
      <point x="240" y="397" type="line" smooth="yes"/>
      <point x="190" y="362"/>
      <point x="168" y="316"/>
      <point x="168" y="260" type="curve" smooth="yes"/>
    </contour>
    <contour>
      <point x="216" y="-8" type="curve" smooth="yes"/>
      <point x="252" y="-8"/>
      <point x="280" y="16"/>
      <point x="280" y="56" type="curve" smooth="yes"/>
      <point x="280" y="96"/>
      <point x="252" y="120"/>
      <point x="216" y="120" type="curve" smooth="yes"/>
      <point x="180" y="120"/>
      <point x="152" y="96"/>
      <point x="152" y="56" type="curve" smooth="yes"/>
      <point x="152" y="16"/>
      <point x="180" y="-8"/>
    </contour>
  </outline>
</glyph>
<glyph name="at" format="2">
  <advance width="966"/>
  <unicode hex="0040"/>
  <note>
at
</note>
  <outline>
    <contour>
      <point x="510" y="-156" type="curve" smooth="yes"/>
      <point x="576" y="-156"/>
      <point x="656" y="-144"/>
      <point x="692" y="-128" type="curve"/>
      <point x="692" y="-44" type="line"/>
      <point x="684" y="-44" type="line"/>
      <point x="648" y="-62"/>
      <point x="572" y="-76"/>
      <point x="510" y="-76" type="curve" smooth="yes"/>
      <point x="304" y="-76"/>
      <point x="144" y="24"/>
      <point x="144" y="288" type="curve" smooth="yes"/>
      <point x="144" y="540"/>
      <point x="294" y="648"/>
      <point x="510" y="648" type="curve" smooth="yes"/>
      <point x="690" y="648"/>
      <point x="826" y="556"/>
      <point x="826" y="376" type="curve" smooth="yes"/>
      <point x="826" y="244"/>
      <point x="766" y="167"/>
      <point x="668" y="131" type="curve"/>
      <point x="666" y="161"/>
      <point x="666" y="194"/>
      <point x="666" y="214" type="curve" smooth="yes"/>
      <point x="666" y="320" type="line" smooth="yes"/>
      <point x="666" y="468"/>
      <point x="586" y="508"/>
      <point x="474" y="508" type="curve" smooth="yes"/>
      <point x="426" y="508"/>
      <point x="378" y="496"/>
      <point x="342" y="482" type="curve"/>
      <point x="342" y="404" type="line"/>
      <point x="350" y="404" type="line"/>
      <point x="374" y="416"/>
      <point x="418" y="432"/>
      <point x="466" y="432" type="curve" smooth="yes"/>
      <point x="556" y="432"/>
      <point x="586" y="403"/>
      <point x="586" y="317" type="curve" smooth="yes"/>
      <point x="586" y="173" type="line" smooth="yes"/>
      <point x="586" y="140"/>
      <point x="590" y="114"/>
      <point x="601" y="93" type="curve"/>
      <point x="617" y="116" type="line"/>
      <point x="584" y="111"/>
      <point x="549" y="108"/>
      <point x="512" y="108" type="curve" smooth="yes"/>
      <point x="430" y="108"/>
      <point x="386" y="132"/>
      <point x="386" y="184" type="curve" smooth="yes"/>
      <point x="386" y="232"/>
      <point x="422" y="260"/>
      <point x="502" y="260" type="curve" smooth="yes"/>
      <point x="536" y="260"/>
      <point x="576" y="253"/>
      <point x="608" y="244" type="curve"/>
      <point x="608" y="312" type="line"/>
      <point x="576" y="320"/>
      <point x="540" y="328"/>
      <point x="498" y="328" type="curve" smooth="yes"/>
      <point x="384" y="328"/>
      <point x="306" y="276"/>
      <point x="306" y="188" type="curve" smooth="yes"/>
      <point x="306" y="88"/>
      <point x="382" y="36"/>
      <point x="512" y="36" type="curve" smooth="yes"/>
      <point x="736" y="36"/>
      <point x="914" y="140"/>
      <point x="914" y="376" type="curve" smooth="yes"/>
      <point x="914" y="596"/>
      <point x="746" y="732"/>
      <point x="510" y="732" type="curve" smooth="yes"/>
      <point x="222" y="732"/>
      <point x="52" y="560"/>
      <point x="52" y="288" type="curve" smooth="yes"/>
      <point x="52" y="-16"/>
      <point x="244" y="-156"/>
    </contour>
  </outline>
</glyph>
<glyph name="A" format="2">
  <advance width="662"/>
  <unicode hex="0041"/>
  <note>
A
</note>
  <anchor x="331" y="0" name="bottom"/>
  <anchor x="566" y="10" name="ogonek"/>
  <anchor x="377" y="720" name="top"/>
  <outline>
    <contour>
      <point x="48" y="0" type="line"/>
      <point x="146" y="0" type="line"/>
      <point x="226" y="480" type="line" smooth="yes"/>
      <point x="245" y="591"/>
      <point x="286" y="644"/>
      <point x="418" y="644" type="curve" smooth="yes"/>
      <point x="447" y="644"/>
      <point x="473" y="642"/>
      <point x="490" y="634" type="curve"/>
      <point x="474" y="663" type="line"/>
      <point x="470" y="642"/>
      <point x="470" y="618"/>
      <point x="470" y="592" type="curve" smooth="yes"/>
      <point x="470" y="0" type="line"/>
      <point x="566" y="0" type="line"/>
      <point x="566" y="540" type="line" smooth="yes"/>
      <point x="566" y="580"/>
      <point x="566" y="660"/>
      <point x="572" y="700" type="curve"/>
      <point x="570" y="712" type="line"/>
      <point x="518" y="724"/>
      <point x="470" y="728"/>
      <point x="422" y="728" type="curve" smooth="yes"/>
      <point x="222" y="728"/>
      <point x="155" y="640"/>
      <point x="128" y="480" type="curve" smooth="yes"/>
    </contour>
    <contour>
      <point x="148" y="220" type="line"/>
      <point x="510" y="220" type="line"/>
      <point x="510" y="304" type="line"/>
      <point x="148" y="304" type="line"/>
    </contour>
  </outline>
</glyph>
<glyph name="D" format="2">
  <advance width="720"/>
  <unicode hex="0044"/>
  <note>
D
</note>
  <anchor x="360" y="0" name="bottom"/>
  <anchor x="160" y="372" name="center"/>
  <anchor x="360" y="720" name="top"/>
  <outline>
    <contour>
      <point x="152" y="0" type="line"/>
      <point x="312" y="0" type="line" smooth="yes"/>
      <point x="572" y="0"/>
      <point x="664" y="200"/>
      <point x="664" y="400" type="curve" smooth="yes"/>
      <point x="664" y="612"/>
      <point x="548" y="720"/>
      <point x="336" y="720" type="curve" smooth="yes"/>
      <point x="152" y="720" type="line"/>
      <point x="152" y="636" type="line"/>
      <point x="336" y="636" type="line" smooth="yes"/>
      <point x="488" y="636"/>
      <point x="564" y="556"/>
      <point x="564" y="400" type="curve" smooth="yes"/>
      <point x="564" y="256"/>
      <point x="508" y="84"/>
      <point x="312" y="84" type="curve" smooth="yes"/>
      <point x="152" y="84" type="line"/>
    </contour>
    <contour>
      <point x="96" y="0" type="line"/>
      <point x="192" y="0" type="line"/>
      <point x="192" y="720" type="line"/>
      <point x="96" y="720" type="line"/>
    </contour>
  </outline>
</glyph>
<glyph name="F" format="2">
  <advance width="572"/>
  <unicode hex="0046"/>
  <note>
F
</note>
  <anchor x="286" y="0" name="bottom"/>
  <anchor x="286" y="720" name="top"/>
  <outline>
    <contour>
      <point x="96" y="0" type="line"/>
      <point x="192" y="0" type="line"/>
      <point x="192" y="720" type="line"/>
      <point x="96" y="720" type="line"/>
    </contour>
    <contour>
      <point x="152" y="280" type="line"/>
      <point x="484" y="280" type="line"/>
      <point x="484" y="364" type="line"/>
      <point x="152" y="364" type="line"/>
    </contour>
    <contour>
      <point x="152" y="636" type="line"/>
      <point x="540" y="636" type="line"/>
      <point x="540" y="720" type="line"/>
      <point x="152" y="720" type="line"/>
    </contour>
  </outline>
</glyph>
<glyph name="I" format="2">
  <advance width="288"/>
  <unicode hex="0049"/>
  <note>
I
</note>
  <anchor x="144" y="0" name="bottom"/>
  <anchor x="192" y="0" name="ogonek"/>
  <anchor x="144" y="720" name="top"/>
  <anchor x="20" y="720" name="topleft"/>
  <outline>
    <contour>
      <point x="96" y="720" type="line"/>
      <point x="96" y="0" type="line"/>
      <point x="192" y="0" type="line"/>
      <point x="192" y="720" type="line"/>
    </contour>
  </outline>
</glyph>
<glyph name="K" format="2">
  <advance width="650"/>
  <unicode hex="004B"/>
  <note>
K
</note>
  <anchor x="325" y="0" name="bottom"/>
  <anchor x="325" y="720" name="top"/>
  <outline>
    <contour>
      <point x="268" y="280" type="line" smooth="yes"/>
      <point x="377" y="280"/>
      <point x="435" y="342"/>
      <point x="472" y="420" type="curve" smooth="yes"/>
      <point x="612" y="712" type="line"/>
      <point x="612" y="720" type="line"/>
      <point x="512" y="720" type="line"/>
      <point x="384" y="448" type="line" smooth="yes"/>
      <point x="362" y="400"/>
      <point x="332" y="364"/>
      <point x="264" y="364" type="curve" smooth="yes"/>
      <point x="150" y="364" type="line"/>
      <point x="150" y="280" type="line"/>
    </contour>
    <contour>
      <point x="96" y="0" type="line"/>
      <point x="192" y="0" type="line"/>
      <point x="192" y="720" type="line"/>
      <point x="96" y="720" type="line"/>
    </contour>
    <contour>
      <point x="400" y="344" type="line"/>
      <point x="324" y="296" type="line"/>
      <point x="506" y="0" type="line"/>
      <point x="614" y="0" type="line"/>
      <point x="614" y="8" type="line"/>
    </contour>
  </outline>
</glyph>
<glyph name="L" format="2">
  <advance width="532"/>
  <unicode hex="004C"/>
  <note>
L
</note>
  <anchor x="266" y="0" name="bottom"/>
  <anchor x="188" y="382" name="center"/>
  <anchor x="368" y="392" name="periodCAT"/>
  <anchor x="266" y="720" name="top"/>
  <anchor x="512" y="720" name="topright"/>
  <outline>
    <contour>
      <point x="96" y="0" type="line"/>
      <point x="500" y="0" type="line"/>
      <point x="500" y="84" type="line"/>
      <point x="192" y="84" type="line"/>
      <point x="192" y="720" type="line"/>
      <point x="96" y="720" type="line"/>
    </contour>
  </outline>
</glyph>
<glyph name="M" format="2">
  <advance width="820"/>
  <unicode hex="004D"/>
  <note>
M
</note>
  <anchor x="410" y="0" name="bottom"/>
  <anchor x="410" y="720" name="top"/>
  <outline>
    <contour>
      <point x="96" y="0" type="line"/>
      <point x="192" y="0" type="line"/>
      <point x="192" y="563" type="line"/>
      <point x="171" y="557" type="line"/>
      <point x="372" y="248" type="line"/>
      <point x="448" y="248" type="line"/>
      <point x="649" y="557" type="line"/>
      <point x="628" y="563" type="line"/>
      <point x="628" y="0" type="line"/>
      <point x="724" y="0" type="line"/>
      <point x="724" y="720" type="line"/>
      <point x="644" y="720" type="line"/>
      <point x="390" y="324" type="line"/>
      <point x="430" y="324" type="line"/>
      <point x="176" y="720" type="line"/>
      <point x="96" y="720" type="line"/>
    </contour>
  </outline>
</glyph>
<glyph name="N" format="2">
  <advance width="736"/>
  <unicode hex="004E"/>
  <note>
N
</note>
  <anchor x="368" y="0" name="bottom"/>
  <anchor x="368" y="720" name="top"/>
  <outline>
    <contour>
      <point x="96" y="0" type="line"/>
      <point x="192" y="0" type="line"/>
      <point x="192" y="606" type="line"/>
      <point x="166" y="595" type="line"/>
      <point x="590" y="148" type="line"/>
      <point x="590" y="283" type="line"/>
      <point x="176" y="720" type="line"/>
      <point x="96" y="720" type="line"/>
    </contour>
    <contour>
      <point x="544" y="0" type="line"/>
      <point x="640" y="0" type="line"/>
      <point x="640" y="720" type="line"/>
      <point x="544" y="720" type="line"/>
    </contour>
  </outline>
</glyph>
<glyph name="O" format="2">
  <advance width="784"/>
  <unicode hex="004F"/>
  <note>
O
</note>
  <anchor x="392" y="0" name="bottom"/>
  <anchor x="392" y="360" name="center"/>
  <anchor x="466" y="10" name="ogonek"/>
  <anchor x="392" y="720" name="top"/>
  <anchor x="20" y="720" name="topleft"/>
  <anchor x="469" y="720" name="topright"/>
  <outline>
    <contour>
      <point x="56" y="360" type="curve" smooth="yes"/>
      <point x="56" y="140"/>
      <point x="182" y="-12"/>
      <point x="392" y="-12" type="curve" smooth="yes"/>
      <point x="600" y="-12"/>
      <point x="728" y="140"/>
      <point x="728" y="360" type="curve" smooth="yes"/>
      <point x="728" y="580"/>
      <point x="600" y="732"/>
      <point x="392" y="732" type="curve" smooth="yes"/>
      <point x="184" y="732"/>
      <point x="56" y="580"/>
    </contour>
    <contour>
      <point x="156" y="360" type="curve" smooth="yes"/>
      <point x="156" y="544"/>
      <point x="248" y="644"/>
      <point x="392" y="644" type="curve" smooth="yes"/>
      <point x="536" y="644"/>
      <point x="628" y="544"/>
      <point x="628" y="360" type="curve" smooth="yes"/>
      <point x="628" y="176"/>
      <point x="536" y="76"/>
      <point x="392" y="76" type="curve" smooth="yes"/>
      <point x="248" y="76"/>
      <point x="156" y="176"/>
    </contour>
  </outline>
</glyph>
<glyph name="S" format="2">
  <advance width="584"/>
  <unicode hex="0053"/>
  <note>
S
</note>
  <anchor x="292" y="0" name="bottom"/>
  <anchor x="292" y="720" name="top"/>
  <outline>
    <contour>
      <point x="64" y="118" type="line"/>
      <point x="64" y="24" type="line"/>
      <point x="116" y="4"/>
      <point x="188" y="-12"/>
      <point x="272" y="-12" type="curve" smooth="yes"/>
      <point x="428" y="-12"/>
      <point x="534" y="52"/>
      <point x="534" y="184" type="curve" smooth="yes"/>
      <point x="534" y="292"/>
      <point x="465" y="346"/>
      <point x="364" y="364" type="curve" smooth="yes"/>
      <point x="276" y="380" type="line" smooth="yes"/>
      <point x="199" y="394"/>
      <point x="152" y="420"/>
      <point x="152" y="504" type="curve" smooth="yes"/>
      <point x="152" y="604"/>
      <point x="240" y="644"/>
      <point x="352" y="644" type="curve" smooth="yes"/>
      <point x="420" y="644"/>
      <point x="468" y="628"/>
      <point x="500" y="612" type="curve"/>
      <point x="508" y="612" type="line"/>
      <point x="508" y="704" type="line"/>
      <point x="472" y="720"/>
      <point x="412" y="732"/>
      <point x="356" y="732" type="curve" smooth="yes"/>
      <point x="176" y="732"/>
      <point x="56" y="660"/>
      <point x="56" y="500" type="curve" smooth="yes"/>
      <point x="56" y="372"/>
      <point x="139" y="314"/>
      <point x="240" y="296" type="curve" smooth="yes"/>
      <point x="328" y="280" type="line" smooth="yes"/>
      <point x="401" y="267"/>
      <point x="438" y="244"/>
      <point x="438" y="180" type="curve" smooth="yes"/>
      <point x="438" y="100"/>
      <point x="368" y="76"/>
      <point x="272" y="76" type="curve" smooth="yes"/>
      <point x="188" y="76"/>
      <point x="120" y="92"/>
      <point x="72" y="118" type="curve"/>
    </contour>
  </outline>
</glyph>
<glyph name="X" format="2">
  <advance width="656"/>
  <unicode hex="0058"/>
  <note>
X
</note>
  <anchor x="328" y="0" name="bottom"/>
  <anchor x="328" y="720" name="top"/>
  <outline>
    <contour>
      <point x="516" y="0" type="line"/>
      <point x="628" y="0" type="line"/>
      <point x="628" y="8" type="line"/>
      <point x="356" y="399" type="line"/>
      <point x="140" y="720" type="line"/>
      <point x="28" y="720" type="line"/>
      <point x="28" y="712" type="line"/>
      <point x="300" y="321" type="line"/>
    </contour>
    <contour>
      <point x="32" y="0" type="line"/>
      <point x="136" y="0" type="line"/>
      <point x="352" y="321" type="line"/>
      <point x="620" y="712" type="line"/>
      <point x="620" y="720" type="line"/>
      <point x="516" y="720" type="line"/>
      <point x="300" y="399" type="line"/>
      <point x="32" y="8" type="line"/>
    </contour>
  </outline>
</glyph>
<glyph name="Y" format="2">
  <advance width="612"/>
  <unicode hex="0059"/>
  <note>
Y
</note>
  <anchor x="308" y="0" name="bottom"/>
  <anchor x="306" y="720" name="top"/>
  <anchor x="20" y="720" name="topleft"/>
  <outline>
    <contour>
      <point x="260" y="0" type="line"/>
      <point x="356" y="0" type="line"/>
      <point x="356" y="306" type="line"/>
      <point x="604" y="712" type="line"/>
      <point x="604" y="720" type="line"/>
      <point x="500" y="720" type="line"/>
      <point x="290" y="362" type="line"/>
      <point x="328" y="362" type="line"/>
      <point x="116" y="720" type="line"/>
      <point x="8" y="720" type="line"/>
      <point x="8" y="712" type="line"/>
      <point x="260" y="300" type="line"/>
    </contour>
  </outline>
</glyph>
<glyph name="bracketleft" format="2">
  <advance width="344"/>
  <unicode hex="005B"/>
  <note>
bracketleft
</note>
  <outline>
    <contour>
      <point x="112" y="760" type="line"/>
      <point x="112" y="-88" type="line"/>
      <point x="320" y="-88" type="line"/>
      <point x="320" y="-12" type="line"/>
      <point x="196" y="-12" type="line"/>
      <point x="196" y="684" type="line"/>
      <point x="320" y="684" type="line"/>
      <point x="320" y="760" type="line"/>
    </contour>
  </outline>
</glyph>
<glyph name="bracketright" format="2">
  <advance width="344"/>
  <unicode hex="005D"/>
  <note>
bracketright
</note>
  <outline>
    <contour>
      <point x="24" y="-12" type="line"/>
      <point x="24" y="-88" type="line"/>
      <point x="232" y="-88" type="line"/>
      <point x="232" y="760" type="line"/>
      <point x="24" y="760" type="line"/>
      <point x="24" y="684" type="line"/>
      <point x="148" y="684" type="line"/>
      <point x="148" y="-12" type="line"/>
    </contour>
  </outline>
</glyph>
<glyph name="underscore" format="2">
  <advance width="500"/>
  <unicode hex="005F"/>
  <note>
underscore
</note>
  <outline>
    <contour>
      <point x="484" y="-12" type="line"/>
      <point x="16" y="-12" type="line"/>
      <point x="16" y="-90" type="line"/>
      <point x="484" y="-90" type="line"/>
    </contour>
  </outline>
</glyph>
<glyph name="a" format="2">
  <advance width="590"/>
  <unicode hex="0061"/>
  <note>
a
</note>
  <anchor x="295" y="0" name="bottom"/>
  <anchor x="508" y="28" name="ogonek"/>
  <anchor x="295" y="544" name="top"/>
  <outline>
    <contour>
      <point x="286" y="-12" type="curve" smooth="yes"/>
      <point x="346" y="-12"/>
      <point x="442" y="4"/>
      <point x="508" y="28" type="curve"/>
      <point x="510" y="36" type="line"/>
      <point x="502" y="72"/>
      <point x="502" y="160"/>
      <point x="502" y="200" type="curve" smooth="yes"/>
      <point x="502" y="332" type="line" smooth="yes"/>
      <point x="502" y="520"/>
      <point x="398" y="556"/>
      <point x="266" y="556" type="curve" smooth="yes"/>
      <point x="214" y="556"/>
      <point x="150" y="546"/>
      <point x="102" y="526" type="curve"/>
      <point x="102" y="444" type="line"/>
      <point x="110" y="444" type="line"/>
      <point x="142" y="460"/>
      <point x="202" y="476"/>
      <point x="254" y="476" type="curve" smooth="yes"/>
      <point x="358" y="476"/>
      <point x="410" y="456"/>
      <point x="410" y="328" type="curve" smooth="yes"/>
      <point x="410" y="148" type="line" smooth="yes"/>
      <point x="410" y="114"/>
      <point x="412" y="83"/>
      <point x="418" y="61" type="curve"/>
      <point x="436" y="88" type="line"/>
      <point x="393" y="73"/>
      <point x="343" y="64"/>
      <point x="290" y="64" type="curve" smooth="yes"/>
      <point x="194" y="64"/>
      <point x="142" y="92"/>
      <point x="142" y="160" type="curve" smooth="yes"/>
      <point x="142" y="232"/>
      <point x="194" y="256"/>
      <point x="302" y="256" type="curve" smooth="yes"/>
      <point x="348" y="256"/>
      <point x="408" y="244"/>
      <point x="444" y="232" type="curve"/>
      <point x="444" y="304" type="line"/>
      <point x="408" y="316"/>
      <point x="360" y="332"/>
      <point x="286" y="332" type="curve" smooth="yes"/>
      <point x="142" y="332"/>
      <point x="52" y="276"/>
      <point x="52" y="160" type="curve" smooth="yes"/>
      <point x="52" y="44"/>
      <point x="130" y="-12"/>
    </contour>
  </outline>
</glyph>
<glyph name="c" format="2">
  <advance width="504"/>
  <unicode hex="0063"/>
  <note>
c
</note>
  <anchor x="252" y="0" name="bottom"/>
  <anchor x="252" y="544" name="top"/>
  <outline>
    <contour>
      <point x="52" y="274" type="curve" smooth="yes"/>
      <point x="52" y="96"/>
      <point x="160" y="-8"/>
      <point x="344" y="-8" type="curve" smooth="yes"/>
      <point x="392" y="-8"/>
      <point x="436" y="0"/>
      <point x="468" y="14" type="curve"/>
      <point x="468" y="96" type="line"/>
      <point x="460" y="96" type="line"/>
      <point x="432" y="82"/>
      <point x="392" y="72"/>
      <point x="344" y="72" type="curve" smooth="yes"/>
      <point x="224" y="72"/>
      <point x="146" y="140"/>
      <point x="146" y="274" type="curve" smooth="yes"/>
      <point x="146" y="408"/>
      <point x="224" y="476"/>
      <point x="344" y="476" type="curve" smooth="yes"/>
      <point x="392" y="476"/>
      <point x="432" y="466"/>
      <point x="460" y="452" type="curve"/>
      <point x="468" y="452" type="line"/>
      <point x="468" y="534" type="line"/>
      <point x="436" y="548"/>
      <point x="392" y="556"/>
      <point x="344" y="556" type="curve" smooth="yes"/>
      <point x="164" y="556"/>
      <point x="52" y="452"/>
    </contour>
  </outline>
</glyph>
<glyph name="h" format="2">
  <advance width="640"/>
  <unicode hex="0068"/>
  <note>
h
</note>
  <anchor x="320" y="0" name="bottom"/>
  <anchor x="172" y="656" name="center"/>
  <anchor x="139" y="760" name="top"/>
  <outline>
    <contour>
      <point x="96" y="0" type="line"/>
      <point x="188" y="0" type="line"/>
      <point x="188" y="485" type="line"/>
      <point x="168" y="439" type="line"/>
      <point x="204" y="455"/>
      <point x="256" y="472"/>
      <point x="308" y="472" type="curve" smooth="yes"/>
      <point x="396" y="472"/>
      <point x="456" y="440"/>
      <point x="456" y="308" type="curve" smooth="yes"/>
      <point x="456" y="0" type="line"/>
      <point x="548" y="0" type="line"/>
      <point x="548" y="320" type="line" smooth="yes"/>
      <point x="548" y="508"/>
      <point x="440" y="556"/>
      <point x="328" y="556" type="curve" smooth="yes"/>
      <point x="261" y="556"/>
      <point x="211" y="538"/>
      <point x="169" y="518" type="curve"/>
      <point x="188" y="489" type="line"/>
      <point x="188" y="760" type="line"/>
      <point x="90" y="760" type="line"/>
      <point x="88" y="752" type="line"/>
      <point x="96" y="716"/>
      <point x="96" y="628"/>
      <point x="96" y="588" type="curve" smooth="yes"/>
    </contour>
  </outline>
</glyph>
<glyph name="k" format="2">
  <advance width="540"/>
  <unicode hex="006B"/>
  <note>
k
</note>
  <anchor x="270" y="0" name="bottom"/>
  <anchor x="270" y="760" name="top"/>
  <outline>
    <contour>
      <point x="188" y="0" type="line"/>
      <point x="188" y="760" type="line"/>
      <point x="90" y="760" type="line"/>
      <point x="88" y="752" type="line"/>
      <point x="96" y="716"/>
      <point x="96" y="628"/>
      <point x="96" y="588" type="curve" smooth="yes"/>
      <point x="96" y="0" type="line"/>
    </contour>
    <contour>
      <point x="176" y="284" type="line"/>
      <point x="424" y="0" type="line"/>
      <point x="532" y="0" type="line"/>
      <point x="532" y="12" type="line"/>
      <point x="514" y="28"/>
      <point x="478" y="71"/>
      <point x="452" y="100" type="curve" smooth="yes"/>
      <point x="259" y="316" type="line"/>
      <point x="258" y="261" type="line"/>
      <point x="452" y="460" type="line" smooth="yes"/>
      <point x="480" y="488"/>
      <point x="508" y="516"/>
      <point x="528" y="532" type="curve"/>
      <point x="528" y="544" type="line"/>
      <point x="424" y="544" type="line"/>
    </contour>
  </outline>
</glyph>
<glyph name="l" format="2">
  <advance width="284"/>
  <unicode hex="006C"/>
  <note>
l
</note>
  <anchor x="142" y="0" name="bottom"/>
  <anchor x="154" y="392" name="center"/>
  <anchor x="332" y="360" name="periodCAT"/>
  <anchor x="142" y="760" name="top"/>
  <anchor x="284" y="544" name="topright"/>
  <outline>
    <contour>
      <point x="96" y="0" type="line"/>
      <point x="188" y="0" type="line"/>
      <point x="188" y="760" type="line"/>
      <point x="90" y="760" type="line"/>
      <point x="88" y="752" type="line"/>
      <point x="96" y="716"/>
      <point x="96" y="628"/>
      <point x="96" y="588" type="curve" smooth="yes"/>
    </contour>
  </outline>
</glyph>
<glyph name="m" format="2">
  <advance width="956"/>
  <unicode hex="006D"/>
  <note>
m
</note>
  <anchor x="478" y="0" name="bottom"/>
  <anchor x="478" y="544" name="top"/>
  <outline>
    <contour>
      <point x="96" y="0" type="line"/>
      <point x="188" y="0" type="line"/>
      <point x="188" y="396" type="line" smooth="yes"/>
      <point x="188" y="428"/>
      <point x="185" y="460"/>
      <point x="180" y="480" type="curve"/>
      <point x="164" y="452" type="line"/>
      <point x="200" y="465"/>
      <point x="253" y="476"/>
      <point x="296" y="476" type="curve" smooth="yes"/>
      <point x="380" y="476"/>
      <point x="440" y="444"/>
      <point x="440" y="312" type="curve" smooth="yes"/>
      <point x="440" y="0" type="line"/>
      <point x="532" y="0" type="line"/>
      <point x="532" y="320" type="line" smooth="yes"/>
      <point x="532" y="508"/>
      <point x="424" y="556"/>
      <point x="308" y="556" type="curve" smooth="yes"/>
      <point x="244" y="556"/>
      <point x="142" y="536"/>
      <point x="90" y="516" type="curve"/>
      <point x="88" y="508" type="line"/>
      <point x="96" y="472"/>
      <point x="96" y="384"/>
      <point x="96" y="344" type="curve" smooth="yes"/>
    </contour>
    <contour>
      <point x="772" y="0" type="line"/>
      <point x="864" y="0" type="line"/>
      <point x="864" y="320" type="line" smooth="yes"/>
      <point x="864" y="508"/>
      <point x="764" y="556"/>
      <point x="632" y="556" type="curve" smooth="yes"/>
      <point x="575" y="556"/>
      <point x="506" y="539"/>
      <point x="440" y="512" type="curve"/>
      <point x="496" y="448" type="line"/>
      <point x="541" y="466"/>
      <point x="581" y="476"/>
      <point x="620" y="476" type="curve" smooth="yes"/>
      <point x="720" y="476"/>
      <point x="772" y="444"/>
      <point x="772" y="312" type="curve" smooth="yes"/>
    </contour>
  </outline>
</glyph>
<glyph name="n" format="2">
  <advance width="640"/>
  <unicode hex="006E"/>
  <note>
n
</note>
  <anchor x="320" y="0" name="bottom"/>
  <anchor x="320" y="544" name="top"/>
  <outline>
    <contour>
      <point x="96" y="0" type="line"/>
      <point x="188" y="0" type="line"/>
      <point x="188" y="396" type="line" smooth="yes"/>
      <point x="188" y="428"/>
      <point x="185" y="460"/>
      <point x="180" y="480" type="curve"/>
      <point x="164" y="452" type="line"/>
      <point x="200" y="465"/>
      <point x="253" y="476"/>
      <point x="296" y="476" type="curve" smooth="yes"/>
      <point x="396" y="476"/>
      <point x="456" y="444"/>
      <point x="456" y="312" type="curve" smooth="yes"/>
      <point x="456" y="0" type="line"/>
      <point x="548" y="0" type="line"/>
      <point x="548" y="320" type="line" smooth="yes"/>
      <point x="548" y="508"/>
      <point x="440" y="556"/>
      <point x="308" y="556" type="curve" smooth="yes"/>
      <point x="248" y="556"/>
      <point x="142" y="536"/>
      <point x="90" y="516" type="curve"/>
      <point x="88" y="508" type="line"/>
      <point x="96" y="472"/>
      <point x="96" y="384"/>
      <point x="96" y="344" type="curve" smooth="yes"/>
    </contour>
  </outline>
</glyph>
<glyph name="o" format="2">
  <advance width="604"/>
  <unicode hex="006F"/>
  <note>
o
</note>
  <anchor x="302" y="0" name="bottom"/>
  <anchor x="302" y="272" name="center"/>
  <anchor x="369" y="0" name="ogonek"/>
  <anchor x="302" y="544" name="top"/>
  <anchor x="384" y="544" name="topright"/>
  <outline>
    <contour>
      <point x="52" y="274" type="curve" smooth="yes"/>
      <point x="52" y="96"/>
      <point x="150" y="-8"/>
      <point x="302" y="-8" type="curve" smooth="yes"/>
      <point x="450" y="-8"/>
      <point x="552" y="96"/>
      <point x="552" y="274" type="curve" smooth="yes"/>
      <point x="552" y="452"/>
      <point x="450" y="556"/>
      <point x="302" y="556" type="curve" smooth="yes"/>
      <point x="154" y="556"/>
      <point x="52" y="452"/>
    </contour>
    <contour>
      <point x="146" y="274" type="curve" smooth="yes"/>
      <point x="146" y="408"/>
      <point x="202" y="476"/>
      <point x="302" y="476" type="curve" smooth="yes"/>
      <point x="402" y="476"/>
      <point x="458" y="408"/>
      <point x="458" y="274" type="curve" smooth="yes"/>
      <point x="458" y="140"/>
      <point x="402" y="72"/>
      <point x="302" y="72" type="curve" smooth="yes"/>
      <point x="202" y="72"/>
      <point x="146" y="140"/>
    </contour>
  </outline>
</glyph>
<glyph name="q" format="2">
  <advance width="618"/>
  <unicode hex="0071"/>
  <note>
q
</note>
  <anchor x="309" y="0" name="bottom"/>
  <anchor x="309" y="544" name="top"/>
  <outline>
    <contour>
      <point x="430" y="-232" type="line"/>
      <point x="522" y="-232" type="line"/>
      <point x="522" y="348" type="line" smooth="yes"/>
      <point x="522" y="388"/>
      <point x="522" y="476"/>
      <point x="530" y="512" type="curve"/>
      <point x="528" y="520" type="line"/>
      <point x="476" y="540"/>
      <point x="404" y="556"/>
      <point x="340" y="556" type="curve" smooth="yes"/>
      <point x="168" y="556"/>
      <point x="52" y="452"/>
      <point x="52" y="274" type="curve" smooth="yes"/>
      <point x="52" y="96"/>
      <point x="152" y="-12"/>
      <point x="332" y="-12" type="curve" smooth="yes"/>
      <point x="376" y="-12"/>
      <point x="423" y="-4"/>
      <point x="448" y="6" type="curve"/>
      <point x="444" y="87" type="line"/>
      <point x="427" y="78"/>
      <point x="388" y="68"/>
      <point x="340" y="68" type="curve" smooth="yes"/>
      <point x="214" y="68"/>
      <point x="146" y="132"/>
      <point x="146" y="274" type="curve" smooth="yes"/>
      <point x="146" y="404"/>
      <point x="216" y="476"/>
      <point x="344" y="476" type="curve" smooth="yes"/>
      <point x="387" y="476"/>
      <point x="424" y="466"/>
      <point x="453" y="457" type="curve"/>
      <point x="436" y="485" type="line"/>
      <point x="432" y="460"/>
      <point x="430" y="432"/>
      <point x="430" y="400" type="curve" smooth="yes"/>
    </contour>
  </outline>
</glyph>
<glyph name="s" format="2">
  <advance width="500"/>
  <unicode hex="0073"/>
  <note>
s
</note>
  <anchor x="250" y="0" name="bottom"/>
  <anchor x="250" y="544" name="top"/>
  <outline>
    <contour>
      <point x="52" y="108" type="line"/>
      <point x="52" y="20" type="line"/>
      <point x="100" y="4"/>
      <point x="160" y="-8"/>
      <point x="228" y="-8" type="curve" smooth="yes"/>
      <point x="388" y="-8"/>
      <point x="464" y="48"/>
      <point x="464" y="156" type="curve" smooth="yes"/>
      <point x="464" y="248"/>
      <point x="388" y="291"/>
      <point x="296" y="306" type="curve" smooth="yes"/>
      <point x="248" y="314" type="line" smooth="yes"/>
      <point x="180" y="325"/>
      <point x="140" y="340"/>
      <point x="140" y="387" type="curve" smooth="yes"/>
      <point x="140" y="448"/>
      <point x="196" y="472"/>
      <point x="288" y="472" type="curve" smooth="yes"/>
      <point x="340" y="472"/>
      <point x="376" y="464"/>
      <point x="420" y="448" type="curve"/>
      <point x="428" y="448" type="line"/>
      <point x="428" y="530" type="line"/>
      <point x="396" y="542"/>
      <point x="344" y="552"/>
      <point x="292" y="552" type="curve" smooth="yes"/>
      <point x="116" y="552"/>
      <point x="52" y="472"/>
      <point x="52" y="384" type="curve" smooth="yes"/>
      <point x="52" y="300"/>
      <point x="106" y="257"/>
      <point x="219" y="238" type="curve" smooth="yes"/>
      <point x="267" y="230" type="line" smooth="yes"/>
      <point x="335" y="219"/>
      <point x="376" y="204"/>
      <point x="376" y="156" type="curve" smooth="yes"/>
      <point x="376" y="71"/>
      <point x="268" y="72"/>
      <point x="232" y="72" type="curve" smooth="yes"/>
      <point x="172" y="72"/>
      <point x="108" y="86"/>
      <point x="60" y="108" type="curve"/>
    </contour>
  </outline>
</glyph>
<glyph name="t" format="2">
  <advance width="404"/>
  <unicode hex="0074"/>
  <note>
t
</note>
  <anchor x="202" y="0" name="bottom"/>
  <anchor x="202" y="272" name="center"/>
  <anchor x="150" y="692" name="top"/>
  <anchor x="301" y="567" name="topright"/>
  <outline>
    <contour>
      <point x="296" y="-8" type="curve" smooth="yes"/>
      <point x="332" y="-8"/>
      <point x="364" y="0"/>
      <point x="384" y="10" type="curve"/>
      <point x="384" y="88" type="line"/>
      <point x="376" y="88" type="line"/>
      <point x="356" y="78"/>
      <point x="328" y="72"/>
      <point x="300" y="72" type="curve" smooth="yes"/>
      <point x="228" y="72"/>
      <point x="196" y="104"/>
      <point x="196" y="180" type="curve" smooth="yes"/>
      <point x="196" y="692" type="line"/>
      <point x="104" y="692" type="line"/>
      <point x="104" y="172" type="line" smooth="yes"/>
      <point x="104" y="64"/>
      <point x="156" y="-8"/>
    </contour>
    <contour>
      <point x="20" y="464" type="line"/>
      <point x="352" y="464" type="line"/>
      <point x="352" y="544" type="line"/>
      <point x="20" y="544" type="line"/>
    </contour>
  </outline>
</glyph>
<glyph name="u" format="2">
  <advance width="632"/>
  <unicode hex="0075"/>
  <note>
u
</note>
  <anchor x="316" y="0" name="bottom"/>
  <anchor x="542" y="24" name="ogonek"/>
  <anchor x="316" y="544" name="top"/>
  <anchor x="469" y="544" name="topright"/>
  <outline>
    <contour>
      <point x="332" y="-12" type="curve" smooth="yes"/>
      <point x="384" y="-12"/>
      <point x="490" y="4"/>
      <point x="542" y="24" type="curve"/>
      <point x="544" y="32" type="line"/>
      <point x="536" y="68"/>
      <point x="536" y="156"/>
      <point x="536" y="196" type="curve" smooth="yes"/>
      <point x="536" y="544" type="line"/>
      <point x="438" y="544" type="line"/>
      <point x="436" y="536" type="line"/>
      <point x="444" y="500"/>
      <point x="444" y="412"/>
      <point x="444" y="372" type="curve" smooth="yes"/>
      <point x="444" y="140" type="line" smooth="yes"/>
      <point x="444" y="110"/>
      <point x="444" y="80"/>
      <point x="450" y="62" type="curve"/>
      <point x="467" y="86" type="line"/>
      <point x="434" y="77"/>
      <point x="385" y="68"/>
      <point x="343" y="68" type="curve" smooth="yes"/>
      <point x="236" y="68"/>
      <point x="176" y="100"/>
      <point x="176" y="232" type="curve" smooth="yes"/>
      <point x="176" y="544" type="line"/>
      <point x="78" y="544" type="line"/>
      <point x="76" y="536" type="line"/>
      <point x="84" y="500"/>
      <point x="84" y="412"/>
      <point x="84" y="372" type="curve" smooth="yes"/>
      <point x="84" y="224" type="line" smooth="yes"/>
      <point x="84" y="36"/>
      <point x="192" y="-12"/>
    </contour>
  </outline>
</glyph>
<glyph name="w" format="2">
  <advance width="772"/>
  <unicode hex="0077"/>
  <note>
w
</note>
  <anchor x="386" y="0" name="bottom"/>
  <anchor x="386" y="544" name="top"/>
  <outline>
    <contour>
      <point x="156" y="0" type="line"/>
      <point x="264" y="0" type="line"/>
      <point x="395" y="414" type="line"/>
      <point x="373" y="414" type="line"/>
      <point x="500" y="0" type="line"/>
      <point x="608" y="0" type="line"/>
      <point x="760" y="532" type="line"/>
      <point x="760" y="544" type="line"/>
      <point x="668" y="544" type="line"/>
      <point x="542" y="54" type="line"/>
      <point x="562" y="55" type="line"/>
      <point x="416" y="544" type="line"/>
      <point x="356" y="544" type="line"/>
      <point x="205" y="57" type="line"/>
      <point x="225" y="56" type="line"/>
      <point x="104" y="544" type="line"/>
      <point x="12" y="544" type="line"/>
      <point x="12" y="532" type="line"/>
    </contour>
  </outline>
</glyph>
<glyph name="x" format="2">
  <advance width="532"/>
  <unicode hex="0078"/>
  <note>
x
</note>
  <anchor x="266" y="0" name="bottom"/>
  <anchor x="266" y="544" name="top"/>
  <outline>
    <contour>
      <point x="408" y="0" type="line"/>
      <point x="508" y="0" type="line"/>
      <point x="508" y="8" type="line"/>
      <point x="288" y="312" type="line"/>
      <point x="120" y="544" type="line"/>
      <point x="20" y="544" type="line"/>
      <point x="20" y="536" type="line"/>
      <point x="240" y="232" type="line"/>
    </contour>
    <contour>
      <point x="28" y="0" type="line"/>
      <point x="124" y="0" type="line"/>
      <point x="292" y="240" type="line"/>
      <point x="512" y="536" type="line"/>
      <point x="512" y="544" type="line"/>
      <point x="416" y="544" type="line"/>
      <point x="248" y="304" type="line"/>
      <point x="28" y="8" type="line"/>
    </contour>
  </outline>
</glyph>
<glyph name="y" format="2">
  <advance width="536"/>
  <unicode hex="0079"/>
  <note>
y
</note>
  <anchor x="437" y="0" name="bottom"/>
  <anchor x="268" y="544" name="top"/>
  <outline>
    <contour>
      <point x="132" y="-232" type="line"/>
      <point x="220" y="-232" type="line"/>
      <point x="524" y="532" type="line"/>
      <point x="524" y="544" type="line"/>
      <point x="432" y="544" type="line"/>
      <point x="256" y="84" type="line"/>
      <point x="132" y="-220" type="line"/>
    </contour>
    <contour>
      <point x="232" y="-20" type="line"/>
      <point x="285" y="82" type="line"/>
      <point x="108" y="544" type="line"/>
      <point x="12" y="544" type="line"/>
      <point x="12" y="532" type="line"/>
    </contour>
  </outline>
</glyph>
<glyph name="braceleft" format="2">
  <advance width="372"/>
  <unicode hex="007B"/>
  <note>
braceleft
</note>
  <outline>
    <contour>
      <point x="128" y="220" type="curve" smooth="yes"/>
      <point x="128" y="60" type="line" smooth="yes"/>
      <point x="128" y="-32"/>
      <point x="176" y="-88"/>
      <point x="276" y="-88" type="curve" smooth="yes"/>
      <point x="348" y="-88" type="line"/>
      <point x="348" y="-12" type="line"/>
      <point x="272" y="-12" type="line" smooth="yes"/>
      <point x="232" y="-12"/>
      <point x="212" y="8"/>
      <point x="212" y="52" type="curve" smooth="yes"/>
      <point x="212" y="216" type="line" smooth="yes"/>
      <point x="212" y="288"/>
      <point x="172" y="325"/>
      <point x="120" y="335" type="curve"/>
      <point x="120" y="337" type="line"/>
      <point x="172" y="347"/>
      <point x="212" y="384"/>
      <point x="212" y="456" type="curve" smooth="yes"/>
      <point x="212" y="620" type="line" smooth="yes"/>
      <point x="212" y="664"/>
      <point x="232" y="684"/>
      <point x="272" y="684" type="curve" smooth="yes"/>
      <point x="348" y="684" type="line"/>
      <point x="348" y="760" type="line"/>
      <point x="276" y="760" type="line" smooth="yes"/>
      <point x="176" y="760"/>
      <point x="128" y="704"/>
      <point x="128" y="612" type="curve" smooth="yes"/>
      <point x="128" y="452" type="line" smooth="yes"/>
      <point x="128" y="412"/>
      <point x="108" y="380"/>
      <point x="60" y="380" type="curve" smooth="yes"/>
      <point x="12" y="380" type="line"/>
      <point x="12" y="292" type="line"/>
      <point x="60" y="292" type="line" smooth="yes"/>
      <point x="108" y="292"/>
      <point x="128" y="260"/>
    </contour>
  </outline>
</glyph>
<glyph name="bar" format="2">
  <advance width="308"/>
  <unicode hex="007C"/>
  <note>
bar
</note>
  <outline>
    <contour>
      <point x="112" y="760" type="line"/>
      <point x="112" y="-240" type="line"/>
      <point x="196" y="-240" type="line"/>
      <point x="196" y="760" type="line"/>
    </contour>
  </outline>
</glyph>
<glyph name="cent" format="2">
  <advance width="616"/>
  <unicode hex="00A2"/>
  <note>
cent
</note>
  <outline>
    <contour>
      <point x="376" y="92" type="curve" smooth="yes"/>
      <point x="420" y="92"/>
      <point x="476" y="104"/>
      <point x="496" y="112" type="curve"/>
      <point x="496" y="196" type="line"/>
      <point x="488" y="196" type="line"/>
      <point x="464" y="184"/>
      <point x="424" y="176"/>
      <point x="376" y="176" type="curve" smooth="yes"/>
      <point x="256" y="176"/>
      <point x="170" y="240"/>
      <point x="170" y="374" type="curve" smooth="yes"/>
      <point x="170" y="508"/>
      <point x="256" y="572"/>
      <point x="376" y="572" type="curve" smooth="yes"/>
      <point x="424" y="572"/>
      <point x="464" y="564"/>
      <point x="488" y="552" type="curve"/>
      <point x="496" y="552" type="line"/>
      <point x="496" y="636" type="line"/>
      <point x="476" y="644"/>
      <point x="424" y="656"/>
      <point x="376" y="656" type="curve" smooth="yes"/>
      <point x="196" y="656"/>
      <point x="76" y="552"/>
      <point x="76" y="374" type="curve" smooth="yes"/>
      <point x="76" y="196"/>
      <point x="192" y="92"/>
    </contour>
    <contour>
      <point x="296" y="-64" type="line"/>
      <point x="380" y="-64" type="line"/>
      <point x="380" y="132" type="line"/>
      <point x="296" y="132" type="line"/>
    </contour>
    <contour>
      <point x="296" y="604" type="line"/>
      <point x="380" y="604" type="line"/>
      <point x="380" y="800" type="line"/>
      <point x="296" y="800" type="line"/>
    </contour>
  </outline>
</glyph>
<glyph name="brokenbar" format="2">
  <advance width="308"/>
  <unicode hex="00A6"/>
  <note>
brokenbar
</note>
  <outline>
    <contour>
      <point x="112" y="760" type="line"/>
      <point x="112" y="424" type="line"/>
      <point x="196" y="424" type="line"/>
      <point x="196" y="760" type="line"/>
    </contour>
    <contour>
      <point x="196" y="88" type="line"/>
      <point x="112" y="88" type="line"/>
      <point x="112" y="-248" type="line"/>
      <point x="196" y="-248" type="line"/>
    </contour>
  </outline>
</glyph>
<glyph name="section" format="2">
  <advance width="600"/>
  <unicode hex="00A7"/>
  <note>
section
</note>
  <outline>
    <contour>
      <point x="328" y="68" type="line"/>
      <point x="396" y="68" type="line"/>
      <point x="464" y="96"/>
      <point x="520" y="156"/>
      <point x="520" y="240" type="curve" smooth="yes"/>
      <point x="520" y="336"/>
      <point x="459" y="386"/>
      <point x="360" y="412" type="curve" smooth="yes"/>
      <point x="300" y="428" type="line" smooth="yes"/>
      <point x="225" y="448"/>
      <point x="188" y="464"/>
      <point x="188" y="532" type="curve" smooth="yes"/>
      <point x="188" y="612"/>
      <point x="256" y="644"/>
      <point x="356" y="644" type="curve" smooth="yes"/>
      <point x="416" y="644"/>
      <point x="452" y="632"/>
      <point x="488" y="616" type="curve"/>
      <point x="496" y="616" type="line"/>
      <point x="496" y="708" type="line"/>
      <point x="460" y="724"/>
      <point x="412" y="732"/>
      <point x="368" y="732" type="curve" smooth="yes"/>
      <point x="196" y="732"/>
      <point x="96" y="664"/>
      <point x="96" y="524" type="curve" smooth="yes"/>
      <point x="96" y="416"/>
      <point x="168" y="371"/>
      <point x="268" y="344" type="curve" smooth="yes"/>
      <point x="328" y="328" type="line" smooth="yes"/>
      <point x="400" y="309"/>
      <point x="426" y="284"/>
      <point x="426" y="228" type="curve" smooth="yes"/>
      <point x="426" y="176"/>
      <point x="384" y="136"/>
      <point x="328" y="124" type="curve"/>
    </contour>
    <contour>
      <point x="208" y="-232" type="curve" smooth="yes"/>
      <point x="380" y="-232"/>
      <point x="480" y="-164"/>
      <point x="480" y="-24" type="curve" smooth="yes"/>
      <point x="480" y="84"/>
      <point x="408" y="129"/>
      <point x="308" y="156" type="curve" smooth="yes"/>
      <point x="248" y="172" type="line" smooth="yes"/>
      <point x="176" y="191"/>
      <point x="150" y="216"/>
      <point x="150" y="272" type="curve" smooth="yes"/>
      <point x="150" y="324"/>
      <point x="192" y="364"/>
      <point x="248" y="376" type="curve"/>
      <point x="248" y="432" type="line"/>
      <point x="180" y="432" type="line"/>
      <point x="112" y="404"/>
      <point x="56" y="344"/>
      <point x="56" y="260" type="curve" smooth="yes"/>
      <point x="56" y="164"/>
      <point x="117" y="114"/>
      <point x="216" y="88" type="curve" smooth="yes"/>
      <point x="276" y="72" type="line" smooth="yes"/>
      <point x="351" y="52"/>
      <point x="388" y="36"/>
      <point x="388" y="-32" type="curve" smooth="yes"/>
      <point x="388" y="-112"/>
      <point x="320" y="-144"/>
      <point x="220" y="-144" type="curve" smooth="yes"/>
      <point x="160" y="-144"/>
      <point x="124" y="-132"/>
      <point x="88" y="-116" type="curve"/>
      <point x="80" y="-116" type="line"/>
      <point x="80" y="-208" type="line"/>
      <point x="116" y="-224"/>
      <point x="164" y="-232"/>
    </contour>
  </outline>
</glyph>
<glyph name="guillemetleft" format="2">
  <advance width="564"/>
  <unicode hex="00AB"/>
  <note>
guillemotleft
</note>
  <outline>
    <contour>
      <point x="496" y="72" type="line"/>
      <point x="504" y="72" type="line"/>
      <point x="504" y="168" type="line"/>
      <point x="348" y="308" type="line"/>
      <point x="504" y="448" type="line"/>
      <point x="504" y="544" type="line"/>
      <point x="496" y="544" type="line"/>
      <point x="256" y="324" type="line"/>
      <point x="256" y="292" type="line"/>
    </contour>
    <contour>
      <point x="276" y="72" type="line"/>
      <point x="284" y="72" type="line"/>
      <point x="284" y="168" type="line"/>
      <point x="128" y="308" type="line"/>
      <point x="284" y="448" type="line"/>
      <point x="284" y="544" type="line"/>
      <point x="276" y="544" type="line"/>
      <point x="36" y="324" type="line"/>
      <point x="36" y="292" type="line"/>
    </contour>
  </outline>
</glyph>
<glyph name="registered" format="2">
  <advance width="792"/>
  <unicode hex="00AE"/>
  <note>
registered
</note>
  <outline>
    <contour>
      <point x="396" y="-12" type="curve" smooth="yes"/>
      <point x="604" y="-12"/>
      <point x="744" y="128"/>
      <point x="744" y="360" type="curve" smooth="yes"/>
      <point x="744" y="592"/>
      <point x="604" y="732"/>
      <point x="396" y="732" type="curve" smooth="yes"/>
      <point x="188" y="732"/>
      <point x="48" y="592"/>
      <point x="48" y="360" type="curve" smooth="yes"/>
      <point x="48" y="128"/>
      <point x="188" y="-12"/>
    </contour>
    <contour>
      <point x="256" y="168" type="line"/>
      <point x="318" y="168" type="line"/>
      <point x="318" y="562" type="line"/>
      <point x="256" y="562" type="line"/>
      <point x="256" y="472" type="line"/>
    </contour>
    <contour>
      <point x="516" y="168" type="line"/>
      <point x="584" y="168" type="line"/>
      <point x="584" y="176" type="line"/>
      <point x="450" y="332" type="line"/>
      <point x="392" y="312" type="line"/>
    </contour>
    <contour>
      <point x="396" y="52" type="curve" smooth="yes"/>
      <point x="232" y="52"/>
      <point x="120" y="152"/>
      <point x="120" y="360" type="curve" smooth="yes"/>
      <point x="120" y="568"/>
      <point x="232" y="668"/>
      <point x="396" y="668" type="curve" smooth="yes"/>
      <point x="560" y="668"/>
      <point x="672" y="564"/>
      <point x="672" y="360" type="curve" smooth="yes"/>
      <point x="672" y="156"/>
      <point x="560" y="52"/>
    </contour>
    <contour>
      <point x="286" y="280" type="line"/>
      <point x="394" y="280" type="line" smooth="yes"/>
      <point x="508" y="280"/>
      <point x="556" y="360"/>
      <point x="556" y="436" type="curve" smooth="yes"/>
      <point x="556" y="519"/>
      <point x="508" y="562"/>
      <point x="416" y="562" type="curve" smooth="yes"/>
      <point x="286" y="562" type="line"/>
      <point x="286" y="508" type="line"/>
      <point x="414" y="508" type="line" smooth="yes"/>
      <point x="464" y="508"/>
      <point x="494" y="489"/>
      <point x="494" y="436" type="curve" smooth="yes"/>
      <point x="494" y="380"/>
      <point x="461" y="332"/>
      <point x="394" y="332" type="curve" smooth="yes"/>
      <point x="286" y="332" type="line"/>
    </contour>
  </outline>
</glyph>
<glyph name="periodcentered" format="2">
  <advance width="280"/>
  <unicode hex="00B7"/>
  <note>
periodcentered
</note>
  <outline>
    <contour>
      <point x="140" y="301" type="curve" smooth="yes"/>
      <point x="176" y="301"/>
      <point x="204" y="325"/>
      <point x="204" y="365" type="curve" smooth="yes"/>
      <point x="204" y="405"/>
      <point x="176" y="429"/>
      <point x="140" y="429" type="curve" smooth="yes"/>
      <point x="104" y="429"/>
      <point x="76" y="405"/>
      <point x="76" y="365" type="curve" smooth="yes"/>
      <point x="76" y="325"/>
      <point x="104" y="301"/>
    </contour>
  </outline>
</glyph>
<glyph name="guillemetright" format="2">
  <advance width="564"/>
  <unicode hex="00BB"/>
  <note>
guillemotright
</note>
  <outline>
    <contour>
      <point x="280" y="72" type="line"/>
      <point x="288" y="72" type="line"/>
      <point x="528" y="292" type="line"/>
      <point x="528" y="324" type="line"/>
      <point x="288" y="544" type="line"/>
      <point x="280" y="544" type="line"/>
      <point x="280" y="448" type="line"/>
      <point x="436" y="308" type="line"/>
      <point x="280" y="168" type="line"/>
    </contour>
    <contour>
      <point x="60" y="72" type="line"/>
      <point x="68" y="72" type="line"/>
      <point x="308" y="292" type="line"/>
      <point x="308" y="324" type="line"/>
      <point x="68" y="544" type="line"/>
      <point x="60" y="544" type="line"/>
      <point x="60" y="448" type="line"/>
      <point x="216" y="308" type="line"/>
      <point x="60" y="168" type="line"/>
    </contour>
  </outline>
</glyph>
<glyph name="Thorn" format="2">
  <advance width="600"/>
  <unicode hex="00DE"/>
  <note>
Thorn
</note>
  <outline>
    <contour>
      <point x="132" y="124" type="line"/>
      <point x="276" y="124" type="line" smooth="yes"/>
      <point x="468" y="124"/>
      <point x="548" y="264"/>
      <point x="548" y="396" type="curve" smooth="yes"/>
      <point x="548" y="536"/>
      <point x="456" y="604"/>
      <point x="320" y="604" type="curve" smooth="yes"/>
      <point x="132" y="604" type="line"/>
      <point x="132" y="520" type="line"/>
      <point x="316" y="520" type="line" smooth="yes"/>
      <point x="396" y="520"/>
      <point x="448" y="488"/>
      <point x="448" y="396" type="curve" smooth="yes"/>
      <point x="448" y="292"/>
      <point x="396" y="208"/>
      <point x="276" y="208" type="curve" smooth="yes"/>
      <point x="132" y="208" type="line"/>
    </contour>
    <contour>
      <point x="88" y="0" type="line"/>
      <point x="184" y="0" type="line"/>
      <point x="184" y="720" type="line"/>
      <point x="88" y="720" type="line"/>
    </contour>
  </outline>
</glyph>
<glyph name="germandbls" format="2">
  <advance width="584"/>
  <unicode hex="00DF"/>
  <note>
germandbls
</note>
  <outline>
    <contour>
      <point x="376" y="-8" type="curve" smooth="yes"/>
      <point x="480" y="-8"/>
      <point x="552" y="52"/>
      <point x="552" y="148" type="curve" smooth="yes"/>
      <point x="552" y="225"/>
      <point x="509" y="265"/>
      <point x="468" y="296" type="curve" smooth="yes"/>
      <point x="452" y="308" type="line" smooth="yes"/>
      <point x="422" y="330"/>
      <point x="400" y="353"/>
      <point x="400" y="388" type="curve" smooth="yes"/>
      <point x="400" y="472"/>
      <point x="480" y="480"/>
      <point x="480" y="596" type="curve" smooth="yes"/>
      <point x="480" y="684"/>
      <point x="424" y="760"/>
      <point x="304" y="760" type="curve" smooth="yes"/>
      <point x="165" y="760"/>
      <point x="100" y="687"/>
      <point x="100" y="544" type="curve"/>
      <point x="100" y="0" type="line"/>
      <point x="192" y="0" type="line"/>
      <point x="192" y="564" type="line" smooth="yes"/>
      <point x="192" y="640"/>
      <point x="228" y="680"/>
      <point x="300" y="680" type="curve" smooth="yes"/>
      <point x="364" y="680"/>
      <point x="392" y="644"/>
      <point x="392" y="592" type="curve" smooth="yes"/>
      <point x="392" y="504"/>
      <point x="312" y="484"/>
      <point x="312" y="384" type="curve" smooth="yes"/>
      <point x="312" y="316"/>
      <point x="350" y="284"/>
      <point x="388" y="256" type="curve" smooth="yes"/>
      <point x="404" y="244" type="line" smooth="yes"/>
      <point x="436" y="220"/>
      <point x="464" y="194"/>
      <point x="464" y="148" type="curve" smooth="yes"/>
      <point x="464" y="92"/>
      <point x="428" y="68"/>
      <point x="372" y="68" type="curve" smooth="yes"/>
      <point x="332" y="68"/>
      <point x="304" y="76"/>
      <point x="284" y="84" type="curve"/>
      <point x="276" y="84" type="line"/>
      <point x="276" y="4" type="line"/>
      <point x="310" y="-5"/>
      <point x="328" y="-8"/>
    </contour>
    <contour>
      <point x="16" y="466" type="line"/>
      <point x="120" y="466" type="line"/>
      <point x="120" y="544" type="line"/>
      <point x="16" y="544" type="line"/>
    </contour>
  </outline>
</glyph>
<glyph name="thorn" format="2">
  <advance width="618"/>
  <unicode hex="00FE"/>
  <note>
thorn
</note>
  <outline>
    <contour>
      <point x="280" y="-12" type="curve" smooth="yes"/>
      <point x="456" y="-12"/>
      <point x="566" y="96"/>
      <point x="566" y="274" type="curve" smooth="yes"/>
      <point x="566" y="452"/>
      <point x="460" y="556"/>
      <point x="292" y="556" type="curve" smooth="yes"/>
      <point x="244" y="556"/>
      <point x="204" y="547"/>
      <point x="173" y="534" type="curve"/>
      <point x="128" y="444" type="line"/>
      <point x="136" y="444" type="line"/>
      <point x="168" y="460"/>
      <point x="224" y="476"/>
      <point x="284" y="476" type="curve" smooth="yes"/>
      <point x="404" y="476"/>
      <point x="472" y="408"/>
      <point x="472" y="274" type="curve" smooth="yes"/>
      <point x="472" y="140"/>
      <point x="408" y="68"/>
      <point x="280" y="68" type="curve" smooth="yes"/>
      <point x="224" y="68"/>
      <point x="192" y="78"/>
      <point x="176" y="86" type="curve"/>
      <point x="120" y="86" type="line"/>
      <point x="120" y="6" type="line"/>
      <point x="172" y="6" type="line"/>
      <point x="196" y="-2"/>
      <point x="240" y="-12"/>
    </contour>
    <contour>
      <point x="96" y="-250" type="line"/>
      <point x="188" y="-250" type="line"/>
      <point x="188" y="760" type="line"/>
      <point x="90" y="760" type="line"/>
      <point x="88" y="752" type="line"/>
      <point x="96" y="716"/>
      <point x="96" y="628"/>
      <point x="96" y="588" type="curve" smooth="yes"/>
    </contour>
  </outline>
</glyph>
<glyph name="idotless" format="2">
  <advance width="284"/>
  <unicode hex="0131"/>
  <note>
dotlessi
</note>
  <anchor x="142" y="0" name="bottom"/>
  <anchor x="188" y="0" name="ogonek"/>
  <anchor x="142" y="544" name="top"/>
  <outline>
    <contour>
      <point x="96" y="0" type="line"/>
      <point x="188" y="0" type="line"/>
      <point x="188" y="544" type="line"/>
      <point x="90" y="544" type="line"/>
      <point x="88" y="536" type="line"/>
      <point x="96" y="500"/>
      <point x="96" y="412"/>
      <point x="96" y="372" type="curve" smooth="yes"/>
    </contour>
  </outline>
</glyph>
<glyph name="IJ" format="2">
  <advance width="700"/>
  <unicode hex="0132"/>
  <note>
IJ
</note>
  <outline>
    <contour>
      <point x="96" y="720" type="line"/>
      <point x="96" y="0" type="line"/>
      <point x="192" y="0" type="line"/>
      <point x="192" y="720" type="line"/>
    </contour>
    <contour>
      <point x="300" y="84" type="line"/>
      <point x="300" y="0" type="line"/>
      <point x="324" y="-6"/>
      <point x="364" y="-12"/>
      <point x="400" y="-12" type="curve" smooth="yes"/>
      <point x="544" y="-12"/>
      <point x="620" y="72"/>
      <point x="620" y="204" type="curve" smooth="yes"/>
      <point x="620" y="720" type="line"/>
      <point x="524" y="720" type="line"/>
      <point x="524" y="192" type="line" smooth="yes"/>
      <point x="524" y="116"/>
      <point x="480" y="72"/>
      <point x="400" y="72" type="curve" smooth="yes"/>
      <point x="372" y="72"/>
      <point x="324" y="78"/>
      <point x="308" y="84" type="curve"/>
    </contour>
  </outline>
</glyph>
<glyph name="kgreenlandic" format="2">
  <advance width="520"/>
  <unicode hex="0138"/>
  <outline>
    <contour>
      <point x="404" y="0" type="line"/>
      <point x="512" y="0" type="line"/>
      <point x="512" y="12" type="line"/>
      <point x="494" y="28"/>
      <point x="457" y="70"/>
      <point x="432" y="100" type="curve" smooth="yes"/>
      <point x="259" y="304" type="line"/>
      <point x="258" y="257" type="line"/>
      <point x="430" y="452" type="line" smooth="yes"/>
      <point x="456" y="482"/>
      <point x="488" y="516"/>
      <point x="508" y="532" type="curve"/>
      <point x="508" y="544" type="line"/>
      <point x="404" y="544" type="line"/>
      <point x="176" y="272" type="line"/>
    </contour>
    <contour>
      <point x="96" y="0" type="line"/>
      <point x="188" y="0" type="line"/>
      <point x="188" y="544" type="line"/>
      <point x="90" y="544" type="line"/>
      <point x="88" y="536" type="line"/>
      <point x="96" y="500"/>
      <point x="96" y="412"/>
      <point x="96" y="372" type="curve" smooth="yes"/>
    </contour>
  </outline>
</glyph>
<glyph name="eng" format="2">
  <advance width="640"/>
  <unicode hex="014B"/>
  <note>
eng
</note>
  <anchor x="320" y="0" name="bottom"/>
  <anchor x="320" y="544" name="top"/>
  <outline>
    <contour>
      <point x="356" y="-240" type="curve" smooth="yes"/>
      <point x="492" y="-240"/>
      <point x="548" y="-148"/>
      <point x="548" y="-48" type="curve" smooth="yes"/>
      <point x="548" y="172" type="line"/>
      <point x="456" y="172" type="line"/>
      <point x="456" y="-52" type="line" smooth="yes"/>
      <point x="456" y="-124"/>
      <point x="416" y="-160"/>
      <point x="352" y="-160" type="curve" smooth="yes"/>
      <point x="324" y="-160"/>
      <point x="304" y="-154"/>
      <point x="288" y="-148" type="curve"/>
      <point x="280" y="-148" type="line"/>
      <point x="280" y="-228" type="line"/>
      <point x="296" y="-234"/>
      <point x="320" y="-240"/>
    </contour>
    <component base="n"/>
  </outline>
</glyph>
<glyph name="Tbar" format="2">
  <advance width="584"/>
  <unicode hex="0166"/>
  <note>
Tbar
</note>
  <anchor x="292" y="0" name="bottom"/>
  <anchor x="292" y="360" name="center"/>
  <anchor x="292" y="720" name="top"/>
  <outline>
    <contour>
      <point x="88" y="324" type="line"/>
      <point x="496" y="324" type="line"/>
      <point x="496" y="396" type="line"/>
      <point x="88" y="396" type="line"/>
    </contour>
    <component base="T"/>
  </outline>
</glyph>
<glyph name="tbar" format="2">
  <advance width="404"/>
  <unicode hex="0167"/>
  <note>
tbar
</note>
  <anchor x="202" y="0" name="bottom"/>
  <anchor x="202" y="272" name="center"/>
  <anchor x="150" y="692" name="top"/>
  <anchor x="301" y="567" name="topright"/>
  <outline>
    <contour>
      <point x="352" y="312" type="line"/>
      <point x="20" y="312" type="line"/>
      <point x="20" y="248" type="line"/>
      <point x="352" y="248" type="line"/>
    </contour>
    <component base="t"/>
  </outline>
</glyph>
<glyph name="Schwa" format="2">
  <advance width="748"/>
  <unicode hex="018F"/>
  <anchor x="381.736" y="0" name="bottom"/>
  <anchor x="656.957" y="28.971" name="ogonek"/>
  <anchor x="381.736" y="716.363" name="top"/>
  <outline>
    <contour>
      <point x="316" y="732" type="curve" smooth="yes"/>
      <point x="234" y="732"/>
      <point x="149" y="712"/>
      <point x="107" y="691" type="curve"/>
      <point x="107" y="602" type="line"/>
      <point x="118" y="602" type="line"/>
      <point x="154" y="623"/>
      <point x="234" y="644"/>
      <point x="312" y="644" type="curve" smooth="yes"/>
      <point x="487" y="644"/>
      <point x="592" y="567"/>
      <point x="592" y="359" type="curve" smooth="yes"/>
      <point x="592" y="351" type="line" smooth="yes"/>
      <point x="592" y="168"/>
      <point x="504" y="76"/>
      <point x="364" y="76" type="curve" smooth="yes"/>
      <point x="229" y="76"/>
      <point x="166" y="158"/>
      <point x="166" y="293" type="curve" smooth="yes"/>
      <point x="166" y="312" type="line"/>
      <point x="607" y="312" type="line"/>
      <point x="607" y="400" type="line"/>
      <point x="65" y="400" type="line"/>
      <point x="64" y="367" type="line" smooth="yes"/>
      <point x="58" y="141"/>
      <point x="144" y="-12"/>
      <point x="364" y="-12" type="curve" smooth="yes"/>
      <point x="560" y="-12"/>
      <point x="692" y="135"/>
      <point x="692" y="360" type="curve" smooth="yes"/>
      <point x="692" y="599"/>
      <point x="565" y="732"/>
    </contour>
  </outline>
</glyph>
<glyph name="Lj" format="2">
  <advance width="816"/>
  <unicode hex="01C8"/>
  <anchor x="674" y="544" name="_top"/>
  <anchor x="266" y="0" name="bottom"/>
  <anchor x="188" y="382" name="center"/>
  <anchor x="368" y="392" name="periodCAT"/>
  <anchor x="266" y="720" name="top"/>
  <anchor x="512" y="720" name="topright"/>
  <outline>
    <contour>
      <point x="96" y="0" type="line"/>
      <point x="500" y="0" type="line"/>
      <point x="500" y="84" type="line"/>
      <point x="192" y="84" type="line"/>
      <point x="192" y="720" type="line"/>
      <point x="96" y="720" type="line"/>
    </contour>
    <contour>
      <point x="528" y="-240" type="curve" smooth="yes"/>
      <point x="664" y="-240"/>
      <point x="720" y="-148"/>
      <point x="720" y="-48" type="curve" smooth="yes"/>
      <point x="720" y="544" type="line"/>
      <point x="622" y="544" type="line"/>
      <point x="620" y="536" type="line"/>
      <point x="628" y="500"/>
      <point x="628" y="412"/>
      <point x="628" y="372" type="curve" smooth="yes"/>
      <point x="628" y="-52" type="line" smooth="yes"/>
      <point x="628" y="-124"/>
      <point x="588" y="-160"/>
      <point x="524" y="-160" type="curve" smooth="yes"/>
      <point x="496" y="-160"/>
      <point x="476" y="-154"/>
      <point x="460" y="-148" type="curve"/>
      <point x="452" y="-148" type="line"/>
      <point x="452" y="-228" type="line"/>
      <point x="468" y="-234"/>
      <point x="492" y="-240"/>
    </contour>
    <contour>
      <point x="674" y="640" type="curve" smooth="yes"/>
      <point x="708" y="640"/>
      <point x="734" y="664"/>
      <point x="734" y="700" type="curve" smooth="yes"/>
      <point x="734" y="736"/>
      <point x="708" y="760"/>
      <point x="674" y="760" type="curve" smooth="yes"/>
      <point x="640" y="760"/>
      <point x="614" y="736"/>
      <point x="614" y="700" type="curve" smooth="yes"/>
      <point x="614" y="664"/>
      <point x="640" y="640"/>
    </contour>
  </outline>
</glyph>
<glyph name="lj" format="2">
  <advance width="568"/>
  <unicode hex="01C9"/>
  <anchor x="142" y="0" name="bottom"/>
  <anchor x="154" y="392" name="center"/>
  <anchor x="332" y="360" name="periodCAT"/>
  <anchor x="142" y="760" name="top"/>
  <anchor x="284" y="544" name="topright"/>
  <outline>
    <contour>
      <point x="96" y="0" type="line"/>
      <point x="188" y="0" type="line"/>
      <point x="188" y="760" type="line"/>
      <point x="90" y="760" type="line"/>
      <point x="88" y="752" type="line"/>
      <point x="96" y="716"/>
      <point x="96" y="628"/>
      <point x="96" y="588" type="curve" smooth="yes"/>
    </contour>
    <component base="jdotless" xOffset="284"/>
    <component base="_part.dot" xOffset="286"/>
  </outline>
</glyph>
<glyph name="jdotless" format="2">
  <advance width="284"/>
  <unicode hex="0237"/>
  <note>
dotlessj
</note>
  <anchor x="142" y="-240" name="bottom"/>
  <anchor x="142" y="544" name="top"/>
  <outline>
    <contour>
      <point x="-4" y="-240" type="curve" smooth="yes"/>
      <point x="132" y="-240"/>
      <point x="188" y="-148"/>
      <point x="188" y="-48" type="curve" smooth="yes"/>
      <point x="188" y="544" type="line"/>
      <point x="90" y="544" type="line"/>
      <point x="88" y="536" type="line"/>
      <point x="96" y="500"/>
      <point x="96" y="412"/>
      <point x="96" y="372" type="curve" smooth="yes"/>
      <point x="96" y="-52" type="line" smooth="yes"/>
      <point x="96" y="-124"/>
      <point x="56" y="-160"/>
      <point x="-8" y="-160" type="curve" smooth="yes"/>
      <point x="-36" y="-160"/>
      <point x="-56" y="-154"/>
      <point x="-72" y="-148" type="curve"/>
      <point x="-80" y="-148" type="line"/>
      <point x="-80" y="-228" type="line"/>
      <point x="-64" y="-234"/>
      <point x="-40" y="-240"/>
    </contour>
  </outline>
</glyph>
<glyph name="schwa" format="2">
  <advance width="596"/>
  <unicode hex="0259"/>
  <note>
e
</note>
  <anchor x="297" y="548" name="bottom"/>
  <anchor x="88" y="526" name="ogonek"/>
  <anchor x="297" y="4" name="top"/>
  <outline>
    <contour>
      <point x="244" y="556" type="curve" smooth="yes"/>
      <point x="172" y="556"/>
      <point x="120" y="542"/>
      <point x="88" y="526" type="curve"/>
      <point x="88" y="444" type="line"/>
      <point x="96" y="444" type="line"/>
      <point x="124" y="460"/>
      <point x="172" y="476"/>
      <point x="240" y="476" type="curve" smooth="yes"/>
      <point x="363" y="476"/>
      <point x="450" y="428"/>
      <point x="450" y="274" type="curve" smooth="yes"/>
      <point x="450" y="268" type="line" smooth="yes"/>
      <point x="450" y="120"/>
      <point x="376" y="72"/>
      <point x="292" y="72" type="curve" smooth="yes"/>
      <point x="196" y="72"/>
      <point x="148" y="124"/>
      <point x="148" y="224" type="curve" smooth="yes"/>
      <point x="148" y="232" type="line"/>
      <point x="480" y="232" type="line"/>
      <point x="480" y="308" type="line"/>
      <point x="53" y="308" type="line"/>
      <point x="52" y="280" type="line" smooth="yes"/>
      <point x="46" y="108"/>
      <point x="116" y="-8"/>
      <point x="292" y="-8" type="curve" smooth="yes"/>
      <point x="444" y="-8"/>
      <point x="544" y="104"/>
      <point x="544" y="274" type="curve" smooth="yes"/>
      <point x="544" y="456"/>
      <point x="448" y="556"/>
    </contour>
  </outline>
</glyph>
<glyph name="apostrophemod" format="2">
  <advance width="644"/>
  <unicode hex="02BC"/>
  <outline>
    <contour>
      <point x="146" y="690" type="curve"/>
      <point x="105" y="609" type="line"/>
      <point x="105" y="604" type="line"/>
      <point x="160" y="604" type="line"/>
      <point x="199" y="681" type="line"/>
      <point x="204" y="693"/>
      <point x="215" y="712"/>
      <point x="215" y="736" type="curve" smooth="yes"/>
      <point x="215" y="772"/>
      <point x="193" y="788"/>
      <point x="164" y="788" type="curve" smooth="yes"/>
      <point x="134" y="788"/>
      <point x="113" y="769"/>
      <point x="113" y="736" type="curve" smooth="yes"/>
      <point x="113" y="710"/>
      <point x="132" y="695"/>
    </contour>
  </outline>
</glyph>
<glyph name="ringhalfright" format="2">
  <advance width="200"/>
  <unicode hex="02BE"/>
  <note>
uni02BE
</note>
  <outline>
    <contour>
      <point x="32" y="444" type="line"/>
      <point x="108" y="444"/>
      <point x="176" y="484"/>
      <point x="176" y="582" type="curve" smooth="yes"/>
      <point x="176" y="680"/>
      <point x="108" y="720"/>
      <point x="32" y="720" type="curve"/>
      <point x="32" y="660" type="line"/>
      <point x="80" y="656"/>
      <point x="112" y="636"/>
      <point x="112" y="582" type="curve" smooth="yes"/>
      <point x="112" y="528"/>
      <point x="80" y="508"/>
      <point x="32" y="504" type="curve"/>
    </contour>
  </outline>
</glyph>
<glyph name="ringhalfleft" format="2">
  <advance width="200"/>
  <unicode hex="02BF"/>
  <note>
uni02BF
</note>
  <outline>
    <contour>
      <point x="168" y="444" type="curve"/>
      <point x="168" y="504" type="line"/>
      <point x="120" y="508"/>
      <point x="88" y="528"/>
      <point x="88" y="582" type="curve" smooth="yes"/>
      <point x="88" y="636"/>
      <point x="120" y="656"/>
      <point x="168" y="660" type="curve"/>
      <point x="168" y="720" type="line"/>
      <point x="92" y="720"/>
      <point x="24" y="680"/>
      <point x="24" y="582" type="curve" smooth="yes"/>
      <point x="24" y="484"/>
      <point x="92" y="444"/>
    </contour>
  </outline>
</glyph>
<glyph name="firsttonechinese" format="2">
  <advance width="612"/>
  <unicode hex="02C9"/>
  <note>
uni02C9
</note>
  <outline>
    <contour>
      <point x="144" y="720" type="line"/>
      <point x="144" y="646" type="line"/>
      <point x="468" y="646" type="line"/>
      <point x="468" y="720" type="line"/>
    </contour>
  </outline>
</glyph>
<glyph name="acutecomb" format="2">
  <unicode hex="0301"/>
  <note>
acute
</note>
  <anchor x="355" y="544" name="_top"/>
  <anchor x="355" y="760" name="top"/>
  <outline>
    <contour>
      <point x="291" y="604" type="line"/>
      <point x="367" y="604" type="line"/>
      <point x="498" y="756" type="line"/>
      <point x="498" y="760" type="line"/>
      <point x="382" y="760" type="line"/>
      <point x="291" y="608" type="line"/>
    </contour>
  </outline>
</glyph>
<glyph name="macroncomb" format="2">
  <unicode hex="0304"/>
  <note>
macron
</note>
  <anchor x="306" y="544" name="_top"/>
  <anchor x="306" y="720" name="top"/>
  <outline>
    <contour>
      <point x="144" y="720" type="line"/>
      <point x="144" y="644" type="line"/>
      <point x="468" y="644" type="line"/>
      <point x="468" y="720" type="line"/>
    </contour>
  </outline>
</glyph>
<glyph name="brevecomb" format="2">
  <unicode hex="0306"/>
  <note>
breve
</note>
  <anchor x="306" y="544" name="_top"/>
  <anchor x="306" y="760" name="top"/>
  <outline>
    <contour>
      <point x="306" y="620" type="curve" smooth="yes"/>
      <point x="396" y="620"/>
      <point x="444" y="684"/>
      <point x="444" y="760" type="curve"/>
      <point x="380" y="760" type="line"/>
      <point x="376" y="712"/>
      <point x="360" y="680"/>
      <point x="306" y="680" type="curve" smooth="yes"/>
      <point x="252" y="680"/>
      <point x="236" y="712"/>
      <point x="232" y="760" type="curve"/>
      <point x="168" y="760" type="line"/>
      <point x="168" y="684"/>
      <point x="216" y="620"/>
    </contour>
  </outline>
</glyph>
<glyph name="dotaccentcomb" format="2">
  <unicode hex="0307"/>
  <note>
dotaccent
</note>
  <anchor x="306" y="544" name="_top"/>
  <anchor x="306" y="744" name="top"/>
  <outline>
    <contour>
      <point x="306" y="624" type="curve" smooth="yes"/>
      <point x="340" y="624"/>
      <point x="366" y="646"/>
      <point x="366" y="684" type="curve" smooth="yes"/>
      <point x="366" y="721"/>
      <point x="340" y="744"/>
      <point x="306" y="744" type="curve" smooth="yes"/>
      <point x="272" y="744"/>
      <point x="246" y="721"/>
      <point x="246" y="684" type="curve" smooth="yes"/>
      <point x="246" y="646"/>
      <point x="272" y="624"/>
    </contour>
  </outline>
</glyph>
<glyph name="ringcomb" format="2">
  <unicode hex="030A"/>
  <note>
ring
</note>
  <anchor x="306" y="544" name="_top"/>
  <anchor x="306" y="836" name="top"/>
  <outline>
    <contour>
      <point x="306" y="604" type="curve" smooth="yes"/>
      <point x="372" y="604"/>
      <point x="426" y="648"/>
      <point x="426" y="720" type="curve" smooth="yes"/>
      <point x="426" y="792"/>
      <point x="372" y="836"/>
      <point x="306" y="836" type="curve" smooth="yes"/>
      <point x="240" y="836"/>
      <point x="186" y="792"/>
      <point x="186" y="720" type="curve" smooth="yes"/>
      <point x="186" y="648"/>
      <point x="240" y="604"/>
    </contour>
    <contour>
      <point x="306" y="656" type="curve" smooth="yes"/>
      <point x="270" y="656"/>
      <point x="244" y="680"/>
      <point x="244" y="720" type="curve" smooth="yes"/>
      <point x="244" y="760"/>
      <point x="270" y="784"/>
      <point x="306" y="784" type="curve" smooth="yes"/>
      <point x="342" y="784"/>
      <point x="368" y="760"/>
      <point x="368" y="720" type="curve" smooth="yes"/>
      <point x="368" y="680"/>
      <point x="342" y="656"/>
    </contour>
  </outline>
</glyph>
<glyph name="hungarumlautcomb" format="2">
  <unicode hex="030B"/>
  <note>
hungarumlaut
</note>
  <anchor x="357" y="544" name="_top"/>
  <anchor x="357" y="760" name="top"/>
  <outline>
    <contour>
      <point x="345" y="604" type="line"/>
      <point x="413" y="604" type="line"/>
      <point x="544" y="756" type="line"/>
      <point x="544" y="760" type="line"/>
      <point x="436" y="760" type="line"/>
      <point x="345" y="608" type="line"/>
    </contour>
    <contour>
      <point x="169" y="604" type="line"/>
      <point x="237" y="604" type="line"/>
      <point x="368" y="756" type="line"/>
      <point x="368" y="760" type="line"/>
      <point x="260" y="760" type="line"/>
      <point x="169" y="608" type="line"/>
    </contour>
  </outline>
</glyph>
<glyph name="caroncomb" format="2">
  <unicode hex="030C"/>
  <note>
caron
</note>
  <anchor x="306" y="544" name="_top"/>
  <anchor x="306" y="760" name="top"/>
  <outline>
    <contour>
      <point x="252" y="604" type="line"/>
      <point x="360" y="604" type="line"/>
      <point x="472" y="756" type="line"/>
      <point x="472" y="760" type="line"/>
      <point x="396" y="760" type="line"/>
      <point x="306" y="663" type="line"/>
      <point x="216" y="760" type="line"/>
      <point x="140" y="760" type="line"/>
      <point x="140" y="756" type="line"/>
    </contour>
  </outline>
</glyph>
<glyph name="dblgravecomb" format="2">
  <unicode hex="030F"/>
  <anchor x="346" y="544" name="_top"/>
  <anchor x="306" y="760" name="top"/>
  <outline>
    <contour>
      <point x="250" y="604" type="line"/>
      <point x="326" y="604" type="line"/>
      <point x="326" y="608" type="line"/>
      <point x="235" y="760" type="line"/>
      <point x="119" y="760" type="line"/>
      <point x="119" y="756" type="line"/>
    </contour>
    <contour>
      <point x="417" y="604" type="line"/>
      <point x="493" y="604" type="line"/>
      <point x="493" y="608" type="line"/>
      <point x="402" y="760" type="line"/>
      <point x="286" y="760" type="line"/>
      <point x="286" y="756" type="line"/>
    </contour>
  </outline>
</glyph>
<glyph name="breveinvertedcomb" format="2">
  <unicode hex="0311"/>
  <anchor x="306" y="544" name="_top"/>
  <anchor x="306" y="760" name="top"/>
  <outline>
    <contour>
      <point x="306" y="760" type="curve" smooth="yes"/>
      <point x="216" y="760"/>
      <point x="168" y="696"/>
      <point x="168" y="620" type="curve"/>
      <point x="232" y="620" type="line"/>
      <point x="236" y="668"/>
      <point x="252" y="700"/>
      <point x="306" y="700" type="curve" smooth="yes"/>
      <point x="360" y="700"/>
      <point x="376" y="668"/>
      <point x="380" y="620" type="curve"/>
      <point x="444" y="620" type="line"/>
      <point x="444" y="696"/>
      <point x="396" y="760"/>
    </contour>
  </outline>
</glyph>
<glyph name="commaturnedabovecomb" format="2">
  <unicode hex="0312"/>
  <anchor x="306" y="544" name="_top"/>
  <anchor x="306" y="788" name="top"/>
  <outline>
    <contour>
      <point x="302" y="604" type="curve" smooth="yes"/>
      <point x="332" y="604"/>
      <point x="353" y="623"/>
      <point x="353" y="656" type="curve" smooth="yes"/>
      <point x="353" y="682"/>
      <point x="334" y="697"/>
      <point x="320" y="702" type="curve"/>
      <point x="361" y="783" type="line"/>
      <point x="361" y="788" type="line"/>
      <point x="306" y="788" type="line"/>
      <point x="267" y="711" type="line"/>
      <point x="262" y="699"/>
      <point x="251" y="680"/>
      <point x="251" y="656" type="curve" smooth="yes"/>
      <point x="251" y="620"/>
      <point x="273" y="604"/>
    </contour>
  </outline>
</glyph>
<glyph name="dotbelowcomb" format="2">
  <unicode hex="0323"/>
  <anchor x="306" y="0" name="_bottom"/>
  <anchor x="306" y="-204" name="bottom"/>
  <outline>
    <contour>
      <point x="306" y="-204" type="curve" smooth="yes"/>
      <point x="340" y="-204"/>
      <point x="366" y="-182"/>
      <point x="366" y="-144" type="curve" smooth="yes"/>
      <point x="366" y="-107"/>
      <point x="340" y="-84"/>
      <point x="306" y="-84" type="curve" smooth="yes"/>
      <point x="272" y="-84"/>
      <point x="246" y="-107"/>
      <point x="246" y="-144" type="curve" smooth="yes"/>
      <point x="246" y="-182"/>
      <point x="272" y="-204"/>
    </contour>
  </outline>
</glyph>
<glyph name="commaaccentcomb" format="2">
  <unicode hex="0326"/>
  <note>
commaaccent
</note>
  <anchor x="306" y="0" name="_bottom"/>
  <anchor x="306" y="-236" name="bottom"/>
  <outline>
    <contour>
      <point x="292" y="-150" type="curve"/>
      <point x="251" y="-231" type="line"/>
      <point x="251" y="-236" type="line"/>
      <point x="306" y="-236" type="line"/>
      <point x="345" y="-159" type="line"/>
      <point x="350" y="-147"/>
      <point x="361" y="-128"/>
      <point x="361" y="-104" type="curve" smooth="yes"/>
      <point x="361" y="-68"/>
      <point x="339" y="-52"/>
      <point x="310" y="-52" type="curve" smooth="yes"/>
      <point x="280" y="-52"/>
      <point x="259" y="-71"/>
      <point x="259" y="-104" type="curve" smooth="yes"/>
      <point x="259" y="-130"/>
      <point x="278" y="-145"/>
    </contour>
  </outline>
</glyph>
<glyph name="brevebelowcomb" format="2">
  <unicode hex="032E"/>
  <anchor x="306" y="0" name="_bottom"/>
  <anchor x="306" y="-224" name="bottom"/>
  <outline>
    <contour>
      <point x="306" y="-224" type="curve" smooth="yes"/>
      <point x="396" y="-224"/>
      <point x="444" y="-160"/>
      <point x="444" y="-84" type="curve"/>
      <point x="380" y="-84" type="line"/>
      <point x="376" y="-132"/>
      <point x="360" y="-164"/>
      <point x="306" y="-164" type="curve" smooth="yes"/>
      <point x="252" y="-164"/>
      <point x="236" y="-132"/>
      <point x="232" y="-84" type="curve"/>
      <point x="168" y="-84" type="line"/>
      <point x="168" y="-160"/>
      <point x="216" y="-224"/>
    </contour>
  </outline>
</glyph>
<glyph name="slashshortcomb" format="2">
  <unicode hex="0337"/>
  <anchor x="306" y="392" name="_center"/>
  <outline>
    <contour>
      <point x="156" y="248" type="line"/>
      <point x="164" y="248" type="line"/>
      <point x="456" y="460" type="line"/>
      <point x="456" y="536" type="line"/>
      <point x="448" y="536" type="line"/>
      <point x="156" y="324" type="line"/>
    </contour>
  </outline>
</glyph>
<glyph name="slashlongcomb" format="2">
  <unicode hex="0338"/>
  <anchor x="306" y="272" name="_center"/>
  <outline>
    <contour>
      <point x="92" y="-88" type="line"/>
      <point x="164" y="-88" type="line"/>
      <point x="521" y="636" type="line"/>
      <point x="449" y="636" type="line"/>
    </contour>
  </outline>
</glyph>
<glyph name="pi" format="2">
  <advance width="628"/>
  <unicode hex="03C0"/>
  <note>
pi
</note>
  <outline>
    <contour>
      <point x="448" y="0" type="line"/>
      <point x="540" y="0" type="line"/>
      <point x="540" y="544" type="line"/>
      <point x="442" y="544" type="line"/>
      <point x="440" y="536" type="line"/>
      <point x="448" y="500"/>
      <point x="448" y="412"/>
      <point x="448" y="372" type="curve" smooth="yes"/>
    </contour>
    <contour>
      <point x="96" y="0" type="line"/>
      <point x="188" y="0" type="line"/>
      <point x="188" y="544" type="line"/>
      <point x="90" y="544" type="line"/>
      <point x="88" y="536" type="line"/>
      <point x="96" y="500"/>
      <point x="96" y="412"/>
      <point x="96" y="372" type="curve" smooth="yes"/>
    </contour>
    <contour>
      <point x="156" y="470" type="line"/>
      <point x="480" y="470" type="line"/>
      <point x="480" y="544" type="line"/>
      <point x="156" y="544" type="line"/>
    </contour>
  </outline>
</glyph>
<glyph name="tahabove-ar" format="2">
  <unicode hex="0615"/>
  <note>
uni0615
</note>
  <anchor x="148" y="253" name="_top"/>
  <anchor x="151" y="579" name="top"/>
  <outline>
    <contour>
      <point x="118" y="353" type="line"/>
      <point x="118" y="556" type="line"/>
      <point x="65" y="549" type="line"/>
      <point x="65" y="353" type="line"/>
      <point x="75" y="368" type="line"/>
      <point x="25" y="368" type="line"/>
      <point x="9" y="325" type="line"/>
      <point x="9" y="323" type="line"/>
      <point x="196" y="323" type="line" smooth="yes"/>
      <point x="280" y="323"/>
      <point x="297" y="356"/>
      <point x="297" y="397" type="curve" smooth="yes"/>
      <point x="297" y="429"/>
      <point x="271" y="459"/>
      <point x="250" y="476" type="curve"/>
      <point x="242" y="476" type="line"/>
      <point x="227" y="473"/>
      <point x="202" y="473"/>
      <point x="179" y="473" type="curve" smooth="yes"/>
      <point x="130" y="473" type="line"/>
      <point x="110" y="427" type="line"/>
      <point x="179" y="427" type="line" smooth="yes"/>
      <point x="197" y="427"/>
      <point x="216" y="428"/>
      <point x="229" y="429" type="curve"/>
      <point x="238" y="420"/>
      <point x="244" y="407"/>
      <point x="244" y="393" type="curve" smooth="yes"/>
      <point x="244" y="373"/>
      <point x="228" y="368"/>
      <point x="205" y="368" type="curve" smooth="yes"/>
      <point x="109" y="368" type="line"/>
    </contour>
  </outline>
</glyph>
<glyph name="semicolon-ar" format="2">
  <advance width="350"/>
  <unicode hex="061B"/>
  <note>
uni061B
</note>
  <outline>
    <contour>
      <point x="176" y="277" type="curve" smooth="yes"/>
      <point x="214" y="277"/>
      <point x="238" y="303"/>
      <point x="238" y="336" type="curve" smooth="yes"/>
      <point x="238" y="368"/>
      <point x="215" y="389"/>
      <point x="179" y="390" type="curve"/>
      <point x="190" y="430"/>
      <point x="229" y="458"/>
      <point x="229" y="458" type="curve"/>
      <point x="229" y="466" type="line"/>
      <point x="183" y="484" type="line"/>
      <point x="140" y="459"/>
      <point x="105" y="409"/>
      <point x="105" y="361" type="curve" smooth="yes"/>
      <point x="105" y="309"/>
      <point x="135" y="277"/>
    </contour>
    <contour>
      <point x="112" y="55" type="curve" smooth="yes"/>
      <point x="112" y="19"/>
      <point x="137" y="-5"/>
      <point x="172" y="-5" type="curve" smooth="yes"/>
      <point x="207" y="-5"/>
      <point x="232" y="19"/>
      <point x="232" y="55" type="curve" smooth="yes"/>
      <point x="232" y="91"/>
      <point x="207" y="115"/>
      <point x="172" y="115" type="curve" smooth="yes"/>
      <point x="137" y="115"/>
      <point x="112" y="91"/>
    </contour>
  </outline>
</glyph>
<glyph name="question-ar" format="2">
  <advance width="437"/>
  <unicode hex="061F"/>
  <note>
uni061F
</note>
  <outline>
    <contour>
      <point x="207" y="207" type="curve"/>
      <point x="207" y="202" type="line"/>
      <point x="277" y="202" type="line"/>
      <point x="279" y="211"/>
      <point x="283" y="217"/>
      <point x="283" y="244" type="curve" smooth="yes"/>
      <point x="283" y="344"/>
      <point x="110" y="431"/>
      <point x="110" y="523" type="curve" smooth="yes"/>
      <point x="110" y="612"/>
      <point x="210" y="643"/>
      <point x="250" y="655" type="curve"/>
      <point x="223" y="673" type="line"/>
      <point x="252" y="603"/>
      <point x="322" y="539"/>
      <point x="373" y="500" type="curve"/>
      <point x="385" y="500" type="line"/>
      <point x="442" y="561" type="line"/>
      <point x="356" y="634"/>
      <point x="332" y="664"/>
      <point x="268" y="745" type="curve"/>
      <point x="256" y="745" type="line"/>
      <point x="84" y="690"/>
      <point x="23" y="606"/>
      <point x="23" y="520" type="curve" smooth="yes"/>
      <point x="23" y="376"/>
      <point x="212" y="301"/>
      <point x="212" y="231" type="curve" smooth="yes"/>
      <point x="212" y="220"/>
      <point x="209" y="213"/>
    </contour>
    <contour>
      <point x="175" y="54" type="curve" smooth="yes"/>
      <point x="175" y="18"/>
      <point x="200" y="-6"/>
      <point x="235" y="-6" type="curve" smooth="yes"/>
      <point x="270" y="-6"/>
      <point x="295" y="18"/>
      <point x="295" y="54" type="curve" smooth="yes"/>
      <point x="295" y="90"/>
      <point x="270" y="114"/>
      <point x="235" y="114" type="curve" smooth="yes"/>
      <point x="200" y="114"/>
      <point x="175" y="90"/>
    </contour>
  </outline>
</glyph>
<glyph name="seen-ar" format="2">
  <advance width="1080"/>
  <unicode hex="0633"/>
  <note>
uni0633
</note>
  <anchor x="190" y="-256" name="bottom"/>
  <anchor x="662" y="-195" name="center"/>
  <anchor x="668" y="477" name="top"/>
  <outline>
    <contour>
      <point x="437" y="0" type="line"/>
      <point x="452" y="0" type="line" smooth="yes"/>
      <point x="556" y="0"/>
      <point x="641" y="-9"/>
      <point x="708" y="-52" type="curve"/>
      <point x="891" y="-17"/>
      <point x="984" y="68"/>
      <point x="984" y="204" type="curve" smooth="yes"/>
      <point x="984" y="504" type="line"/>
      <point x="976" y="504" type="line"/>
      <point x="892" y="492" type="line"/>
      <point x="892" y="85" type="line"/>
      <point x="913" y="155" type="line"/>
      <point x="859" y="85"/>
      <point x="768" y="46"/>
      <point x="696" y="40" type="curve"/>
      <point x="712" y="-7" type="line"/>
      <point x="712" y="472" type="line"/>
      <point x="704" y="472" type="line"/>
      <point x="620" y="460" type="line"/>
      <point x="620" y="16" type="line"/>
      <point x="638" y="48" type="line"/>
      <point x="600" y="75"/>
      <point x="556" y="85"/>
      <point x="484" y="85" type="curve" smooth="yes"/>
      <point x="402" y="85" type="line"/>
    </contour>
    <contour>
      <point x="0" y="-64" type="curve"/>
      <point x="-8" y="-64" type="line"/>
      <point x="-36" y="-136" type="line"/>
      <point x="11" y="-197"/>
      <point x="92" y="-256"/>
      <point x="190" y="-256" type="curve" smooth="yes"/>
      <point x="368" y="-256"/>
      <point x="460" y="-124"/>
      <point x="460" y="152" type="curve" smooth="yes"/>
      <point x="460" y="264"/>
      <point x="446" y="347"/>
      <point x="436" y="436" type="curve"/>
      <point x="428" y="436" type="line"/>
      <point x="344" y="424" type="line"/>
      <point x="344" y="424"/>
      <point x="368" y="244"/>
      <point x="368" y="128" type="curve" smooth="yes"/>
      <point x="368" y="-7"/>
      <point x="349" y="-97"/>
      <point x="308" y="-164" type="curve"/>
      <point x="344" y="-129" type="line"/>
      <point x="298" y="-165"/>
      <point x="255" y="-176"/>
      <point x="218" y="-176" type="curve" smooth="yes"/>
      <point x="139" y="-176"/>
      <point x="73" y="-155"/>
    </contour>
  </outline>
</glyph>
<glyph name="kashida-ar" format="2">
  <advance width="162"/>
  <unicode hex="0640"/>
  <note>
uni0640
</note>
  <outline>
    <contour>
      <point x="162" y="85" type="line"/>
      <point x="0" y="85" type="line"/>
      <point x="-20" y="65" type="line"/>
      <point x="-20" y="0" type="line"/>
      <point x="142" y="0" type="line"/>
      <point x="162" y="20" type="line"/>
    </contour>
  </outline>
</glyph>
<glyph name="heh-ar" format="2">
  <advance width="556"/>
  <unicode hex="0647"/>
  <note>
uni0647
</note>
  <anchor x="272" y="-8" name="bottom"/>
  <anchor x="288" y="524" name="top"/>
  <outline>
    <contour>
      <point x="52" y="212" type="curve" smooth="yes"/>
      <point x="52" y="83"/>
      <point x="145" y="-8"/>
      <point x="272" y="-8" type="curve" smooth="yes"/>
      <point x="401" y="-8"/>
      <point x="504" y="82"/>
      <point x="504" y="224" type="curve" smooth="yes"/>
      <point x="504" y="328"/>
      <point x="419" y="457"/>
      <point x="296" y="524" type="curve"/>
      <point x="288" y="524" type="line"/>
      <point x="155" y="473"/>
      <point x="52" y="348"/>
    </contour>
    <contour>
      <point x="140" y="228" type="curve" smooth="yes"/>
      <point x="140" y="354"/>
      <point x="248" y="415"/>
      <point x="292" y="438" type="curve"/>
      <point x="260" y="445" type="line"/>
      <point x="347" y="387"/>
      <point x="429" y="275"/>
      <point x="442" y="170" type="curve"/>
      <point x="446" y="219" type="line"/>
      <point x="426" y="141"/>
      <point x="367" y="77"/>
      <point x="288" y="77" type="curve" smooth="yes"/>
      <point x="195" y="77"/>
      <point x="140" y="154"/>
    </contour>
  </outline>
</glyph>
<glyph name="fathatan-ar" format="2">
  <unicode hex="064B"/>
  <note>
uni064B
</note>
  <anchor x="166" y="546" name="_top"/>
  <anchor x="156" y="807" name="top"/>
  <outline>
    <contour>
      <point x="38" y="612" type="line"/>
      <point x="46" y="612" type="line"/>
      <point x="304" y="696" type="line"/>
      <point x="304" y="752" type="line"/>
      <point x="296" y="752" type="line"/>
      <point x="38" y="668" type="line"/>
    </contour>
    <contour>
      <point x="38" y="713" type="line"/>
      <point x="46" y="713" type="line"/>
      <point x="304" y="797" type="line"/>
      <point x="304" y="853" type="line"/>
      <point x="296" y="853" type="line"/>
      <point x="38" y="769" type="line"/>
    </contour>
  </outline>
</glyph>
<glyph name="kasratan-ar" format="2">
  <unicode hex="064D"/>
  <note>
uni064D
</note>
  <anchor x="176" y="-10" name="_bottom"/>
  <anchor x="176" y="-269" name="bottom"/>
  <outline>
    <contour>
      <point x="42" y="-313" type="line"/>
      <point x="50" y="-313" type="line"/>
      <point x="308" y="-229" type="line"/>
      <point x="308" y="-173" type="line"/>
      <point x="300" y="-173" type="line"/>
      <point x="42" y="-257" type="line"/>
    </contour>
    <contour>
      <point x="42" y="-212" type="line"/>
      <point x="50" y="-212" type="line"/>
      <point x="308" y="-128" type="line"/>
      <point x="308" y="-72" type="line"/>
      <point x="300" y="-72" type="line"/>
      <point x="42" y="-156" type="line"/>
    </contour>
  </outline>
</glyph>
<glyph name="kasra-ar" format="2">
  <unicode hex="0650"/>
  <note>
uni0650
</note>
  <anchor x="179" y="55" name="_bottom"/>
  <anchor x="179" y="-209" name="bottom"/>
  <outline>
    <contour>
      <point x="46" y="-190" type="line"/>
      <point x="54" y="-190" type="line"/>
      <point x="312" y="-106" type="line"/>
      <point x="312" y="-50" type="line"/>
      <point x="304" y="-50" type="line"/>
      <point x="46" y="-134" type="line"/>
    </contour>
  </outline>
</glyph>
<glyph name="percent-ar" format="2">
  <advance width="523"/>
  <unicode hex="066A"/>
  <note>
uni066A
</note>
  <outline>
    <contour>
      <point x="20" y="12" type="line"/>
      <point x="20" y="0" type="line"/>
      <point x="113" y="0" type="line"/>
      <point x="511" y="708" type="line"/>
      <point x="511" y="720" type="line"/>
      <point x="418" y="720" type="line"/>
    </contour>
    <contour>
      <point x="115" y="503" type="curve" smooth="yes"/>
      <point x="150" y="503"/>
      <point x="175" y="527"/>
      <point x="175" y="563" type="curve" smooth="yes"/>
      <point x="175" y="599"/>
      <point x="150" y="623"/>
      <point x="115" y="623" type="curve" smooth="yes"/>
      <point x="80" y="623"/>
      <point x="55" y="599"/>
      <point x="55" y="563" type="curve" smooth="yes"/>
      <point x="55" y="527"/>
      <point x="80" y="503"/>
    </contour>
    <contour>
      <point x="369" y="153" type="curve" smooth="yes"/>
      <point x="369" y="117"/>
      <point x="394" y="93"/>
      <point x="429" y="93" type="curve" smooth="yes"/>
      <point x="464" y="93"/>
      <point x="489" y="117"/>
      <point x="489" y="153" type="curve" smooth="yes"/>
      <point x="489" y="189"/>
      <point x="464" y="213"/>
      <point x="429" y="213" type="curve" smooth="yes"/>
      <point x="394" y="213"/>
      <point x="369" y="189"/>
    </contour>
  </outline>
</glyph>
<glyph name="alefabove-ar" format="2">
  <unicode hex="0670"/>
  <note>
uni0670
</note>
  <anchor x="164" y="563" name="_top"/>
  <anchor x="164" y="849" name="top"/>
  <outline>
    <contour>
      <point x="141" y="796" type="line"/>
      <point x="141" y="624" type="line"/>
      <point x="185" y="624" type="line"/>
      <point x="185" y="648" type="line" smooth="yes"/>
      <point x="185" y="688"/>
      <point x="185" y="758"/>
      <point x="193" y="794" type="curve"/>
      <point x="191" y="802" type="line"/>
    </contour>
  </outline>
</glyph>
<glyph name="fehDotless-ar" format="2">
  <advance width="1208"/>
  <unicode hex="06A1"/>
  <note>
uni06A1
</note>
  <anchor x="552" y="0" name="bottom"/>
  <anchor x="916" y="510" name="top"/>
  <outline>
    <contour>
      <point x="552" y="0" type="curve" smooth="yes"/>
      <point x="924" y="0" type="line" smooth="yes"/>
      <point x="1008" y="0"/>
      <point x="1068" y="8"/>
      <point x="1108" y="24" type="curve"/>
      <point x="1112" y="32" type="line"/>
      <point x="1112" y="316" type="line" smooth="yes"/>
      <point x="1112" y="356"/>
      <point x="1112" y="440"/>
      <point x="1120" y="476" type="curve"/>
      <point x="1116" y="484" type="line"/>
      <point x="1034" y="509"/>
      <point x="987" y="516"/>
      <point x="928" y="516" type="curve" smooth="yes"/>
      <point x="760" y="516"/>
      <point x="660" y="417"/>
      <point x="660" y="280" type="curve" smooth="yes"/>
      <point x="660" y="186"/>
      <point x="715" y="109"/>
      <point x="789" y="67" type="curve"/>
      <point x="806" y="85" type="line"/>
      <point x="552" y="85" type="line" smooth="yes"/>
      <point x="414" y="85"/>
      <point x="272" y="87"/>
      <point x="176" y="115" type="curve" smooth="yes"/>
      <point x="153" y="122"/>
      <point x="96" y="139"/>
      <point x="74" y="150" type="curve"/>
      <point x="66" y="150" type="line"/>
      <point x="48" y="69" type="line"/>
      <point x="73" y="58"/>
      <point x="108" y="46"/>
      <point x="147" y="35" type="curve" smooth="yes"/>
      <point x="273" y="0"/>
      <point x="418" y="0"/>
    </contour>
    <contour>
      <point x="752" y="287" type="curve" smooth="yes"/>
      <point x="752" y="375"/>
      <point x="817" y="436"/>
      <point x="921" y="436" type="curve" smooth="yes"/>
      <point x="984" y="436"/>
      <point x="1004" y="426"/>
      <point x="1044" y="414" type="curve"/>
      <point x="1028" y="439" type="line"/>
      <point x="1022" y="418"/>
      <point x="1020" y="388"/>
      <point x="1020" y="352" type="curve" smooth="yes"/>
      <point x="1020" y="42" type="line"/>
      <point x="1054" y="86" type="line"/>
      <point x="862" y="75"/>
      <point x="752" y="171"/>
    </contour>
  </outline>
</glyph>
<glyph name="hehDoachashmee-ar" format="2">
  <advance width="872"/>
  <unicode hex="06BE"/>
  <note>
uni06BE
</note>
  <anchor x="530" y="512" name="top"/>
  <outline>
    <contour>
      <point x="330" y="6" type="curve"/>
      <point x="364" y="7" type="line"/>
      <point x="581" y="25"/>
      <point x="706" y="209"/>
      <point x="706" y="336" type="curve" smooth="yes"/>
      <point x="706" y="424"/>
      <point x="647" y="512"/>
      <point x="530" y="512" type="curve" smooth="yes"/>
      <point x="372" y="512"/>
      <point x="253" y="352"/>
      <point x="253" y="204" type="curve" smooth="yes"/>
      <point x="253" y="27"/>
      <point x="368" y="-80"/>
      <point x="553" y="-80" type="curve" smooth="yes"/>
      <point x="645" y="-80"/>
      <point x="729" y="-46"/>
      <point x="777" y="-20" type="curve"/>
      <point x="777" y="592" type="line"/>
      <point x="769" y="592" type="line"/>
      <point x="693" y="584" type="line"/>
      <point x="693" y="-18" type="line"/>
      <point x="713" y="32" type="line"/>
      <point x="677" y="18"/>
      <point x="637" y="5"/>
      <point x="581" y="5" type="curve" smooth="yes"/>
      <point x="433" y="5"/>
      <point x="345" y="71"/>
      <point x="345" y="216" type="curve" smooth="yes"/>
      <point x="345" y="307"/>
      <point x="410" y="418"/>
      <point x="547" y="457" type="curve"/>
      <point x="487" y="453" type="line"/>
      <point x="578" y="440"/>
      <point x="637" y="391"/>
      <point x="637" y="316" type="curve" smooth="yes"/>
      <point x="637" y="206"/>
      <point x="489" y="91"/>
      <point x="343" y="91" type="curve" smooth="yes"/>
      <point x="243" y="91"/>
      <point x="125" y="126"/>
      <point x="74" y="145" type="curve"/>
      <point x="66" y="145" type="line"/>
      <point x="48" y="69" type="line"/>
      <point x="117" y="39"/>
      <point x="228" y="6"/>
    </contour>
  </outline>
</glyph>
<glyph name="yehbarree-ar" format="2">
  <advance width="752"/>
  <unicode hex="06D2"/>
  <note>
uni06D2
</note>
  <anchor x="345" y="0" name="bottom"/>
  <anchor x="164" y="378" name="top"/>
  <outline>
    <contour>
      <point x="11" y="129" type="curve" smooth="yes"/>
      <point x="11" y="49"/>
      <point x="107" y="0"/>
      <point x="212" y="0" type="curve" smooth="yes"/>
      <point x="713" y="0" type="line"/>
      <point x="740" y="77" type="line"/>
      <point x="740" y="85" type="line"/>
      <point x="276" y="85" type="line" smooth="yes"/>
      <point x="160" y="85"/>
      <point x="89" y="90"/>
      <point x="72" y="164" type="curve"/>
      <point x="55" y="144" type="line"/>
      <point x="73" y="122" type="line"/>
      <point x="84" y="181"/>
      <point x="150" y="214"/>
      <point x="221" y="253" type="curve" smooth="yes"/>
      <point x="284" y="288"/>
      <point x="349" y="327"/>
      <point x="379" y="390" type="curve"/>
      <point x="355" y="396" type="line"/>
      <point x="377" y="349"/>
      <point x="390" y="314"/>
      <point x="401" y="275" type="curve"/>
      <point x="409" y="275" type="line"/>
      <point x="478" y="310" type="line"/>
      <point x="463" y="358"/>
      <point x="449" y="399"/>
      <point x="416" y="448" type="curve"/>
      <point x="350" y="437" type="line"/>
      <point x="295" y="382"/>
      <point x="236" y="344"/>
      <point x="184" y="312" type="curve" smooth="yes"/>
      <point x="87" y="253"/>
      <point x="11" y="217"/>
    </contour>
  </outline>
</glyph>
<glyph name="endofayah-ar" format="2">
  <advance width="1160"/>
  <unicode hex="06DD"/>
  <outline>
    <contour>
      <point x="580" y="780" type="curve" smooth="yes"/>
      <point x="871" y="780"/>
      <point x="1090" y="561"/>
      <point x="1090" y="270" type="curve" smooth="yes"/>
      <point x="1090" y="-21"/>
      <point x="871" y="-240"/>
      <point x="580" y="-240" type="curve" smooth="yes"/>
      <point x="289" y="-240"/>
      <point x="70" y="-21"/>
      <point x="70" y="270" type="curve" smooth="yes"/>
      <point x="70" y="561"/>
      <point x="289" y="780"/>
    </contour>
    <contour>
      <point x="580" y="-155" type="curve" smooth="yes"/>
      <point x="819" y="-155"/>
      <point x="998" y="23"/>
      <point x="998" y="260" type="curve" smooth="yes"/>
      <point x="998" y="280" type="line" smooth="yes"/>
      <point x="998" y="517"/>
      <point x="819" y="695"/>
      <point x="580" y="695" type="curve" smooth="yes"/>
      <point x="341" y="695"/>
      <point x="162" y="517"/>
      <point x="162" y="280" type="curve" smooth="yes"/>
      <point x="162" y="260" type="line" smooth="yes"/>
      <point x="162" y="23"/>
      <point x="341" y="-155"/>
    </contour>
    <component base="dot-ar" xOffset="397" yOffset="-191"/>
    <component base="dot-ar" xOffset="395" yOffset="404"/>
  </outline>
</glyph>
<glyph name="Germandbls" format="2">
  <advance width="704"/>
  <unicode hex="1E9E"/>
  <note>
P
</note>
  <outline>
    <contour>
      <point x="408" y="-12" type="curve" smooth="yes"/>
      <point x="544" y="-12"/>
      <point x="648" y="72"/>
      <point x="648" y="204" type="curve" smooth="yes"/>
      <point x="648" y="321"/>
      <point x="582" y="396"/>
      <point x="426" y="400" type="curve"/>
      <point x="426" y="370" type="line"/>
      <point x="556" y="582" type="line" smooth="yes"/>
      <point x="577" y="616"/>
      <point x="600" y="644"/>
      <point x="600" y="676" type="curve" smooth="yes"/>
      <point x="600" y="684"/>
      <point x="598" y="700"/>
      <point x="594" y="710" type="curve"/>
      <point x="582" y="720" type="line"/>
      <point x="150" y="720" type="line"/>
      <point x="150" y="640" type="line"/>
      <point x="530" y="640" type="line"/>
      <point x="512" y="669" type="line"/>
      <point x="326" y="364" type="line"/>
      <point x="342" y="324" type="line"/>
      <point x="414" y="324" type="line" smooth="yes"/>
      <point x="520" y="324"/>
      <point x="556" y="272"/>
      <point x="556" y="204" type="curve" smooth="yes"/>
      <point x="556" y="136"/>
      <point x="520" y="72"/>
      <point x="408" y="72" type="curve" smooth="yes"/>
      <point x="357" y="72"/>
      <point x="329" y="76"/>
      <point x="276" y="98" type="curve"/>
      <point x="268" y="98" type="line"/>
      <point x="268" y="8" type="line"/>
      <point x="316" y="-8"/>
      <point x="358" y="-12"/>
    </contour>
    <contour>
      <point x="96" y="0" type="line"/>
      <point x="192" y="0" type="line"/>
      <point x="192" y="720" type="line"/>
      <point x="96" y="720" type="line"/>
    </contour>
  </outline>
</glyph>
<glyph name="quoteleft" format="2">
  <advance width="280"/>
  <unicode hex="2018"/>
  <note>
quoteleft
</note>
  <outline>
    <contour>
      <point x="140" y="444" type="curve" smooth="yes"/>
      <point x="176" y="444"/>
      <point x="204" y="468"/>
      <point x="204" y="512" type="curve" smooth="yes"/>
      <point x="204" y="548"/>
      <point x="180" y="568"/>
      <point x="162" y="576" type="curve"/>
      <point x="232" y="712" type="line"/>
      <point x="232" y="720" type="line"/>
      <point x="156" y="720" type="line"/>
      <point x="96" y="588" type="line" smooth="yes"/>
      <point x="88" y="570"/>
      <point x="76" y="544"/>
      <point x="76" y="512" type="curve" smooth="yes"/>
      <point x="76" y="464"/>
      <point x="104" y="444"/>
    </contour>
  </outline>
</glyph>
<glyph name="quoteright" format="2">
  <advance width="280"/>
  <unicode hex="2019"/>
  <note>
quoteright
</note>
  <outline>
    <contour>
      <point x="118" y="596" type="curve"/>
      <point x="48" y="460" type="line"/>
      <point x="48" y="452" type="line"/>
      <point x="124" y="452" type="line"/>
      <point x="184" y="584" type="line" smooth="yes"/>
      <point x="192" y="602"/>
      <point x="204" y="628"/>
      <point x="204" y="660" type="curve" smooth="yes"/>
      <point x="204" y="708"/>
      <point x="176" y="728"/>
      <point x="140" y="728" type="curve" smooth="yes"/>
      <point x="104" y="728"/>
      <point x="76" y="704"/>
      <point x="76" y="660" type="curve" smooth="yes"/>
      <point x="76" y="624"/>
      <point x="100" y="604"/>
    </contour>
  </outline>
</glyph>
<glyph name="quotedblleft" format="2">
  <advance width="484"/>
  <unicode hex="201C"/>
  <note>
quotedblleft
</note>
  <outline>
    <contour>
      <point x="344" y="444" type="curve" smooth="yes"/>
      <point x="380" y="444"/>
      <point x="408" y="468"/>
      <point x="408" y="512" type="curve" smooth="yes"/>
      <point x="408" y="548"/>
      <point x="384" y="568"/>
      <point x="366" y="576" type="curve"/>
      <point x="436" y="712" type="line"/>
      <point x="436" y="720" type="line"/>
      <point x="360" y="720" type="line"/>
      <point x="300" y="588" type="line" smooth="yes"/>
      <point x="292" y="570"/>
      <point x="280" y="544"/>
      <point x="280" y="512" type="curve" smooth="yes"/>
      <point x="280" y="464"/>
      <point x="308" y="444"/>
    </contour>
    <contour>
      <point x="140" y="444" type="curve" smooth="yes"/>
      <point x="176" y="444"/>
      <point x="204" y="468"/>
      <point x="204" y="512" type="curve" smooth="yes"/>
      <point x="204" y="548"/>
      <point x="180" y="568"/>
      <point x="162" y="576" type="curve"/>
      <point x="232" y="712" type="line"/>
      <point x="232" y="720" type="line"/>
      <point x="156" y="720" type="line"/>
      <point x="96" y="588" type="line" smooth="yes"/>
      <point x="88" y="570"/>
      <point x="76" y="544"/>
      <point x="76" y="512" type="curve" smooth="yes"/>
      <point x="76" y="464"/>
      <point x="104" y="444"/>
    </contour>
  </outline>
</glyph>
<glyph name="quotedblright" format="2">
  <advance width="484"/>
  <unicode hex="201D"/>
  <note>
quotedblright
</note>
  <outline>
    <contour>
      <point x="118" y="596" type="curve"/>
      <point x="48" y="460" type="line"/>
      <point x="48" y="452" type="line"/>
      <point x="124" y="452" type="line"/>
      <point x="184" y="584" type="line" smooth="yes"/>
      <point x="192" y="602"/>
      <point x="204" y="628"/>
      <point x="204" y="660" type="curve" smooth="yes"/>
      <point x="204" y="708"/>
      <point x="176" y="728"/>
      <point x="140" y="728" type="curve" smooth="yes"/>
      <point x="104" y="728"/>
      <point x="76" y="704"/>
      <point x="76" y="660" type="curve" smooth="yes"/>
      <point x="76" y="624"/>
      <point x="100" y="604"/>
    </contour>
    <contour>
      <point x="322" y="596" type="curve"/>
      <point x="252" y="460" type="line"/>
      <point x="252" y="452" type="line"/>
      <point x="328" y="452" type="line"/>
      <point x="388" y="584" type="line" smooth="yes"/>
      <point x="396" y="602"/>
      <point x="408" y="628"/>
      <point x="408" y="660" type="curve" smooth="yes"/>
      <point x="408" y="708"/>
      <point x="380" y="728"/>
      <point x="344" y="728" type="curve" smooth="yes"/>
      <point x="308" y="728"/>
      <point x="280" y="704"/>
      <point x="280" y="660" type="curve" smooth="yes"/>
      <point x="280" y="624"/>
      <point x="304" y="604"/>
    </contour>
  </outline>
</glyph>
<glyph name="dagger" format="2">
  <advance width="544"/>
  <unicode hex="2020"/>
  <note>
dagger
</note>
  <outline>
    <contour>
      <point x="24" y="382" type="line"/>
      <point x="520" y="382" type="line"/>
      <point x="520" y="460" type="line"/>
      <point x="24" y="460" type="line"/>
    </contour>
    <contour>
      <point x="228" y="-248" type="line"/>
      <point x="316" y="-248" type="line"/>
      <point x="316" y="720" type="line"/>
      <point x="228" y="720" type="line"/>
    </contour>
  </outline>
</glyph>
<glyph name="daggerdbl" format="2">
  <advance width="544"/>
  <unicode hex="2021"/>
  <note>
daggerdbl
</note>
  <outline>
    <contour>
      <point x="24" y="382" type="line"/>
      <point x="520" y="382" type="line"/>
      <point x="520" y="460" type="line"/>
      <point x="24" y="460" type="line"/>
    </contour>
    <contour>
      <point x="228" y="-248" type="line"/>
      <point x="316" y="-248" type="line"/>
      <point x="316" y="720" type="line"/>
      <point x="228" y="720" type="line"/>
    </contour>
    <contour>
      <point x="24" y="0" type="line"/>
      <point x="520" y="0" type="line"/>
      <point x="520" y="78" type="line"/>
      <point x="24" y="78" type="line"/>
    </contour>
  </outline>
</glyph>
<glyph name="bullet" format="2">
  <advance width="480"/>
  <unicode hex="2022"/>
  <note>
bullet
</note>
  <outline>
    <contour>
      <point x="240" y="200" type="curve" smooth="yes"/>
      <point x="328" y="200"/>
      <point x="404" y="264"/>
      <point x="404" y="364" type="curve" smooth="yes"/>
      <point x="404" y="464"/>
      <point x="328" y="528"/>
      <point x="240" y="528" type="curve" smooth="yes"/>
      <point x="152" y="528"/>
      <point x="76" y="464"/>
      <point x="76" y="364" type="curve" smooth="yes"/>
      <point x="76" y="264"/>
      <point x="152" y="200"/>
    </contour>
  </outline>
</glyph>
<glyph name="minute" format="2">
  <advance width="180"/>
  <unicode hex="2032"/>
  <outline>
    <contour>
      <point x="48" y="720" type="line"/>
      <point x="52" y="484" type="line"/>
      <point x="128" y="484" type="line"/>
      <point x="132" y="720" type="line"/>
    </contour>
  </outline>
</glyph>
<glyph name="guilsinglleft" format="2">
  <advance width="344"/>
  <unicode hex="2039"/>
  <note>
guilsinglleft
</note>
  <outline>
    <contour>
      <point x="276" y="72" type="line"/>
      <point x="284" y="72" type="line"/>
      <point x="284" y="168" type="line"/>
      <point x="128" y="308" type="line"/>
      <point x="284" y="448" type="line"/>
      <point x="284" y="544" type="line"/>
      <point x="276" y="544" type="line"/>
      <point x="36" y="324" type="line"/>
      <point x="36" y="292" type="line"/>
    </contour>
  </outline>
</glyph>
<glyph name="guilsinglright" format="2">
  <advance width="344"/>
  <unicode hex="203A"/>
  <note>
guilsinglright
</note>
  <outline>
    <contour>
      <point x="60" y="168" type="line"/>
      <point x="60" y="72" type="line"/>
      <point x="68" y="72" type="line"/>
      <point x="308" y="292" type="line"/>
      <point x="308" y="324" type="line"/>
      <point x="68" y="544" type="line"/>
      <point x="60" y="544" type="line"/>
      <point x="60" y="448" type="line"/>
      <point x="216" y="308" type="line"/>
    </contour>
  </outline>
</glyph>
<glyph name="fraction" format="2">
  <advance width="160"/>
  <unicode hex="2044"/>
  <note>
fraction
</note>
  <outline>
    <contour>
      <point x="-196" y="0" type="line"/>
      <point x="-108" y="0" type="line"/>
      <point x="356" y="720" type="line"/>
      <point x="268" y="720" type="line"/>
    </contour>
  </outline>
</glyph>
<glyph name="oneinferior" format="2">
  <advance width="397"/>
  <unicode hex="2081"/>
  <note>
uni2081
</note>
  <outline>
    <contour>
      <point x="48" y="-91" type="line"/>
      <point x="48" y="-160" type="line"/>
      <point x="352" y="-160" type="line"/>
      <point x="352" y="-91" type="line"/>
      <point x="249" y="-91" type="line"/>
      <point x="249" y="142" type="line" smooth="yes"/>
      <point x="249" y="164"/>
      <point x="248" y="211"/>
      <point x="252" y="231" type="curve"/>
      <point x="252" y="237" type="line"/>
      <point x="239" y="240"/>
      <point x="214" y="243"/>
      <point x="178" y="243" type="curve" smooth="yes"/>
      <point x="127" y="243"/>
      <point x="79" y="240"/>
      <point x="60" y="235" type="curve"/>
      <point x="60" y="174" type="line"/>
      <point x="166" y="174" type="line"/>
      <point x="165" y="165"/>
      <point x="165" y="140"/>
      <point x="165" y="126" type="curve" smooth="yes"/>
      <point x="165" y="-91" type="line"/>
    </contour>
  </outline>
</glyph>
<glyph name="fourinferior" format="2">
  <advance width="398"/>
  <unicode hex="2084"/>
  <note>
uni2084
</note>
  <outline>
    <contour>
      <point x="239" y="-160" type="line"/>
      <point x="322" y="-160" type="line"/>
      <point x="322" y="-63" type="line"/>
      <point x="379" y="-63" type="line"/>
      <point x="379" y="5" type="line"/>
      <point x="322" y="5" type="line"/>
      <point x="322" y="140" type="line" smooth="yes"/>
      <point x="322" y="162"/>
      <point x="321" y="210"/>
      <point x="324" y="232" type="curve"/>
      <point x="324" y="237" type="line"/>
      <point x="306" y="242"/>
      <point x="280" y="245"/>
      <point x="253" y="245" type="curve" smooth="yes"/>
      <point x="153" y="245"/>
      <point x="103" y="205"/>
      <point x="69" y="105" type="curve" smooth="yes"/>
      <point x="32" y="-3" type="line"/>
      <point x="32" y="-63" type="line"/>
      <point x="239" y="-63" type="line"/>
    </contour>
    <contour>
      <point x="114" y="5" type="line"/>
      <point x="146" y="99" type="line" smooth="yes"/>
      <point x="165" y="153"/>
      <point x="184" y="178"/>
      <point x="234" y="178" type="curve" smooth="yes"/>
      <point x="241" y="178" type="line"/>
      <point x="239" y="168"/>
      <point x="239" y="157"/>
      <point x="239" y="146" type="curve" smooth="yes"/>
      <point x="239" y="5" type="line"/>
    </contour>
  </outline>
</glyph>
<glyph name="fiveinferior" format="2">
  <advance width="397"/>
  <unicode hex="2085"/>
  <note>
uni2085
</note>
  <outline>
    <contour>
      <point x="165" y="-168" type="curve" smooth="yes"/>
      <point x="281" y="-168"/>
      <point x="347" y="-116"/>
      <point x="347" y="-36" type="curve" smooth="yes"/>
      <point x="347" y="41"/>
      <point x="294" y="85"/>
      <point x="190" y="85" type="curve" smooth="yes"/>
      <point x="174" y="85"/>
      <point x="157" y="83"/>
      <point x="142" y="81" type="curve"/>
      <point x="142" y="142" type="line" smooth="yes"/>
      <point x="142" y="152"/>
      <point x="141" y="163"/>
      <point x="140" y="173" type="curve"/>
      <point x="327" y="173" type="line"/>
      <point x="327" y="240" type="line"/>
      <point x="147" y="240" type="line" smooth="yes"/>
      <point x="105" y="240"/>
      <point x="79" y="239"/>
      <point x="61" y="235" type="curve"/>
      <point x="61" y="229" type="line"/>
      <point x="65" y="209"/>
      <point x="66" y="159"/>
      <point x="66" y="137" type="curve" smooth="yes"/>
      <point x="66" y="14" type="line"/>
      <point x="69" y="13" type="line"/>
      <point x="91" y="17"/>
      <point x="122" y="26"/>
      <point x="170" y="26" type="curve" smooth="yes"/>
      <point x="237" y="26"/>
      <point x="264" y="4"/>
      <point x="264" y="-36" type="curve" smooth="yes"/>
      <point x="264" y="-71"/>
      <point x="240" y="-101"/>
      <point x="163" y="-101" type="curve" smooth="yes"/>
      <point x="114" y="-101"/>
      <point x="75" y="-88"/>
      <point x="56" y="-76" type="curve"/>
      <point x="48" y="-76" type="line"/>
      <point x="48" y="-147" type="line"/>
      <point x="72" y="-158"/>
      <point x="116" y="-168"/>
    </contour>
  </outline>
</glyph>
<glyph name="seveninferior" format="2">
  <advance width="397"/>
  <unicode hex="2087"/>
  <note>
uni2087
</note>
  <outline>
    <contour>
      <point x="54" y="240" type="line"/>
      <point x="54" y="171" type="line"/>
      <point x="270" y="171" type="line"/>
      <point x="98" y="-156" type="line"/>
      <point x="98" y="-160" type="line"/>
      <point x="184" y="-160" type="line"/>
      <point x="333" y="148" type="line" smooth="yes"/>
      <point x="343" y="168"/>
      <point x="350" y="190"/>
      <point x="350" y="211" type="curve" smooth="yes"/>
      <point x="350" y="218"/>
      <point x="348" y="227"/>
      <point x="348" y="234" type="curve"/>
      <point x="341" y="240" type="line"/>
    </contour>
  </outline>
</glyph>
<glyph name="nineinferior" format="2">
  <advance width="397"/>
  <unicode hex="2089"/>
  <note>
uni2089
</note>
  <outline>
    <contour>
      <point x="73" y="-90" type="line"/>
      <point x="73" y="-158" type="line"/>
      <point x="92" y="-164"/>
      <point x="117" y="-168"/>
      <point x="148" y="-168" type="curve" smooth="yes"/>
      <point x="296" y="-168"/>
      <point x="357" y="-75"/>
      <point x="357" y="50" type="curve" smooth="yes"/>
      <point x="357" y="163"/>
      <point x="318" y="248"/>
      <point x="193" y="248" type="curve" smooth="yes"/>
      <point x="96" y="248"/>
      <point x="38" y="193"/>
      <point x="38" y="109" type="curve" smooth="yes"/>
      <point x="38" y="30"/>
      <point x="89" y="-18"/>
      <point x="176" y="-18" type="curve" smooth="yes"/>
      <point x="225" y="-18"/>
      <point x="254" y="-4"/>
      <point x="273" y="10" type="curve"/>
      <point x="266" y="-56"/>
      <point x="235" y="-101"/>
      <point x="151" y="-101" type="curve" smooth="yes"/>
      <point x="121" y="-101"/>
      <point x="97" y="-96"/>
      <point x="81" y="-90" type="curve"/>
    </contour>
    <contour>
      <point x="191" y="186" type="curve" smooth="yes"/>
      <point x="250" y="186"/>
      <point x="271" y="147"/>
      <point x="274" y="72" type="curve"/>
      <point x="256" y="54"/>
      <point x="231" y="41"/>
      <point x="194" y="41" type="curve" smooth="yes"/>
      <point x="141" y="41"/>
      <point x="117" y="70"/>
      <point x="117" y="113" type="curve" smooth="yes"/>
      <point x="117" y="153"/>
      <point x="138" y="186"/>
    </contour>
  </outline>
</glyph>
<glyph name="colonsign" format="2">
  <advance width="616"/>
  <unicode hex="20A1"/>
  <outline>
    <contour>
      <point x="420" y="-12" type="curve" smooth="yes"/>
      <point x="468" y="-12"/>
      <point x="520" y="-8"/>
      <point x="556" y="8" type="curve"/>
      <point x="556" y="96" type="line"/>
      <point x="552" y="96" type="line"/>
      <point x="516" y="80"/>
      <point x="480" y="72"/>
      <point x="416" y="72" type="curve" smooth="yes"/>
      <point x="244" y="72"/>
      <point x="176" y="180"/>
      <point x="176" y="360" type="curve" smooth="yes"/>
      <point x="176" y="540"/>
      <point x="244" y="648"/>
      <point x="416" y="648" type="curve" smooth="yes"/>
      <point x="480" y="648"/>
      <point x="516" y="640"/>
      <point x="552" y="624" type="curve"/>
      <point x="556" y="624" type="line"/>
      <point x="556" y="712" type="line"/>
      <point x="520" y="728"/>
      <point x="468" y="732"/>
      <point x="420" y="732" type="curve" smooth="yes"/>
      <point x="180" y="732"/>
      <point x="80" y="584"/>
      <point x="80" y="360" type="curve" smooth="yes"/>
      <point x="80" y="136"/>
      <point x="180" y="-12"/>
    </contour>
    <contour>
      <point x="326" y="800" type="line"/>
      <point x="178" y="-84" type="line"/>
      <point x="254" y="-84" type="line"/>
      <point x="402" y="800" type="line"/>
    </contour>
    <contour>
      <point x="456" y="800" type="line"/>
      <point x="308" y="-84" type="line"/>
      <point x="384" y="-84" type="line"/>
      <point x="532" y="800" type="line"/>
    </contour>
  </outline>
</glyph>
<glyph name="lira" format="2">
  <advance width="616"/>
  <unicode hex="20A4"/>
  <outline>
    <contour>
      <point x="188" y="36" type="line"/>
      <point x="280" y="36" type="line"/>
      <point x="280" y="472" type="line" smooth="yes"/>
      <point x="280" y="584"/>
      <point x="328" y="652"/>
      <point x="436" y="652" type="curve" smooth="yes"/>
      <point x="488" y="652"/>
      <point x="520" y="642"/>
      <point x="548" y="630" type="curve"/>
      <point x="552" y="630" type="line"/>
      <point x="552" y="712" type="line"/>
      <point x="520" y="724"/>
      <point x="488" y="732"/>
      <point x="436" y="732" type="curve" smooth="yes"/>
      <point x="268" y="732"/>
      <point x="188" y="612"/>
      <point x="188" y="472" type="curve" smooth="yes"/>
    </contour>
    <contour>
      <point x="52" y="0" type="line"/>
      <point x="556" y="0" type="line"/>
      <point x="556" y="78" type="line"/>
      <point x="52" y="78" type="line"/>
    </contour>
    <contour>
      <point x="60" y="360" type="line"/>
      <point x="468" y="360" type="line"/>
      <point x="468" y="440" type="line"/>
      <point x="60" y="440" type="line"/>
    </contour>
    <contour>
      <point x="60" y="200" type="line"/>
      <point x="468" y="200" type="line"/>
      <point x="468" y="280" type="line"/>
      <point x="60" y="280" type="line"/>
    </contour>
  </outline>
</glyph>
<glyph name="peseta" format="2">
  <advance width="1114"/>
  <unicode hex="20A7"/>
  <outline>
    <contour>
      <point x="152" y="240" type="line"/>
      <point x="248" y="240" type="line" smooth="yes"/>
      <point x="440" y="240"/>
      <point x="520" y="380"/>
      <point x="520" y="512" type="curve" smooth="yes"/>
      <point x="520" y="652"/>
      <point x="428" y="720"/>
      <point x="292" y="720" type="curve" smooth="yes"/>
      <point x="152" y="720" type="line"/>
      <point x="152" y="636" type="line"/>
      <point x="288" y="636" type="line" smooth="yes"/>
      <point x="368" y="636"/>
      <point x="420" y="604"/>
      <point x="420" y="512" type="curve" smooth="yes"/>
      <point x="420" y="408"/>
      <point x="368" y="324"/>
      <point x="248" y="324" type="curve" smooth="yes"/>
      <point x="152" y="324" type="line"/>
    </contour>
    <contour>
      <point x="96" y="0" type="line"/>
      <point x="192" y="0" type="line"/>
      <point x="192" y="720" type="line"/>
      <point x="96" y="720" type="line"/>
    </contour>
    <contour>
      <point x="716" y="-6" type="curve" smooth="yes"/>
      <point x="735" y="-6"/>
      <point x="758" y="-1"/>
      <point x="775" y="7" type="curve"/>
      <point x="775" y="76" type="line"/>
      <point x="768" y="76" type="line"/>
      <point x="754" y="69"/>
      <point x="735" y="65"/>
      <point x="723" y="65" type="curve" smooth="yes"/>
      <point x="672" y="65"/>
      <point x="650" y="86"/>
      <point x="650" y="139" type="curve" smooth="yes"/>
      <point x="650" y="328" type="line"/>
      <point x="760" y="328" type="line"/>
      <point x="760" y="398" type="line"/>
      <point x="650" y="398" type="line"/>
      <point x="650" y="503" type="line"/>
      <point x="565" y="503" type="line"/>
      <point x="565" y="398" type="line"/>
      <point x="443" y="398" type="line"/>
      <point x="443" y="328" type="line"/>
      <point x="565" y="328" type="line"/>
      <point x="565" y="132" type="line" smooth="yes"/>
      <point x="565" y="43"/>
      <point x="612" y="-6"/>
    </contour>
    <contour>
      <point x="910" y="-5" type="curve" smooth="yes"/>
      <point x="1020" y="-5"/>
      <point x="1078" y="35"/>
      <point x="1078" y="117" type="curve" smooth="yes"/>
      <point x="1078" y="187"/>
      <point x="1019" y="216"/>
      <point x="964" y="228" type="curve" smooth="yes"/>
      <point x="933" y="235" type="line" smooth="yes"/>
      <point x="898" y="243"/>
      <point x="872" y="252"/>
      <point x="872" y="282" type="curve" smooth="yes"/>
      <point x="872" y="320"/>
      <point x="909" y="336"/>
      <point x="957" y="336" type="curve" smooth="yes"/>
      <point x="982" y="336"/>
      <point x="1012" y="330"/>
      <point x="1046" y="317" type="curve"/>
      <point x="1052" y="317" type="line"/>
      <point x="1052" y="388" type="line"/>
      <point x="1025" y="398"/>
      <point x="988" y="404"/>
      <point x="960" y="404" type="curve" smooth="yes"/>
      <point x="841" y="404"/>
      <point x="791" y="347"/>
      <point x="791" y="279" type="curve" smooth="yes"/>
      <point x="791" y="215"/>
      <point x="835" y="187"/>
      <point x="904" y="171" type="curve" smooth="yes"/>
      <point x="935" y="164" type="line" smooth="yes"/>
      <point x="971" y="156"/>
      <point x="997" y="147"/>
      <point x="997" y="116" type="curve" smooth="yes"/>
      <point x="997" y="63"/>
      <point x="932" y="63"/>
      <point x="914" y="63" type="curve" smooth="yes"/>
      <point x="881" y="63"/>
      <point x="832" y="71"/>
      <point x="797" y="87" type="curve"/>
      <point x="792" y="87" type="line"/>
      <point x="792" y="12" type="line"/>
      <point x="828" y="0"/>
      <point x="873" y="-5"/>
    </contour>
  </outline>
</glyph>
<glyph name="won" format="2">
  <advance width="984"/>
  <unicode hex="20A9"/>
  <outline>
    <contour>
      <point x="630" y="-12" type="curve" smooth="yes"/>
      <point x="766" y="-12"/>
      <point x="820" y="77"/>
      <point x="852" y="236" type="curve" smooth="yes"/>
      <point x="948" y="720" type="line"/>
      <point x="850" y="720" type="line"/>
      <point x="754" y="232" type="line" smooth="yes"/>
      <point x="735" y="134"/>
      <point x="702" y="72"/>
      <point x="634" y="72" type="curve" smooth="yes"/>
      <point x="598" y="72"/>
      <point x="582" y="75"/>
      <point x="558" y="85" type="curve"/>
      <point x="584" y="50" type="line"/>
      <point x="584" y="87"/>
      <point x="583" y="145"/>
      <point x="580" y="176" type="curve" smooth="yes"/>
      <point x="522" y="720" type="line"/>
      <point x="424" y="720" type="line"/>
      <point x="486" y="176" type="line" smooth="yes"/>
      <point x="491" y="136"/>
      <point x="494" y="56"/>
      <point x="492" y="16" type="curve"/>
      <point x="494" y="4" type="line"/>
      <point x="546" y="-8"/>
      <point x="582" y="-12"/>
    </contour>
    <contour>
      <point x="262" y="-12" type="curve" smooth="yes"/>
      <point x="398" y="-12"/>
      <point x="442" y="77"/>
      <point x="476" y="236" type="curve" smooth="yes"/>
      <point x="494" y="320" type="line"/>
      <point x="468" y="584" type="line"/>
      <point x="394" y="232" type="line" smooth="yes"/>
      <point x="374" y="135"/>
      <point x="342" y="72"/>
      <point x="266" y="72" type="curve" smooth="yes"/>
      <point x="230" y="72"/>
      <point x="219" y="77"/>
      <point x="195" y="82" type="curve"/>
      <point x="216" y="53" type="line"/>
      <point x="216" y="90"/>
      <point x="216" y="145"/>
      <point x="212" y="176" type="curve" smooth="yes"/>
      <point x="154" y="720" type="line"/>
      <point x="56" y="720" type="line"/>
      <point x="118" y="176" type="line" smooth="yes"/>
      <point x="123" y="136"/>
      <point x="126" y="56"/>
      <point x="124" y="16" type="curve"/>
      <point x="126" y="4" type="line"/>
      <point x="178" y="-8"/>
      <point x="214" y="-12"/>
    </contour>
    <contour>
      <point x="12" y="400" type="line"/>
      <point x="972" y="400" type="line"/>
      <point x="972" y="480" type="line"/>
      <point x="12" y="480" type="line"/>
    </contour>
    <contour>
      <point x="12" y="228" type="line"/>
      <point x="972" y="228" type="line"/>
      <point x="972" y="308" type="line"/>
      <point x="12" y="308" type="line"/>
    </contour>
  </outline>
</glyph>
<glyph name="dong" format="2">
  <advance width="618"/>
  <unicode hex="20AB"/>
  <outline>
    <contour>
      <point x="596" y="756" type="line"/>
      <point x="300" y="756" type="line"/>
      <point x="300" y="684" type="line"/>
      <point x="596" y="684" type="line"/>
    </contour>
    <contour>
      <point x="348" y="136" type="curve" smooth="yes"/>
      <point x="408" y="136"/>
      <point x="472" y="148"/>
      <point x="528" y="170" type="curve"/>
      <point x="530" y="178" type="line"/>
      <point x="522" y="214"/>
      <point x="522" y="302"/>
      <point x="522" y="342" type="curve" smooth="yes"/>
      <point x="522" y="826" type="line"/>
      <point x="424" y="826" type="line"/>
      <point x="422" y="818" type="line"/>
      <point x="430" y="782"/>
      <point x="430" y="712"/>
      <point x="430" y="684" type="curve" smooth="yes"/>
      <point x="430" y="588" type="line"/>
      <point x="447" y="610" type="line"/>
      <point x="424" y="620"/>
      <point x="386" y="628"/>
      <point x="344" y="628" type="curve" smooth="yes"/>
      <point x="204" y="628"/>
      <point x="96" y="524"/>
      <point x="96" y="386" type="curve" smooth="yes"/>
      <point x="96" y="232"/>
      <point x="196" y="136"/>
    </contour>
    <contour>
      <point x="438" y="205" type="curve"/>
      <point x="454" y="233" type="line"/>
      <point x="424" y="220"/>
      <point x="387" y="216"/>
      <point x="356" y="216" type="curve" smooth="yes"/>
      <point x="258" y="216"/>
      <point x="190" y="280"/>
      <point x="190" y="386" type="curve" smooth="yes"/>
      <point x="190" y="488"/>
      <point x="252" y="548"/>
      <point x="350" y="548" type="curve" smooth="yes"/>
      <point x="395" y="548"/>
      <point x="428" y="536"/>
      <point x="443" y="530" type="curve"/>
      <point x="430" y="568" type="line"/>
      <point x="430" y="294" type="line" smooth="yes"/>
      <point x="430" y="260"/>
      <point x="432" y="228"/>
    </contour>
    <contour>
      <point x="530" y="80" type="line"/>
      <point x="118" y="80" type="line"/>
      <point x="118" y="0" type="line"/>
      <point x="530" y="0" type="line"/>
    </contour>
  </outline>
</glyph>
<glyph name="euro" format="2">
  <advance width="616"/>
  <unicode hex="20AC"/>
  <note>
Euro
</note>
  <outline>
    <contour>
      <point x="432" y="-12" type="curve" smooth="yes"/>
      <point x="460" y="-12"/>
      <point x="512" y="-8"/>
      <point x="548" y="8" type="curve"/>
      <point x="548" y="100" type="line"/>
      <point x="544" y="100" type="line"/>
      <point x="508" y="80"/>
      <point x="472" y="72"/>
      <point x="428" y="72" type="curve" smooth="yes"/>
      <point x="284" y="72"/>
      <point x="216" y="180"/>
      <point x="216" y="360" type="curve" smooth="yes"/>
      <point x="216" y="540"/>
      <point x="284" y="648"/>
      <point x="428" y="648" type="curve" smooth="yes"/>
      <point x="472" y="648"/>
      <point x="508" y="640"/>
      <point x="544" y="620" type="curve"/>
      <point x="548" y="620" type="line"/>
      <point x="548" y="712" type="line"/>
      <point x="512" y="728"/>
      <point x="460" y="732"/>
      <point x="432" y="732" type="curve" smooth="yes"/>
      <point x="220" y="732"/>
      <point x="120" y="584"/>
      <point x="120" y="360" type="curve" smooth="yes"/>
      <point x="120" y="136"/>
      <point x="220" y="-12"/>
    </contour>
    <contour>
      <point x="20" y="220" type="line"/>
      <point x="412" y="220" type="line"/>
      <point x="412" y="304" type="line"/>
      <point x="20" y="304" type="line"/>
    </contour>
    <contour>
      <point x="20" y="416" type="line"/>
      <point x="412" y="416" type="line"/>
      <point x="412" y="500" type="line"/>
      <point x="20" y="500" type="line"/>
    </contour>
  </outline>
</glyph>
<glyph name="peso" format="2">
  <advance width="626"/>
  <unicode hex="20B1"/>
  <outline>
    <contour>
      <point x="152" y="240" type="line"/>
      <point x="280" y="240" type="line" smooth="yes"/>
      <point x="472" y="240"/>
      <point x="552" y="380"/>
      <point x="552" y="512" type="curve" smooth="yes"/>
      <point x="552" y="652"/>
      <point x="460" y="720"/>
      <point x="324" y="720" type="curve" smooth="yes"/>
      <point x="152" y="720" type="line"/>
      <point x="152" y="636" type="line"/>
      <point x="320" y="636" type="line" smooth="yes"/>
      <point x="400" y="636"/>
      <point x="452" y="604"/>
      <point x="452" y="512" type="curve" smooth="yes"/>
      <point x="452" y="408"/>
      <point x="400" y="324"/>
      <point x="280" y="324" type="curve" smooth="yes"/>
      <point x="152" y="324" type="line"/>
    </contour>
    <contour>
      <point x="96" y="0" type="line"/>
      <point x="192" y="0" type="line"/>
      <point x="192" y="720" type="line"/>
      <point x="96" y="720" type="line"/>
    </contour>
    <contour>
      <point x="12" y="372" type="line"/>
      <point x="614" y="372" type="line"/>
      <point x="614" y="452" type="line"/>
      <point x="12" y="452" type="line"/>
    </contour>
    <contour>
      <point x="12" y="512" type="line"/>
      <point x="614" y="512" type="line"/>
      <point x="614" y="592" type="line"/>
      <point x="12" y="592" type="line"/>
    </contour>
  </outline>
</glyph>
<glyph name="guarani" format="2">
  <advance width="684"/>
  <unicode hex="20B2"/>
  <outline>
    <contour>
      <point x="328" y="800" type="line"/>
      <point x="328" y="-112" type="line"/>
      <point x="412" y="-112" type="line"/>
      <point x="412" y="800" type="line"/>
    </contour>
    <contour>
      <point x="56" y="360" type="curve" smooth="yes"/>
      <point x="56" y="136"/>
      <point x="176" y="-12"/>
      <point x="420" y="-12" type="curve" smooth="yes"/>
      <point x="492" y="-12"/>
      <point x="560" y="4"/>
      <point x="604" y="28" type="curve"/>
      <point x="604" y="364" type="line"/>
      <point x="508" y="364" type="line"/>
      <point x="508" y="46" type="line"/>
      <point x="530" y="90" type="line"/>
      <point x="498" y="80"/>
      <point x="460" y="72"/>
      <point x="420" y="72" type="curve" smooth="yes"/>
      <point x="256" y="72"/>
      <point x="156" y="160"/>
      <point x="156" y="360" type="curve" smooth="yes"/>
      <point x="156" y="556"/>
      <point x="260" y="644"/>
      <point x="428" y="644" type="curve" smooth="yes"/>
      <point x="496" y="644"/>
      <point x="552" y="626"/>
      <point x="588" y="608" type="curve"/>
      <point x="596" y="608" type="line"/>
      <point x="596" y="700" type="line"/>
      <point x="556" y="720"/>
      <point x="500" y="732"/>
      <point x="428" y="732" type="curve" smooth="yes"/>
      <point x="192" y="732"/>
      <point x="56" y="584"/>
    </contour>
  </outline>
</glyph>
<glyph name="cedi" format="2">
  <advance width="648"/>
  <unicode hex="20B5"/>
  <anchor x="384" y="0" name="bottom"/>
  <anchor x="384" y="720" name="top"/>
  <outline>
    <contour>
      <point x="340" y="800" type="line"/>
      <point x="340" y="-112" type="line"/>
      <point x="424" y="-112" type="line"/>
      <point x="424" y="800" type="line"/>
    </contour>
    <component base="C"/>
  </outline>
</glyph>
<glyph name="liraTurkish" format="2">
  <advance width="632"/>
  <unicode hex="20BA"/>
  <outline>
    <contour>
      <point x="292" y="-12" type="curve" smooth="yes"/>
      <point x="469" y="-12"/>
      <point x="534" y="74"/>
      <point x="553" y="218" type="curve" smooth="yes"/>
      <point x="564" y="300" type="line"/>
      <point x="564" y="308" type="line"/>
      <point x="470" y="308" type="line"/>
      <point x="459" y="214" type="line" smooth="yes"/>
      <point x="447" y="112"/>
      <point x="403" y="72"/>
      <point x="296" y="72" type="curve" smooth="yes"/>
      <point x="254" y="72"/>
      <point x="233" y="74"/>
      <point x="214" y="79" type="curve"/>
      <point x="233" y="54" type="line"/>
      <point x="234" y="73"/>
      <point x="236" y="98"/>
      <point x="236" y="124" type="curve" smooth="yes"/>
      <point x="236" y="720" type="line"/>
      <point x="140" y="720" type="line"/>
      <point x="140" y="176" type="line" smooth="yes"/>
      <point x="140" y="136"/>
      <point x="140" y="56"/>
      <point x="134" y="16" type="curve"/>
      <point x="136" y="4" type="line"/>
      <point x="188" y="-8"/>
      <point x="232" y="-12"/>
    </contour>
    <contour>
      <point x="12" y="240" type="line"/>
      <point x="20" y="240" type="line"/>
      <point x="412" y="388" type="line"/>
      <point x="412" y="476" type="line"/>
      <point x="404" y="476" type="line"/>
      <point x="12" y="328" type="line"/>
    </contour>
    <contour>
      <point x="12" y="400" type="line"/>
      <point x="20" y="400" type="line"/>
      <point x="412" y="548" type="line"/>
      <point x="412" y="636" type="line"/>
      <point x="404" y="636" type="line"/>
      <point x="12" y="488" type="line"/>
    </contour>
  </outline>
</glyph>
<glyph name="manat" format="2">
  <advance width="656"/>
  <unicode hex="20BC"/>
  <outline>
    <contour>
      <point x="60" y="0" type="line"/>
      <point x="156" y="0" type="line"/>
      <point x="156" y="260" type="line" smooth="yes"/>
      <point x="156" y="468"/>
      <point x="192" y="568"/>
      <point x="328" y="568" type="curve" smooth="yes"/>
      <point x="464" y="568"/>
      <point x="500" y="468"/>
      <point x="500" y="260" type="curve" smooth="yes"/>
      <point x="500" y="0" type="line"/>
      <point x="596" y="0" type="line"/>
      <point x="596" y="260" type="line" smooth="yes"/>
      <point x="596" y="516"/>
      <point x="520" y="652"/>
      <point x="328" y="652" type="curve" smooth="yes"/>
      <point x="136" y="652"/>
      <point x="60" y="516"/>
      <point x="60" y="260" type="curve" smooth="yes"/>
    </contour>
    <contour>
      <point x="288" y="102" type="line"/>
      <point x="372" y="102" type="line"/>
      <point x="372" y="732" type="line"/>
      <point x="288" y="732" type="line"/>
    </contour>
  </outline>
</glyph>
<glyph name="ruble" format="2">
  <advance width="596"/>
  <unicode hex="20BD"/>
  <outline>
    <contour>
      <point x="12" y="264" type="line"/>
      <point x="300" y="264" type="line" smooth="yes"/>
      <point x="480" y="264"/>
      <point x="556" y="404"/>
      <point x="556" y="520" type="curve" smooth="yes"/>
      <point x="556" y="652"/>
      <point x="468" y="720"/>
      <point x="332" y="720" type="curve" smooth="yes"/>
      <point x="152" y="720" type="line"/>
      <point x="152" y="636" type="line"/>
      <point x="328" y="636" type="line" smooth="yes"/>
      <point x="408" y="636"/>
      <point x="460" y="604"/>
      <point x="460" y="520" type="curve" smooth="yes"/>
      <point x="460" y="420"/>
      <point x="408" y="348"/>
      <point x="300" y="348" type="curve" smooth="yes"/>
      <point x="12" y="348" type="line"/>
    </contour>
    <contour>
      <point x="96" y="0" type="line"/>
      <point x="192" y="0" type="line"/>
      <point x="192" y="720" type="line"/>
      <point x="96" y="720" type="line"/>
    </contour>
    <contour>
      <point x="12" y="120" type="line"/>
      <point x="426" y="120" type="line"/>
      <point x="426" y="200" type="line"/>
      <point x="12" y="200" type="line"/>
    </contour>
  </outline>
</glyph>
<glyph name="numero" format="2">
  <advance width="1170"/>
  <unicode hex="2116"/>
  <note>
afii61352
</note>
  <outline>
    <contour>
      <point x="96" y="0" type="line"/>
      <point x="192" y="0" type="line"/>
      <point x="192" y="568" type="line"/>
      <point x="544" y="196" type="line"/>
      <point x="544" y="0" type="line"/>
      <point x="640" y="0" type="line"/>
      <point x="640" y="720" type="line"/>
      <point x="544" y="720" type="line"/>
      <point x="544" y="331" type="line"/>
      <point x="176" y="720" type="line"/>
      <point x="96" y="720" type="line"/>
    </contour>
    <contour>
      <point x="760" y="124" type="line"/>
      <point x="1080" y="124" type="line"/>
      <point x="1080" y="196" type="line"/>
      <point x="760" y="196" type="line"/>
    </contour>
    <contour>
      <point x="760" y="256" type="line"/>
      <point x="1080" y="256" type="line"/>
      <point x="1080" y="328" type="line"/>
      <point x="760" y="328" type="line"/>
    </contour>
    <contour>
      <point x="924" y="388" type="curve" smooth="yes"/>
      <point x="1033" y="388"/>
      <point x="1108" y="448"/>
      <point x="1108" y="560" type="curve" smooth="yes"/>
      <point x="1108" y="672"/>
      <point x="1033" y="732"/>
      <point x="924" y="732" type="curve" smooth="yes"/>
      <point x="815" y="732"/>
      <point x="740" y="672"/>
      <point x="740" y="560" type="curve" smooth="yes"/>
      <point x="740" y="448"/>
      <point x="815" y="388"/>
    </contour>
    <contour>
      <point x="924" y="456" type="curve" smooth="yes"/>
      <point x="870" y="456"/>
      <point x="824" y="489"/>
      <point x="824" y="560" type="curve" smooth="yes"/>
      <point x="824" y="631"/>
      <point x="870" y="664"/>
      <point x="924" y="664" type="curve" smooth="yes"/>
      <point x="978" y="664"/>
      <point x="1024" y="631"/>
      <point x="1024" y="560" type="curve" smooth="yes"/>
      <point x="1024" y="489"/>
      <point x="978" y="456"/>
    </contour>
  </outline>
</glyph>
<glyph name="trademark" format="2">
  <advance width="926"/>
  <unicode hex="2122"/>
  <note>
trademark
</note>
  <outline>
    <contour>
      <point x="452" y="320" type="line"/>
      <point x="536" y="320" type="line"/>
      <point x="536" y="607" type="line"/>
      <point x="515" y="600" type="line"/>
      <point x="633" y="428" type="line"/>
      <point x="679" y="428" type="line"/>
      <point x="797" y="601" type="line"/>
      <point x="776" y="608" type="line"/>
      <point x="776" y="320" type="line"/>
      <point x="860" y="320" type="line"/>
      <point x="860" y="720" type="line"/>
      <point x="790" y="720" type="line"/>
      <point x="636" y="491" type="line"/>
      <point x="678" y="491" type="line"/>
      <point x="524" y="720" type="line"/>
      <point x="452" y="720" type="line"/>
    </contour>
    <contour>
      <point x="151" y="320" type="line"/>
      <point x="234" y="320" type="line"/>
      <point x="234" y="651" type="line"/>
      <point x="367" y="651" type="line"/>
      <point x="367" y="720" type="line"/>
      <point x="19" y="720" type="line"/>
      <point x="19" y="651" type="line"/>
      <point x="151" y="651" type="line"/>
    </contour>
  </outline>
</glyph>
<glyph name="downArrow" format="2">
  <advance width="728"/>
  <unicode hex="2193"/>
  <note>
uni2193
</note>
  <outline>
    <contour>
      <point x="408" y="604" type="line"/>
      <point x="320" y="604" type="line"/>
      <point x="324" y="196" type="line" smooth="yes"/>
      <point x="324" y="145"/>
      <point x="326" y="108"/>
      <point x="327" y="82" type="curve"/>
      <point x="314" y="99"/>
      <point x="299" y="112"/>
      <point x="284" y="126" type="curve" smooth="yes"/>
      <point x="172" y="228" type="line"/>
      <point x="120" y="168" type="line"/>
      <point x="260" y="40" type="line" smooth="yes"/>
      <point x="281" y="21"/>
      <point x="316" y="-16"/>
      <point x="344" y="-52" type="curve"/>
      <point x="384" y="-52" type="line"/>
      <point x="412" y="-16"/>
      <point x="447" y="21"/>
      <point x="468" y="40" type="curve" smooth="yes"/>
      <point x="608" y="168" type="line"/>
      <point x="556" y="228" type="line"/>
      <point x="444" y="126" type="line" smooth="yes"/>
      <point x="428" y="112"/>
      <point x="413" y="99"/>
      <point x="400" y="82" type="curve"/>
      <point x="402" y="108"/>
      <point x="403" y="144"/>
      <point x="404" y="196" type="curve" smooth="yes"/>
    </contour>
  </outline>
</glyph>
<glyph name="bulletoperator" format="2">
  <advance width="304"/>
  <unicode hex="2219"/>
  <note>
uni2219
</note>
  <outline>
    <contour>
      <point x="140" y="301" type="curve" smooth="yes"/>
      <point x="176" y="301"/>
      <point x="204" y="325"/>
      <point x="204" y="365" type="curve" smooth="yes"/>
      <point x="204" y="405"/>
      <point x="176" y="429"/>
      <point x="140" y="429" type="curve" smooth="yes"/>
      <point x="104" y="429"/>
      <point x="76" y="405"/>
      <point x="76" y="365" type="curve" smooth="yes"/>
      <point x="76" y="325"/>
      <point x="104" y="301"/>
    </contour>
  </outline>
</glyph>
<glyph name="infinity" format="2">
  <advance width="728"/>
  <unicode hex="221E"/>
  <note>
infinity
</note>
  <outline>
    <contour>
      <point x="532" y="176" type="curve" smooth="yes"/>
      <point x="624" y="176"/>
      <point x="700" y="232"/>
      <point x="700" y="336" type="curve" smooth="yes"/>
      <point x="700" y="440"/>
      <point x="624" y="496"/>
      <point x="532" y="496" type="curve" smooth="yes"/>
      <point x="432" y="496"/>
      <point x="383" y="422"/>
      <point x="336" y="360" type="curve" smooth="yes"/>
      <point x="289" y="298"/>
      <point x="260" y="248"/>
      <point x="196" y="248" type="curve" smooth="yes"/>
      <point x="148" y="248"/>
      <point x="104" y="272"/>
      <point x="104" y="336" type="curve" smooth="yes"/>
      <point x="104" y="400"/>
      <point x="148" y="424"/>
      <point x="196" y="424" type="curve" smooth="yes"/>
      <point x="260" y="424"/>
      <point x="289" y="374"/>
      <point x="336" y="312" type="curve" smooth="yes"/>
      <point x="382" y="251"/>
      <point x="441" y="176"/>
    </contour>
    <contour>
      <point x="196" y="176" type="curve" smooth="yes"/>
      <point x="287" y="176"/>
      <point x="346" y="251"/>
      <point x="392" y="312" type="curve" smooth="yes"/>
      <point x="439" y="374"/>
      <point x="468" y="424"/>
      <point x="532" y="424" type="curve" smooth="yes"/>
      <point x="580" y="424"/>
      <point x="624" y="400"/>
      <point x="624" y="336" type="curve" smooth="yes"/>
      <point x="624" y="272"/>
      <point x="580" y="248"/>
      <point x="532" y="248" type="curve" smooth="yes"/>
      <point x="472" y="248"/>
      <point x="438" y="298"/>
      <point x="392" y="360" type="curve" smooth="yes"/>
      <point x="346" y="422"/>
      <point x="296" y="496"/>
      <point x="196" y="496" type="curve" smooth="yes"/>
      <point x="104" y="496"/>
      <point x="28" y="440"/>
      <point x="28" y="336" type="curve" smooth="yes"/>
      <point x="28" y="232"/>
      <point x="104" y="176"/>
    </contour>
  </outline>
</glyph>
<glyph name="integral" format="2">
  <advance width="480"/>
  <unicode hex="222B"/>
  <note>
integral
</note>
  <outline>
    <contour>
      <point x="52" y="-115" type="curve"/>
      <point x="52" y="-195" type="line"/>
      <point x="69" y="-204"/>
      <point x="90" y="-208"/>
      <point x="124" y="-208" type="curve" smooth="yes"/>
      <point x="238" y="-208"/>
      <point x="298" y="-136"/>
      <point x="298" y="-17" type="curve" smooth="yes"/>
      <point x="298" y="550" type="line" smooth="yes"/>
      <point x="298" y="613"/>
      <point x="327" y="652"/>
      <point x="394" y="652" type="curve" smooth="yes"/>
      <point x="416" y="652"/>
      <point x="437" y="646"/>
      <point x="450" y="639" type="curve"/>
      <point x="450" y="719" type="line"/>
      <point x="433" y="728"/>
      <point x="412" y="732"/>
      <point x="378" y="732" type="curve" smooth="yes"/>
      <point x="264" y="732"/>
      <point x="204" y="660"/>
      <point x="204" y="541" type="curve" smooth="yes"/>
      <point x="204" y="-26" type="line" smooth="yes"/>
      <point x="204" y="-89"/>
      <point x="175" y="-128"/>
      <point x="108" y="-128" type="curve" smooth="yes"/>
      <point x="86" y="-128"/>
      <point x="65" y="-122"/>
    </contour>
  </outline>
</glyph>
<glyph name="notequal" format="2">
  <advance width="616"/>
  <unicode hex="2260"/>
  <note>
notequal
</note>
  <outline>
    <contour>
      <point x="76" y="40" type="line"/>
      <point x="160" y="40" type="line"/>
      <point x="540" y="592" type="line"/>
      <point x="456" y="592" type="line"/>
    </contour>
    <contour>
      <point x="64" y="176" type="line"/>
      <point x="552" y="176" type="line"/>
      <point x="552" y="256" type="line"/>
      <point x="64" y="256" type="line"/>
    </contour>
    <contour>
      <point x="64" y="376" type="line"/>
      <point x="552" y="376" type="line"/>
      <point x="552" y="456" type="line"/>
      <point x="64" y="456" type="line"/>
    </contour>
  </outline>
</glyph>
<glyph name="lozenge" format="2">
  <advance width="610"/>
  <unicode hex="25CA"/>
  <note>
lozenge
</note>
  <outline>
    <contour>
      <point x="260" y="720" type="line"/>
      <point x="34" y="300" type="line"/>
      <point x="260" y="-120" type="line"/>
      <point x="350" y="-120" type="line"/>
      <point x="576" y="300" type="line"/>
      <point x="350" y="720" type="line"/>
    </contour>
    <contour>
      <point x="305" y="637" type="line"/>
      <point x="486" y="300" type="line"/>
      <point x="305" y="-37" type="line"/>
      <point x="124" y="300" type="line"/>
    </contour>
  </outline>
</glyph>
<glyph name="blackCircle" format="2">
  <advance width="674"/>
  <unicode hex="25CF"/>
  <note>
uni25CF
</note>
  <outline>
    <contour>
      <point x="48" y="268" type="curve" smooth="yes"/>
      <point x="48" y="99"/>
      <point x="164" y="-12"/>
      <point x="337" y="-12" type="curve" smooth="yes"/>
      <point x="510" y="-12"/>
      <point x="626" y="99"/>
      <point x="626" y="268" type="curve" smooth="yes"/>
      <point x="626" y="437"/>
      <point x="510" y="548"/>
      <point x="337" y="548" type="curve" smooth="yes"/>
      <point x="164" y="548"/>
      <point x="48" y="437"/>
    </contour>
  </outline>
</glyph>
<glyph name="mediumWhiteSquare" format="2">
  <advance width="720"/>
  <unicode hex="25FB"/>
  <note>
uni25FB
</note>
  <outline>
    <contour>
      <point x="96" y="536" type="line"/>
      <point x="96" y="0" type="line"/>
      <point x="624" y="0" type="line"/>
      <point x="624" y="536" type="line"/>
    </contour>
    <contour>
      <point x="528" y="88" type="line"/>
      <point x="192" y="88" type="line"/>
      <point x="192" y="448" type="line"/>
      <point x="528" y="448" type="line"/>
    </contour>
  </outline>
</glyph>
<glyph name="mediumBlackSquare" format="2">
  <advance width="720"/>
  <unicode hex="25FC"/>
  <note>
uni25FC
</note>
  <outline>
    <contour>
      <point x="96" y="536" type="line"/>
      <point x="96" y="0" type="line"/>
      <point x="624" y="0" type="line"/>
      <point x="624" y="536" type="line"/>
    </contour>
  </outline>
</glyph>
<glyph name="fi" format="2">
  <advance width="618"/>
  <unicode hex="FB01"/>
  <note>
fi
</note>
  <anchor x="312" y="0" name="caret_1"/>
  <outline>
    <contour>
      <point x="432" y="0" type="line"/>
      <point x="524" y="0" type="line"/>
      <point x="524" y="544" type="line"/>
      <point x="432" y="544" type="line"/>
    </contour>
    <contour>
      <point x="476" y="640" type="curve" smooth="yes"/>
      <point x="510" y="640"/>
      <point x="536" y="664"/>
      <point x="536" y="700" type="curve" smooth="yes"/>
      <point x="536" y="736"/>
      <point x="510" y="760"/>
      <point x="476" y="760" type="curve" smooth="yes"/>
      <point x="442" y="760"/>
      <point x="416" y="736"/>
      <point x="416" y="700" type="curve" smooth="yes"/>
      <point x="416" y="664"/>
      <point x="442" y="640"/>
    </contour>
    <component base="_part.f.liga"/>
  </outline>
</glyph>
<glyph name="__twodotsvertical" format="2">
  <advance width="200"/>
  <outline>
    <contour>
      <point x="101" y="509" type="curve" smooth="yes"/>
      <point x="132" y="509"/>
      <point x="155" y="531"/>
      <point x="155" y="563" type="curve" smooth="yes"/>
      <point x="155" y="595"/>
      <point x="132" y="617"/>
      <point x="101" y="617" type="curve" smooth="yes"/>
      <point x="70" y="617"/>
      <point x="47" y="595"/>
      <point x="47" y="563" type="curve" smooth="yes"/>
      <point x="47" y="531"/>
      <point x="70" y="509"/>
    </contour>
    <contour>
      <point x="101" y="369" type="curve" smooth="yes"/>
      <point x="132" y="369"/>
      <point x="155" y="391"/>
      <point x="155" y="423" type="curve" smooth="yes"/>
      <point x="155" y="455"/>
      <point x="132" y="477"/>
      <point x="101" y="477" type="curve" smooth="yes"/>
      <point x="70" y="477"/>
      <point x="47" y="455"/>
      <point x="47" y="423" type="curve" smooth="yes"/>
      <point x="47" y="391"/>
      <point x="70" y="369"/>
    </contour>
  </outline>
</glyph>
<glyph name="_baseline" format="2">
  <advance width="148"/>
  <anchor x="0" y="0" name="*exit"/>
  <outline>
    <contour>
      <point x="-30" y="0" type="line"/>
      <point x="128" y="0" type="line"/>
      <point x="148" y="20" type="line"/>
      <point x="148" y="85" type="line"/>
      <point x="-30" y="85" type="line"/>
    </contour>
  </outline>
</glyph>
<glyph name=".notdef" format="2">
  <advance width="856"/>
  <note>
.notdef
</note>
  <outline>
    <contour>
      <point x="96" y="720" type="line"/>
      <point x="96" y="0" type="line"/>
      <point x="760" y="0" type="line"/>
      <point x="760" y="720" type="line"/>
    </contour>
    <contour>
      <point x="168" y="64" type="line"/>
      <point x="168" y="656" type="line"/>
      <point x="688" y="656" type="line"/>
      <point x="688" y="64" type="line"/>
    </contour>
    <contour>
      <point x="294" y="538" type="line"/>
      <point x="249" y="493" type="line"/>
      <point x="382" y="360" type="line"/>
      <point x="249" y="227" type="line"/>
      <point x="294" y="182" type="line"/>
      <point x="427" y="315" type="line"/>
      <point x="560" y="182" type="line"/>
      <point x="605" y="227" type="line"/>
      <point x="472" y="360" type="line"/>
      <point x="605" y="493" type="line"/>
      <point x="560" y="538" type="line"/>
      <point x="427" y="405" type="line"/>
    </contour>
  </outline>
</glyph>
<glyph name="_part.bowl-ar" format="2">
  <advance width="460"/>
  <anchor x="465" y="0" name="*entry"/>
  <anchor x="190" y="-260" name="bottom"/>
  <anchor x="148" y="21" name="top"/>
  <outline>
    <contour>
      <point x="0" y="-68" type="curve"/>
      <point x="-8" y="-68" type="line"/>
      <point x="-36" y="-140" type="line"/>
      <point x="11" y="-201"/>
      <point x="92" y="-260"/>
      <point x="190" y="-260" type="curve" smooth="yes"/>
      <point x="368" y="-260"/>
      <point x="460" y="-128"/>
      <point x="460" y="148" type="curve" smooth="yes"/>
      <point x="460" y="240"/>
      <point x="444" y="350"/>
      <point x="428" y="440" type="curve"/>
      <point x="420" y="440" type="line"/>
      <point x="336" y="428" type="line"/>
      <point x="356" y="309"/>
      <point x="368" y="226"/>
      <point x="368" y="124" type="curve" smooth="yes"/>
      <point x="368" y="-11"/>
      <point x="349" y="-101"/>
      <point x="308" y="-168" type="curve"/>
      <point x="344" y="-128" type="line"/>
      <point x="298" y="-164"/>
      <point x="255" y="-175"/>
      <point x="218" y="-175" type="curve" smooth="yes"/>
      <point x="139" y="-175"/>
      <point x="73" y="-155"/>
    </contour>
  </outline>
</glyph>
<glyph name="_part.f.short" format="2">
  <advance width="336"/>
  <outline>
    <contour>
      <point x="100" y="0" type="line"/>
      <point x="192" y="0" type="line"/>
      <point x="192" y="576" type="line" smooth="yes"/>
      <point x="192" y="644"/>
      <point x="215" y="680"/>
      <point x="288" y="680" type="curve" smooth="yes"/>
      <point x="304" y="680"/>
      <point x="318" y="678"/>
      <point x="338" y="672" type="curve"/>
      <point x="346" y="672" type="line"/>
      <point x="346" y="752" type="line"/>
      <point x="326" y="758"/>
      <point x="304" y="760"/>
      <point x="288" y="760" type="curve" smooth="yes"/>
      <point x="163" y="760"/>
      <point x="100" y="687"/>
      <point x="100" y="576" type="curve" smooth="yes"/>
    </contour>
    <contour>
      <point x="16" y="464" type="line"/>
      <point x="312" y="464" type="line"/>
      <point x="312" y="544" type="line"/>
      <point x="16" y="544" type="line"/>
    </contour>
  </outline>
</glyph>
<glyph name="_part.reh-ar" format="2">
  <advance width="440"/>
  <anchor x="356" y="0" name="*entry"/>
  <anchor x="285" y="-34" name="bar"/>
  <anchor x="56" y="-260" name="bottom"/>
  <anchor x="56" y="-260" name="ring"/>
  <anchor x="278" y="440" name="top"/>
  <outline>
    <contour>
      <point x="-32" y="-168" type="curve"/>
      <point x="-52" y="-244" type="line"/>
      <point x="-52" y="-252" type="line" smooth="yes"/>
      <point x="-52" y="-253"/>
      <point x="4" y="-260"/>
      <point x="56" y="-260" type="curve" smooth="yes"/>
      <point x="261" y="-260"/>
      <point x="352" y="-131"/>
      <point x="352" y="148" type="curve" smooth="yes"/>
      <point x="352" y="270"/>
      <point x="347" y="354"/>
      <point x="337" y="440" type="curve"/>
      <point x="329" y="440" type="line"/>
      <point x="241" y="428" type="line"/>
      <point x="251" y="341"/>
      <point x="260" y="252"/>
      <point x="260" y="144" type="curve" smooth="yes"/>
      <point x="260" y="-24"/>
      <point x="231" y="-110"/>
      <point x="194" y="-172" type="curve"/>
      <point x="225" y="-148" type="line"/>
      <point x="177" y="-172"/>
      <point x="118" y="-180"/>
      <point x="64" y="-180" type="curve" smooth="yes"/>
      <point x="27" y="-180"/>
      <point x="-7" y="-175"/>
    </contour>
  </outline>
</glyph>
<glyph name="_tahbarMEDI" format="2">
  <advance width="374"/>
  <note>
uni066E.medi
</note>
  <anchor x="240" y="0" name="*entry"/>
  <outline>
    <contour>
      <point x="-20" y="0" type="line"/>
      <point x="354" y="0" type="line"/>
      <point x="374" y="20" type="line"/>
      <point x="374" y="85" type="line"/>
      <point x="188" y="85" type="line"/>
      <point x="226" y="42" type="line"/>
      <point x="226" y="760" type="line"/>
      <point x="218" y="760" type="line"/>
      <point x="134" y="748" type="line"/>
      <point x="134" y="160" type="line" smooth="yes"/>
      <point x="134" y="118"/>
      <point x="141" y="83"/>
      <point x="146" y="64" type="curve"/>
      <point x="180" y="85" type="line"/>
      <point x="0" y="85" type="line"/>
      <point x="-20" y="65" type="line"/>
    </contour>
  </outline>
</glyph>
<glyph name="_vinverted-ar" format="2">
  <advance width="199"/>
  <outline>
    <contour>
      <point x="165" y="85" type="line"/>
      <point x="229" y="85" type="line"/>
      <point x="229" y="89" type="line"/>
      <point x="145" y="241" type="line"/>
      <point x="69" y="241" type="line"/>
      <point x="-23" y="89" type="line"/>
      <point x="-23" y="85" type="line"/>
      <point x="41" y="85" type="line"/>
      <point x="106" y="189" type="line"/>
    </contour>
  </outline>
</glyph>
<glyph name="_wavyhamza-ar" format="2">
  <advance width="275"/>
  <outline>
    <contour>
      <point x="144" y="413" type="line"/>
      <point x="110" y="413" type="line" smooth="yes"/>
      <point x="50" y="413"/>
      <point x="30" y="374"/>
      <point x="30" y="321" type="curve"/>
      <point x="99" y="321" type="line"/>
      <point x="99" y="347"/>
      <point x="110" y="353"/>
      <point x="153" y="353" type="curve"/>
    </contour>
    <contour>
      <point x="81" y="466" type="curve" smooth="yes"/>
      <point x="81" y="432"/>
      <point x="100" y="407"/>
      <point x="139" y="392" type="curve"/>
      <point x="153" y="353" type="line"/>
      <point x="247" y="353" type="line"/>
      <point x="258" y="416" type="line"/>
      <point x="258" y="423" type="line"/>
      <point x="219" y="423" type="line" smooth="yes"/>
      <point x="185" y="423"/>
      <point x="151" y="426"/>
      <point x="131" y="462" type="curve"/>
      <point x="120" y="462" type="line"/>
      <point x="120" y="443" type="line"/>
      <point x="136" y="443" type="line"/>
      <point x="141" y="482"/>
      <point x="170" y="505"/>
      <point x="219" y="505" type="curve" smooth="yes"/>
      <point x="247" y="505" type="line"/>
      <point x="260" y="567" type="line"/>
      <point x="260" y="575" type="line"/>
      <point x="230" y="575" type="line" smooth="yes"/>
      <point x="137" y="575"/>
      <point x="81" y="520"/>
    </contour>
  </outline>
</glyph>
<glyph name="a.inferior" format="2">
  <advance width="451"/>
  <note>
a.inferior
</note>
  <outline>
    <contour>
      <point x="227" y="-168" type="curve" smooth="yes"/>
      <point x="275" y="-168"/>
      <point x="345" y="-157"/>
      <point x="393" y="-140" type="curve"/>
      <point x="394" y="-134" type="line"/>
      <point x="388" y="-108"/>
      <point x="388" y="-45"/>
      <point x="388" y="-16" type="curve" smooth="yes"/>
      <point x="388" y="80" type="line" smooth="yes"/>
      <point x="388" y="219"/>
      <point x="310" y="247"/>
      <point x="207" y="247" type="curve" smooth="yes"/>
      <point x="166" y="247"/>
      <point x="120" y="240"/>
      <point x="85" y="227" type="curve"/>
      <point x="85" y="157" type="line"/>
      <point x="92" y="157" type="line"/>
      <point x="115" y="168"/>
      <point x="157" y="179"/>
      <point x="197" y="179" type="curve" smooth="yes"/>
      <point x="281" y="179"/>
      <point x="305" y="155"/>
      <point x="305" y="72" type="curve"/>
      <point x="289" y="77"/>
      <point x="257" y="83"/>
      <point x="221" y="83" type="curve" smooth="yes"/>
      <point x="118" y="83"/>
      <point x="50" y="44"/>
      <point x="50" y="-43" type="curve" smooth="yes"/>
      <point x="50" y="-129"/>
      <point x="109" y="-168"/>
    </contour>
    <contour>
      <point x="228" y="-105" type="curve" smooth="yes"/>
      <point x="164" y="-105"/>
      <point x="130" y="-87"/>
      <point x="130" y="-42" type="curve" smooth="yes"/>
      <point x="130" y="6"/>
      <point x="163" y="22"/>
      <point x="235" y="22" type="curve" smooth="yes"/>
      <point x="262" y="22"/>
      <point x="287" y="17"/>
      <point x="305" y="13" type="curve"/>
      <point x="305" y="-55"/>
      <point x="305" y="-76"/>
      <point x="309" y="-94" type="curve"/>
      <point x="284" y="-101"/>
      <point x="256" y="-105"/>
    </contour>
  </outline>
</glyph>
<glyph name="ae.sc" format="2">
  <advance width="880"/>
  <note>
ae.sc
</note>
  <anchor x="440" y="0" name="bottom"/>
  <anchor x="464" y="572" name="top"/>
  <anchor x="516" y="0" name="ogonek"/>
  <outline>
    <contour>
      <point x="464" y="572" type="line"/>
      <point x="464" y="0" type="line"/>
      <point x="828" y="0" type="line"/>
      <point x="828" y="80" type="line"/>
      <point x="506" y="80" type="line"/>
      <point x="506" y="260" type="line"/>
      <point x="772" y="260" type="line"/>
      <point x="772" y="336" type="line"/>
      <point x="506" y="336" type="line"/>
      <point x="506" y="492" type="line"/>
      <point x="820" y="492" type="line"/>
      <point x="820" y="572" type="line"/>
    </contour>
    <component base="a.sc"/>
  </outline>
</glyph>
<glyph name="alefMaksura-ar.fina" format="2">
  <advance width="751"/>
  <note>
uni0649.fina
</note>
  <anchor x="181" y="-264" name="bottom"/>
  <anchor x="137" y="50" name="center"/>
  <anchor x="181" y="-264" name="ring"/>
  <anchor x="61" y="220" name="top"/>
  <outline>
    <contour>
      <point x="731" y="0" type="curve"/>
      <point x="751" y="20" type="line"/>
      <point x="751" y="85" type="line"/>
      <point x="674" y="85"/>
      <point x="653" y="133"/>
      <point x="616" y="227" type="curve" smooth="yes"/>
      <point x="533" y="436" type="line"/>
      <point x="525" y="436" type="line"/>
      <point x="421" y="414"/>
      <point x="262" y="359"/>
      <point x="261" y="220" type="curve" smooth="yes"/>
      <point x="261" y="119"/>
      <point x="405" y="-12"/>
      <point x="453" y="-85" type="curve"/>
      <point x="455" y="-49" type="line"/>
      <point x="408" y="-127"/>
      <point x="321" y="-179"/>
      <point x="205" y="-179" type="curve" smooth="yes"/>
      <point x="100" y="-179"/>
      <point x="46" y="-159"/>
      <point x="9" y="-147" type="curve"/>
      <point x="1" y="-147" type="line"/>
      <point x="-20" y="-224" type="line"/>
      <point x="-20" y="-224"/>
      <point x="50" y="-264"/>
      <point x="181" y="-264" type="curve" smooth="yes"/>
      <point x="387" y="-265"/>
      <point x="509" y="-149"/>
      <point x="509" y="-32" type="curve" smooth="yes"/>
      <point x="509" y="29"/>
      <point x="349" y="150"/>
      <point x="349" y="236" type="curve" smooth="yes"/>
      <point x="349" y="289"/>
      <point x="438" y="330"/>
      <point x="492" y="336" type="curve"/>
      <point x="473" y="347" type="line"/>
      <point x="554" y="153" type="line" smooth="yes"/>
      <point x="585" y="78"/>
      <point x="623" y="0"/>
    </contour>
  </outline>
</glyph>
<glyph name="ampersand.sc" format="2">
  <advance width="580"/>
  <note>
ampersand.sc
</note>
  <outline>
    <contour>
      <point x="72" y="144" type="curve" smooth="yes"/>
      <point x="72" y="24"/>
      <point x="172" y="-12"/>
      <point x="296" y="-12" type="curve" smooth="yes"/>
      <point x="360" y="-12"/>
      <point x="422" y="0"/>
      <point x="470" y="20" type="curve"/>
      <point x="472" y="28" type="line"/>
      <point x="464" y="56"/>
      <point x="464" y="125"/>
      <point x="464" y="156" type="curve" smooth="yes"/>
      <point x="464" y="236" type="line"/>
      <point x="532" y="236" type="line"/>
      <point x="532" y="312" type="line"/>
      <point x="272" y="312" type="line" smooth="yes"/>
      <point x="201" y="312"/>
      <point x="152" y="336"/>
      <point x="152" y="400" type="curve" smooth="yes"/>
      <point x="152" y="472"/>
      <point x="223" y="500"/>
      <point x="316" y="500" type="curve" smooth="yes"/>
      <point x="376" y="500"/>
      <point x="420" y="484"/>
      <point x="448" y="472" type="curve"/>
      <point x="456" y="472" type="line"/>
      <point x="456" y="556" type="line"/>
      <point x="424" y="568"/>
      <point x="372" y="580"/>
      <point x="320" y="580" type="curve" smooth="yes"/>
      <point x="160" y="580"/>
      <point x="60" y="520"/>
      <point x="60" y="396" type="curve" smooth="yes"/>
      <point x="60" y="327"/>
      <point x="103" y="279"/>
      <point x="164" y="254" type="curve"/>
      <point x="164" y="277" type="line"/>
      <point x="106" y="253"/>
      <point x="72" y="207"/>
    </contour>
    <contour>
      <point x="304" y="64" type="curve" smooth="yes"/>
      <point x="216" y="64"/>
      <point x="160" y="80"/>
      <point x="160" y="148" type="curve" smooth="yes"/>
      <point x="160" y="208"/>
      <point x="204" y="236"/>
      <point x="288" y="236" type="curve" smooth="yes"/>
      <point x="380" y="236" type="line"/>
      <point x="380" y="128" type="line" smooth="yes"/>
      <point x="380" y="99"/>
      <point x="380" y="70"/>
      <point x="383" y="56" type="curve"/>
      <point x="403" y="80" type="line"/>
      <point x="373" y="69"/>
      <point x="344" y="64"/>
    </contour>
  </outline>
</glyph>
<glyph name="approxequal.sc" format="2">
  <advance width="568"/>
  <note>
approxequal.sc
</note>
  <outline>
    <contour>
      <point x="72" y="92" type="curve"/>
      <point x="148" y="92" type="line"/>
      <point x="151" y="149"/>
      <point x="163" y="172"/>
      <point x="196" y="172" type="curve" smooth="yes"/>
      <point x="241" y="172"/>
      <point x="296" y="92"/>
      <point x="372" y="92" type="curve" smooth="yes"/>
      <point x="470" y="92"/>
      <point x="493" y="165"/>
      <point x="496" y="252" type="curve"/>
      <point x="420" y="252" type="line"/>
      <point x="417" y="195"/>
      <point x="405" y="172"/>
      <point x="372" y="172" type="curve" smooth="yes"/>
      <point x="327" y="172"/>
      <point x="272" y="252"/>
      <point x="196" y="252" type="curve" smooth="yes"/>
      <point x="98" y="252"/>
      <point x="75" y="179"/>
    </contour>
    <contour>
      <point x="72" y="324" type="curve"/>
      <point x="148" y="324" type="line"/>
      <point x="151" y="381"/>
      <point x="163" y="404"/>
      <point x="196" y="404" type="curve" smooth="yes"/>
      <point x="241" y="404"/>
      <point x="296" y="324"/>
      <point x="372" y="324" type="curve" smooth="yes"/>
      <point x="470" y="324"/>
      <point x="493" y="397"/>
      <point x="496" y="484" type="curve"/>
      <point x="420" y="484" type="line"/>
      <point x="417" y="427"/>
      <point x="405" y="404"/>
      <point x="372" y="404" type="curve" smooth="yes"/>
      <point x="327" y="404"/>
      <point x="272" y="484"/>
      <point x="196" y="484" type="curve" smooth="yes"/>
      <point x="98" y="484"/>
      <point x="75" y="411"/>
    </contour>
  </outline>
</glyph>
<glyph name="asciitilde.sc" format="2">
  <advance width="568"/>
  <note>
asciitilde.sc
</note>
  <outline>
    <contour>
      <point x="72" y="208" type="curve"/>
      <point x="148" y="208" type="line"/>
      <point x="151" y="265"/>
      <point x="163" y="288"/>
      <point x="196" y="288" type="curve" smooth="yes"/>
      <point x="241" y="288"/>
      <point x="296" y="208"/>
      <point x="372" y="208" type="curve" smooth="yes"/>
      <point x="470" y="208"/>
      <point x="493" y="281"/>
      <point x="496" y="368" type="curve"/>
      <point x="420" y="368" type="line"/>
      <point x="417" y="311"/>
      <point x="405" y="288"/>
      <point x="372" y="288" type="curve" smooth="yes"/>
      <point x="327" y="288"/>
      <point x="272" y="368"/>
      <point x="196" y="368" type="curve" smooth="yes"/>
      <point x="98" y="368"/>
      <point x="75" y="295"/>
    </contour>
  </outline>
</glyph>
<glyph name="asterisk.sc" format="2">
  <advance width="432"/>
  <note>
asterisk.sc
</note>
  <outline>
    <contour>
      <point x="188" y="392" type="line"/>
      <point x="176" y="212" type="line"/>
      <point x="256" y="212" type="line"/>
      <point x="244" y="392" type="line"/>
      <point x="256" y="572" type="line"/>
      <point x="176" y="572" type="line"/>
    </contour>
    <contour>
      <point x="202" y="416" type="line"/>
      <point x="40" y="337" type="line"/>
      <point x="80" y="267" type="line"/>
      <point x="230" y="368" type="line"/>
      <point x="392" y="447" type="line"/>
      <point x="352" y="517" type="line"/>
    </contour>
    <contour>
      <point x="230" y="416" type="line"/>
      <point x="80" y="517" type="line"/>
      <point x="40" y="447" type="line"/>
      <point x="202" y="368" type="line"/>
      <point x="352" y="267" type="line"/>
      <point x="392" y="337" type="line"/>
    </contour>
  </outline>
</glyph>
<glyph name="b.inferior" format="2">
  <advance width="471"/>
  <note>
b.inferior
</note>
  <outline>
    <contour>
      <point x="69" y="-139" type="curve"/>
      <point x="70" y="-145" type="line"/>
      <point x="108" y="-158"/>
      <point x="164" y="-169"/>
      <point x="214" y="-169" type="curve" smooth="yes"/>
      <point x="348" y="-169"/>
      <point x="432" y="-94"/>
      <point x="432" y="41" type="curve" smooth="yes"/>
      <point x="432" y="167"/>
      <point x="359" y="246"/>
      <point x="234" y="246" type="curve" smooth="yes"/>
      <point x="206" y="246"/>
      <point x="179" y="240"/>
      <point x="159" y="233" type="curve"/>
      <point x="159" y="395" type="line"/>
      <point x="70" y="395" type="line"/>
      <point x="68" y="389" type="line"/>
      <point x="74" y="363"/>
      <point x="74" y="291"/>
      <point x="74" y="262" type="curve" smooth="yes"/>
      <point x="74" y="-20" type="line" smooth="yes"/>
      <point x="74" y="-49"/>
      <point x="74" y="-112"/>
    </contour>
    <contour>
      <point x="159" y="-46" type="curve" smooth="yes"/>
      <point x="159" y="169" type="line"/>
      <point x="172" y="173"/>
      <point x="193" y="177"/>
      <point x="220" y="177" type="curve" smooth="yes"/>
      <point x="304" y="177"/>
      <point x="347" y="125"/>
      <point x="347" y="41" type="curve" smooth="yes"/>
      <point x="347" y="-50"/>
      <point x="307" y="-100"/>
      <point x="220" y="-100" type="curve" smooth="yes"/>
      <point x="197" y="-100"/>
      <point x="175" y="-97"/>
      <point x="156" y="-93" type="curve"/>
      <point x="158" y="-79"/>
      <point x="159" y="-63"/>
    </contour>
  </outline>
</glyph>
<glyph name="b.sc" format="2">
  <advance width="580"/>
  <note>
b.sc
</note>
  <outline>
    <contour>
      <point x="148" y="0" type="line"/>
      <point x="344" y="0" type="line" smooth="yes"/>
      <point x="473" y="0"/>
      <point x="524" y="70"/>
      <point x="524" y="148" type="curve" smooth="yes"/>
      <point x="524" y="214"/>
      <point x="481" y="262"/>
      <point x="403" y="273" type="curve"/>
      <point x="408" y="254" type="line"/>
      <point x="480" y="284"/>
      <point x="516" y="352"/>
      <point x="516" y="416" type="curve" smooth="yes"/>
      <point x="516" y="521"/>
      <point x="446" y="572"/>
      <point x="316" y="572" type="curve" smooth="yes"/>
      <point x="148" y="572" type="line"/>
      <point x="148" y="492" type="line"/>
      <point x="316" y="492" type="line" smooth="yes"/>
      <point x="381" y="492"/>
      <point x="424" y="474"/>
      <point x="424" y="412" type="curve" smooth="yes"/>
      <point x="424" y="350"/>
      <point x="384" y="292"/>
      <point x="308" y="292" type="curve" smooth="yes"/>
      <point x="148" y="292" type="line"/>
      <point x="148" y="220" type="line"/>
      <point x="340" y="220" type="line" smooth="yes"/>
      <point x="392" y="220"/>
      <point x="432" y="199"/>
      <point x="432" y="148" type="curve" smooth="yes"/>
      <point x="432" y="93"/>
      <point x="389" y="76"/>
      <point x="340" y="76" type="curve" smooth="yes"/>
      <point x="148" y="76" type="line"/>
    </contour>
    <contour>
      <point x="96" y="0" type="line"/>
      <point x="188" y="0" type="line"/>
      <point x="188" y="572" type="line"/>
      <point x="96" y="572" type="line"/>
    </contour>
  </outline>
</glyph>
<glyph name="backslash.sc" format="2">
  <advance width="487"/>
  <note>
backslash.sc
</note>
  <outline>
    <contour>
      <point x="448" y="0" type="line"/>
      <point x="116" y="572" type="line"/>
      <point x="36" y="572" type="line"/>
      <point x="368" y="0" type="line"/>
    </contour>
  </outline>
</glyph>
<glyph name="behDotless-ar.medi" format="2">
  <advance width="367"/>
  <note>
uni066E.medi
</note>
  <anchor x="233" y="0" name="*entry"/>
  <anchor x="171" y="0" name="bottom"/>
  <anchor x="163" y="0" name="ring"/>
  <anchor x="171" y="498" name="top"/>
  <outline>
    <contour>
      <point x="0" y="85" type="line"/>
      <point x="-20" y="65" type="line"/>
      <point x="-20" y="0" type="line"/>
      <point x="347" y="0" type="line"/>
      <point x="367" y="20" type="line"/>
      <point x="367" y="85" type="line"/>
      <point x="181" y="85" type="line"/>
      <point x="219" y="47" type="line"/>
      <point x="219" y="504" type="line"/>
      <point x="211" y="504" type="line"/>
      <point x="127" y="492" type="line"/>
      <point x="127" y="160" type="line" smooth="yes"/>
      <point x="127" y="118"/>
      <point x="134" y="83"/>
      <point x="139" y="64" type="curve"/>
      <point x="173" y="85" type="line"/>
    </contour>
  </outline>
</glyph>
<glyph name="braceleft.sc" format="2">
  <advance width="360"/>
  <note>
braceleft.sc
</note>
  <outline>
    <contour>
      <point x="128" y="264" type="curve"/>
      <point x="128" y="268" type="line"/>
      <point x="174" y="275"/>
      <point x="212" y="306"/>
      <point x="212" y="364" type="curve" smooth="yes"/>
      <point x="212" y="484" type="line" smooth="yes"/>
      <point x="212" y="519"/>
      <point x="229" y="532"/>
      <point x="264" y="532" type="curve" smooth="yes"/>
      <point x="320" y="532" type="line"/>
      <point x="320" y="604" type="line"/>
      <point x="260" y="604" type="line" smooth="yes"/>
      <point x="172" y="604"/>
      <point x="128" y="561"/>
      <point x="128" y="480" type="curve" smooth="yes"/>
      <point x="128" y="364" type="line" smooth="yes"/>
      <point x="128" y="332"/>
      <point x="114" y="304"/>
      <point x="72" y="304" type="curve" smooth="yes"/>
      <point x="28" y="304" type="line"/>
      <point x="28" y="228" type="line"/>
      <point x="72" y="228" type="line" smooth="yes"/>
      <point x="114" y="228"/>
      <point x="128" y="200"/>
      <point x="128" y="168" type="curve" smooth="yes"/>
      <point x="128" y="52" type="line" smooth="yes"/>
      <point x="128" y="-29"/>
      <point x="172" y="-72"/>
      <point x="260" y="-72" type="curve" smooth="yes"/>
      <point x="320" y="-72" type="line"/>
      <point x="320" y="0" type="line"/>
      <point x="264" y="0" type="line" smooth="yes"/>
      <point x="229" y="0"/>
      <point x="212" y="13"/>
      <point x="212" y="48" type="curve" smooth="yes"/>
      <point x="212" y="168" type="line" smooth="yes"/>
      <point x="212" y="226"/>
      <point x="174" y="257"/>
    </contour>
  </outline>
</glyph>
<glyph name="bracketleft.sc" format="2">
  <advance width="340"/>
  <note>
bracketleft.sc
</note>
  <outline>
    <contour>
      <point x="108" y="604" type="line"/>
      <point x="108" y="-72" type="line"/>
      <point x="300" y="-72" type="line"/>
      <point x="300" y="0" type="line"/>
      <point x="192" y="0" type="line"/>
      <point x="192" y="532" type="line"/>
      <point x="300" y="532" type="line"/>
      <point x="300" y="604" type="line"/>
    </contour>
  </outline>
</glyph>
<glyph name="bracketright.sc" format="2">
  <advance width="340"/>
  <note>
bracketright.sc
</note>
  <outline>
    <contour>
      <point x="148" y="0" type="line"/>
      <point x="40" y="0" type="line"/>
      <point x="40" y="-72" type="line"/>
      <point x="232" y="-72" type="line"/>
      <point x="232" y="604" type="line"/>
      <point x="40" y="604" type="line"/>
      <point x="40" y="532" type="line"/>
      <point x="148" y="532" type="line"/>
    </contour>
  </outline>
</glyph>
<glyph name="bullet.sc" format="2">
  <advance width="480"/>
  <note>
bullet.sc
</note>
  <outline>
    <contour>
      <point x="240" y="132" type="curve" smooth="yes"/>
      <point x="328" y="132"/>
      <point x="404" y="196"/>
      <point x="404" y="296" type="curve" smooth="yes"/>
      <point x="404" y="396"/>
      <point x="328" y="460"/>
      <point x="240" y="460" type="curve" smooth="yes"/>
      <point x="152" y="460"/>
      <point x="76" y="396"/>
      <point x="76" y="296" type="curve" smooth="yes"/>
      <point x="76" y="196"/>
      <point x="152" y="132"/>
    </contour>
  </outline>
</glyph>
